# Blender v2.76 (sub 0) OBJ File: ''
# www.blender.org
mtllib falseSalad_0.mtl
o Sphere.006
v -3.930133 -1.870927 2.313600
v -2.034961 -2.269233 2.146210
v -3.858236 -1.904024 1.941461
v -7.113376 -0.622089 2.228561
v -8.159549 0.125397 1.360554
v -8.315770 0.197307 2.169114
v -5.632525 -1.320451 2.277348
v -6.980525 -0.683243 1.540937
v -5.528147 -1.368499 1.737089
v -5.214571 -1.425875 1.217585
v -1.924855 -2.289380 1.963784
v -3.642239 -1.943544 1.583627
v -7.690250 0.039529 0.583068
v -6.581409 -0.756268 0.879742
v -5.931385 -0.838359 0.270376
v -6.925894 -0.056999 -0.133466
v -4.703846 -1.490372 0.738816
v -3.290442 -1.987972 1.253837
v -1.745504 -2.312029 1.795664
v -2.816374 -2.035597 0.964781
v -4.015592 -1.559515 0.319163
v -1.503824 -2.336308 1.648300
v -5.895858 -0.160477 -0.761514
v -5.055410 -0.926359 -0.263733
v -3.987154 -1.016889 -0.702067
v -4.639728 -0.266929 -1.276940
v -2.238236 -2.084592 0.727555
v -3.176274 -1.630643 -0.025232
v -1.209097 -2.361285 1.527364
v -1.578259 -2.133072 0.551280
v -2.767681 -1.106469 -1.027780
v -3.205766 -0.372264 -1.659936
v -2.218134 -1.701025 -0.281141
v -1.443835 -1.191655 -1.228350
v -1.649095 -0.472433 -1.895787
v -0.861810 -2.179174 0.442735
v -1.178002 -1.767956 -0.438733
v -0.872649 -2.386000 1.437501
v -0.507399 -2.409503 1.382163
v -0.116404 -2.221128 0.406079
v -0.066515 -1.269175 -1.296080
v -0.029536 -0.563586 -1.975420
v -0.095847 -1.828863 -0.491939
v 1.311374 -1.336050 -1.228350
v 1.590689 -0.642222 -1.895787
v 0.629303 -2.257320 0.442735
v 0.986757 -1.881406 -0.438733
v -0.127398 -2.430891 1.363480
v 2.636862 -1.389709 -1.027780
v 3.149302 -0.705319 -1.659936
v 2.028188 -1.923566 -0.281141
v 0.252768 -2.449342 1.382163
v 1.346657 -2.286360 0.551280
v 3.859028 -1.428090 -0.702067
v 2.008086 -2.307132 0.727555
v 2.988435 -1.953722 -0.025232
v 0.955662 -2.474735 1.527364
v 4.586410 -0.750450 -1.276940
v 4.930885 -1.449719 -0.263733
v 5.846786 -0.775883 -0.761514
v 3.830590 -1.970716 0.319163
v 2.588168 -2.318837 0.964781
v 5.811260 -1.453764 0.270376
v 4.522292 -1.973894 0.738816
v 1.251385 -2.480703 1.648300
v 3.064627 -2.321027 1.253837
v 6.881996 -0.780640 -0.133466
v 7.652254 -0.764538 0.583068
v 6.466314 -1.440071 0.879742
v 5.036960 -1.963135 1.217585
v 1.494279 -2.481819 1.795664
v 3.419140 -2.313616 1.583627
v 3.638086 -2.296889 1.941461
v 5.354817 -1.938851 1.737089
v 1.675005 -2.478041 1.963784
v 6.870866 -1.409164 1.540937
v 8.127957 -0.728195 1.360554
v 7.009382 -1.362231 2.228561
v 8.290839 -0.673009 2.169114
v 5.463646 -1.901977 2.277348
v 1.786624 -2.469513 2.146210
v 3.713048 -2.271490 2.313600
v 5.359267 -1.853929 2.817608
v 1.824844 -2.456565 2.335923
v 3.641151 -2.238394 2.685740
v 6.876531 -1.301078 2.916185
v 8.134618 -0.601099 2.977674
v 6.477426 -1.228053 3.577380
v 7.665319 -0.515231 3.755159
v 5.045691 -1.796553 3.337111
v 1.788187 -2.439693 2.525637
v 3.425154 -2.198873 3.043573
v 1.678071 -2.419545 2.708063
v 3.073357 -2.154445 3.373363
v 5.827391 -1.145962 4.186746
v 6.900964 -0.418703 4.471694
v 4.534966 -1.732055 3.815881
v 4.951416 -1.057961 4.720854
v 5.870928 -0.315225 5.099742
v 3.846722 -1.662913 4.235533
v 1.257049 -2.372617 3.023547
v 2.599279 -2.106819 3.662419
v 3.883170 -0.967432 5.159189
v 4.614798 -0.208773 5.615168
v 3.007394 -1.591784 4.579928
v 0.962323 -2.347640 3.144483
v 2.021152 -2.057825 3.899646
v 2.663687 -0.877852 5.484902
v 3.180845 -0.103439 5.998164
v 2.049264 -1.521403 4.835836
v 1.361174 -2.009345 4.075921
v 1.339851 -0.792666 5.685471
v 1.624175 -0.003271 6.234005
v 1.009132 -1.454473 4.993419
v 0.260625 -2.299422 3.289684
v 0.644715 -1.963243 4.184465
v -0.073034 -1.393565 5.046635
v -0.037479 -0.715146 5.753192
v -0.119387 -2.278034 3.308366
v -0.100690 -1.921289 4.221122
v 0.004606 0.087884 6.313648
v -1.415358 -0.648271 5.685471
v -1.615609 0.166519 6.234005
v -1.155627 -1.341022 4.993419
v -0.499542 -2.259583 3.289684
v -0.846398 -1.885097 4.184465
v -2.197058 -1.298862 4.835836
v -2.740855 -0.594612 5.484902
v -0.865238 -2.244780 3.234345
v -1.563742 -1.856057 4.075921
v -3.174223 0.229616 5.998164
v -3.963012 -0.556231 5.159189
v -4.611330 0.274748 5.615168
v -3.157306 -1.268706 4.579928
v -1.202436 -2.234190 3.144483
v -2.225171 -1.835285 3.899646
v -3.999460 -1.251712 4.235533
v -1.498159 -2.228222 3.023547
v -2.805263 -1.823580 3.662419
v -5.034879 -0.534602 4.720854
v -5.871706 0.300181 5.099742
v -5.915244 -0.530557 4.186746
v -6.906916 0.304937 4.471694
v -3.281711 -1.821390 3.373363
v -4.691162 -1.248535 3.815881
v -1.741054 -2.227107 2.876183
v -1.921789 -2.230884 2.708063
v -3.636225 -1.828802 3.043573
v -6.570297 -0.544251 3.577380
v -7.677174 0.288835 3.755159
v -5.205831 -1.259294 3.337111
v -6.974860 -0.575157 2.916185
v -8.152879 0.252492 2.977674
v -5.523697 -1.283577 2.817608
v -2.033398 -2.239412 2.525637
v -3.855171 -1.845528 2.685740
v -0.128405 -2.450115 2.343462
v -2.071618 -2.252360 2.335923
v 0.618464 -2.464146 1.437501
v 1.498730 -2.396897 2.876183
v 0.625865 -2.322925 3.234345
vn 0.201400 0.978300 -0.048100
vn 0.561600 0.826700 0.035000
vn 0.426500 0.904500 0.002000
vn 0.308100 0.951000 -0.025100
vn 0.296300 0.952200 0.073700
vn 0.296400 0.952200 0.073700
vn 0.195400 0.980700 0.009600
vn 0.526800 0.818900 0.227600
vn 0.406000 0.902200 0.145400
vn 0.465800 0.794400 0.389900
vn 0.368000 0.888900 0.272800
vn 0.273700 0.947700 0.164300
vn 0.273700 0.947700 0.164400
vn 0.183500 0.981000 0.063600
vn 0.242300 0.939400 0.242600
vn 0.166400 0.979700 0.111500
vn 0.390600 0.763200 0.514800
vn 0.317700 0.869600 0.377800
vn 0.310300 0.733500 0.604700
vn 0.260200 0.849600 0.458700
vn 0.204400 0.929800 0.306000
vn 0.145100 0.977700 0.151600
vn 0.120400 0.975800 0.182600
vn 0.229900 0.710100 0.665500
vn 0.199100 0.832800 0.516600
vn 0.162100 0.921300 0.353600
vn 0.162100 0.921300 0.353500
vn 0.151200 0.695200 0.702700
vn 0.136700 0.821500 0.553500
vn 0.117200 0.915400 0.385000
vn 0.093600 0.974600 0.203600
vn 0.065400 0.974600 0.214300
vn 0.074200 0.689600 0.720300
vn 0.074100 0.817200 0.571500
vn 0.071100 0.913500 0.400600
vn -0.001700 0.693600 0.720300
vn 0.011700 0.820500 0.571500
vn 0.024800 0.915900 0.400600
vn 0.036800 0.976100 0.214300
vn -0.077700 0.707200 0.702700
vn -0.050100 0.831300 0.553500
vn -0.050100 0.831300 0.553600
vn -0.020900 0.922700 0.385000
vn 0.008800 0.979000 0.203600
vn -0.111000 0.849000 0.516600
vn -0.064900 0.933200 0.353500
vn -0.064900 0.933200 0.353600
vn -0.017800 0.983000 0.182600
vn -0.154400 0.730300 0.665500
vn -0.231900 0.761900 0.604700
vn -0.170000 0.872200 0.458700
vn -0.106100 0.946100 0.306000
vn -0.042100 0.987500 0.151600
vn -0.225100 0.898100 0.377800
vn -0.142800 0.959600 0.242600
vn -0.063100 0.991800 0.111500
vn -0.308600 0.799800 0.514800
vn -0.380200 0.838700 0.389900
vn -0.273100 0.922500 0.272800
vn -0.173200 0.971100 0.164300
vn -0.173200 0.971100 0.164400
vn -0.079900 0.994800 0.063600
vn -0.195200 0.978000 0.073700
vn -0.091800 0.995700 0.009600
vn -0.438400 0.869500 0.227600
vn -0.309500 0.939700 0.145400
vn -0.472100 0.880800 0.035000
vn -0.329600 0.944100 0.002000
vn -0.207000 0.978000 -0.025100
vn -0.098000 0.994000 -0.048100
vn -0.207400 0.970100 -0.126300
vn -0.098200 0.989400 -0.107000
vn -0.473000 0.864900 -0.168300
vn -0.330200 0.932400 -0.146700
vn -0.440800 0.823600 -0.357000
vn -0.311300 0.905600 -0.287900
vn -0.196400 0.954600 -0.224000
vn -0.092500 0.982100 -0.164300
vn -0.081100 0.972700 -0.217500
vn -0.383900 0.767800 -0.513000
vn -0.275900 0.868700 -0.411400
vn -0.175200 0.933600 -0.312600
vn -0.313400 0.709800 -0.630900
vn -0.228800 0.828200 -0.511600
vn -0.145400 0.910000 -0.388400
vn -0.064600 0.962200 -0.264500
vn -0.237300 0.658300 -0.714400
vn -0.174300 0.789900 -0.587900
vn -0.109200 0.886700 -0.449200
vn -0.043900 0.951800 -0.303700
vn -0.160300 0.617500 -0.770100
vn -0.115800 0.758000 -0.641900
vn -0.068400 0.866500 -0.494400
vn -0.019900 0.942400 -0.333800
vn -0.083900 0.588800 -0.803900
vn -0.055200 0.734700 -0.676200
vn -0.024700 0.851200 -0.524200
vn 0.006500 0.935200 -0.354200
vn 0.006500 0.935200 -0.354100
vn 0.006500 0.721100 -0.692800
vn 0.020900 0.842100 -0.539000
vn 0.034500 0.930600 -0.364400
vn -0.008100 0.572600 -0.819800
vn 0.067900 0.568600 -0.819800
vn 0.068900 0.717900 -0.692800
vn 0.067200 0.839600 -0.539000
vn 0.063000 0.929100 -0.364400
vn 0.131700 0.724900 -0.676200
vn 0.113500 0.844000 -0.524200
vn 0.091300 0.930700 -0.354200
vn 0.145000 0.576800 -0.803900
vn 0.224000 0.597300 -0.770100
vn 0.194400 0.741700 -0.641900
vn 0.158600 0.854600 -0.494400
vn 0.118300 0.935200 -0.333800
vn 0.201300 0.870500 -0.449200
vn 0.143200 0.942000 -0.303700
vn 0.304900 0.629800 -0.714400
vn 0.255900 0.767400 -0.587900
vn 0.385800 0.673100 -0.630900
vn 0.314100 0.799700 -0.511600
vn 0.239700 0.889800 -0.388400
vn 0.164900 0.950200 -0.264500
vn 0.182300 0.958900 -0.217500
vn 0.462100 0.723400 -0.513000
vn 0.365200 0.835100 -0.411400
vn 0.271800 0.910200 -0.312600
vn 0.524400 0.773000 -0.357000
vn 0.404200 0.868100 -0.287900
vn 0.295100 0.928800 -0.224000
vn 0.194600 0.967000 -0.164300
vn 0.101300 0.992500 -0.068700
vn 0.099400 0.993800 -0.049700
vn 0.095800 0.994900 -0.031900
vn 0.090400 0.995800 -0.015800
vn 0.083600 0.996500 -0.002200
vn 0.075500 0.997100 0.008500
vn 0.066600 0.997700 0.015900
vn 0.057100 0.998200 0.019600
vn 0.047500 0.998700 0.019600
vn 0.038000 0.999100 0.015900
vn 0.029100 0.999500 0.008500
vn 0.021100 0.999800 -0.002200
vn 0.014200 0.999800 -0.015800
vn 0.008800 0.999500 -0.031900
vn 0.005000 0.998700 -0.049700
vn 0.003000 0.997600 -0.068700
vn 0.002900 0.996100 -0.088000
vn 0.004800 0.994300 -0.106900
vn 0.008400 0.992200 -0.124700
vn 0.013700 0.990000 -0.140700
vn 0.020400 0.987800 -0.154200
vn 0.028400 0.985900 -0.164800
vn 0.037300 0.984400 -0.172100
vn 0.046700 0.983300 -0.175800
vn 0.056300 0.982800 -0.175800
vn 0.065800 0.982900 -0.172100
vn 0.074800 0.983500 -0.164800
vn 0.082900 0.984600 -0.154200
vn 0.089900 0.986000 -0.140700
vn 0.095400 0.987600 -0.124700
vn 0.099200 0.989300 -0.106900
vn 0.201100 0.973700 -0.107000
vn 0.101200 0.991000 -0.088000
vn 0.560800 0.810700 -0.168300
vn 0.425900 0.892800 -0.146700
vn 0.307600 0.943100 -0.126300
vn 0.006500 0.721100 -0.692700
vn 0.020900 0.842000 -0.539000
usemtl None
s 1
f 1//1 2//1 3//1
f 4//2 5//2 6//2
f 7//3 8//3 4//3
f 7//4 3//4 9//4
f 3//5 10//6 9//6
f 3//7 11//7 12//7
f 8//8 13//8 5//8
f 9//9 14//9 8//9
f 13//10 15//10 16//10
f 14//11 17//11 15//11
f 10//12 18//12 17//13
f 12//14 19//14 18//14
f 17//15 20//15 21//15
f 18//16 22//16 20//16
f 15//17 23//17 16//17
f 17//18 24//18 15//18
f 23//19 25//19 26//19
f 21//20 25//20 24//20
f 21//21 27//21 28//21
f 20//22 29//22 27//22
f 29//23 30//23 27//23
f 26//24 31//24 32//24
f 28//25 31//25 25//25
f 28//26 30//27 33//26
f 32//28 34//28 35//28
f 33//29 34//29 31//29
f 33//30 36//30 37//30
f 38//31 36//31 30//31
f 39//32 40//32 36//32
f 35//33 41//33 42//33
f 37//34 41//34 34//34
f 36//35 43//35 37//35
f 42//36 44//36 45//36
f 43//37 44//37 41//37
f 43//38 46//38 47//38
f 48//39 46//39 40//39
f 45//40 49//40 50//40
f 47//41 49//41 44//42
f 46//43 51//43 47//43
f 52//44 53//44 46//44
f 51//45 54//45 49//45
f 51//46 55//46 56//47
f 53//48 57//48 55//48
f 50//49 54//49 58//49
f 58//50 59//50 60//50
f 56//51 59//51 54//51
f 55//52 61//52 56//52
f 57//53 62//53 55//53
f 61//54 63//54 59//54
f 62//55 64//55 61//55
f 65//56 66//56 62//56
f 60//57 63//57 67//57
f 63//58 68//58 67//58
f 64//59 69//59 63//59
f 66//60 70//61 64//61
f 71//62 72//62 66//62
f 70//63 73//63 74//63
f 75//64 73//64 72//64
f 68//65 76//65 77//65
f 69//66 74//66 76//66
f 77//67 78//67 79//67
f 74//68 78//68 76//68
f 73//69 80//69 74//69
f 81//70 82//70 73//70
f 82//71 83//71 80//71
f 84//72 85//72 82//72
f 79//73 86//73 87//73
f 78//74 83//74 86//74
f 87//75 88//75 89//75
f 86//76 90//76 88//76
f 85//77 90//77 83//77
f 91//78 92//78 85//78
f 93//79 94//79 92//79
f 89//80 95//80 96//80
f 90//81 95//81 88//81
f 92//82 97//82 90//82
f 96//83 98//83 99//83
f 97//84 98//84 95//84
f 94//85 100//85 97//85
f 94//86 101//86 102//86
f 99//87 103//87 104//87
f 100//88 103//88 98//88
f 102//89 105//89 100//89
f 102//90 106//90 107//90
f 104//91 108//91 109//91
f 105//92 108//92 103//92
f 107//93 110//93 105//93
f 106//94 111//94 107//94
f 109//95 112//95 113//95
f 108//96 114//96 112//96
f 111//97 114//97 110//97
f 111//98 115//99 116//98
f 112//100 117//100 118//100
f 116//101 117//101 114//101
f 116//102 119//102 120//102
f 113//103 118//103 121//103
f 121//104 122//104 123//104
f 118//105 124//105 122//105
f 120//106 124//106 117//106
f 120//107 125//107 126//107
f 122//108 127//108 128//108
f 126//109 127//109 124//109
f 126//110 129//110 130//110
f 123//111 128//111 131//111
f 131//112 132//112 133//112
f 128//113 134//113 132//113
f 130//114 134//114 127//114
f 130//115 135//115 136//115
f 136//116 137//116 134//116
f 136//117 138//117 139//117
f 133//118 140//118 141//118
f 132//119 137//119 140//119
f 141//120 142//120 143//120
f 137//121 142//121 140//121
f 137//122 144//122 145//122
f 139//123 146//123 144//123
f 144//124 147//124 148//124
f 143//125 149//125 150//125
f 142//126 151//126 149//126
f 144//127 151//127 145//127
f 150//128 152//128 153//128
f 151//129 152//129 149//129
f 148//130 154//130 151//130
f 148//131 155//131 156//131
f 157//132 2//132 158//132
f 157//133 11//133 2//133
f 157//134 19//134 11//134
f 157//135 22//135 19//135
f 157//136 29//136 22//136
f 157//137 38//137 29//137
f 157//138 39//138 38//138
f 157//139 48//139 39//139
f 157//140 52//140 48//140
f 157//141 159//141 52//141
f 157//142 57//142 159//142
f 157//143 65//143 57//143
f 157//144 71//144 65//144
f 157//145 75//145 71//145
f 157//146 81//146 75//146
f 157//147 84//147 81//147
f 157//148 91//148 84//148
f 157//149 93//149 91//149
f 157//150 160//150 93//150
f 157//151 101//151 160//151
f 157//152 106//152 101//152
f 157//153 161//153 106//153
f 157//154 115//154 161//154
f 157//155 119//155 115//155
f 157//156 125//156 119//156
f 157//157 129//157 125//157
f 157//158 135//158 129//158
f 157//159 138//159 135//159
f 157//160 146//160 138//160
f 157//161 147//161 146//161
f 157//162 155//162 147//162
f 156//163 158//163 1//163
f 157//164 158//164 155//164
f 153//165 4//165 6//165
f 152//166 7//166 4//166
f 154//167 1//167 7//167
f 158//1 2//1 1//1
f 8//2 5//2 4//2
f 9//3 8//3 7//3
f 1//4 3//4 7//4
f 12//5 10//6 3//5
f 2//7 11//7 3//7
f 14//8 13//8 8//8
f 10//9 14//9 9//9
f 14//10 15//10 13//10
f 10//11 17//11 14//11
f 12//12 18//12 10//12
f 11//14 19//14 12//14
f 18//15 20//15 17//15
f 19//16 22//16 18//16
f 24//17 23//17 15//17
f 21//18 24//18 17//18
f 24//19 25//19 23//19
f 28//20 25//20 21//20
f 20//21 27//21 21//21
f 22//22 29//22 20//22
f 38//23 30//23 29//23
f 25//24 31//24 26//24
f 33//25 31//25 28//25
f 27//27 30//27 28//26
f 31//28 34//28 32//28
f 37//29 34//29 33//29
f 30//30 36//30 33//30
f 39//31 36//31 38//31
f 48//32 40//32 39//32
f 34//33 41//33 35//33
f 43//34 41//34 37//34
f 40//35 43//35 36//35
f 41//36 44//36 42//36
f 47//37 44//37 43//37
f 40//38 46//38 43//38
f 52//39 46//39 48//39
f 44//40 49//40 45//40
f 51//41 49//41 47//41
f 53//43 51//43 46//43
f 159//44 53//44 52//44
f 56//45 54//45 51//45
f 53//46 55//46 51//46
f 159//48 57//48 53//48
f 49//49 54//49 50//49
f 54//50 59//50 58//50
f 61//51 59//51 56//51
f 62//52 61//52 55//52
f 65//53 62//53 57//53
f 64//54 63//54 61//54
f 66//55 64//55 62//55
f 71//56 66//56 65//56
f 59//57 63//57 60//57
f 69//58 68//58 63//58
f 70//59 69//59 64//59
f 72//60 70//61 66//60
f 75//62 72//62 71//62
f 72//63 73//63 70//63
f 81//64 73//64 75//64
f 69//65 76//65 68//65
f 70//66 74//66 69//66
f 76//67 78//67 77//67
f 80//68 78//68 74//68
f 82//69 80//69 73//69
f 84//70 82//70 81//70
f 85//71 83//71 82//71
f 91//72 85//72 84//72
f 78//73 86//73 79//73
f 80//74 83//74 78//74
f 86//75 88//75 87//75
f 83//76 90//76 86//76
f 92//77 90//77 85//77
f 93//78 92//78 91//78
f 160//79 94//79 93//79
f 88//80 95//80 89//80
f 97//81 95//81 90//81
f 94//82 97//82 92//82
f 95//83 98//83 96//83
f 100//84 98//84 97//84
f 102//85 100//85 94//85
f 160//86 101//86 94//86
f 98//87 103//87 99//87
f 105//88 103//88 100//88
f 107//89 105//89 102//89
f 101//90 106//90 102//90
f 103//91 108//91 104//91
f 110//92 108//92 105//92
f 111//93 110//93 107//93
f 161//94 111//94 106//94
f 108//95 112//95 109//95
f 110//96 114//96 108//96
f 116//97 114//97 111//97
f 161//99 115//99 111//98
f 114//168 117//100 112//100
f 120//169 117//101 116//101
f 115//102 119//102 116//102
f 112//103 118//103 113//103
f 118//104 122//104 121//104
f 117//105 124//105 118//105
f 126//106 124//106 120//106
f 119//107 125//107 120//107
f 124//108 127//108 122//108
f 130//109 127//109 126//109
f 125//110 129//110 126//110
f 122//111 128//111 123//111
f 128//112 132//112 131//112
f 127//113 134//113 128//113
f 136//114 134//114 130//114
f 129//115 135//115 130//115
f 139//116 137//116 136//116
f 135//117 138//117 136//117
f 132//118 140//118 133//118
f 134//119 137//119 132//119
f 140//120 142//120 141//120
f 145//121 142//121 137//121
f 139//122 144//122 137//122
f 138//123 146//123 139//123
f 146//124 147//124 144//124
f 142//125 149//125 143//125
f 145//126 151//126 142//126
f 148//127 151//127 144//127
f 149//128 152//128 150//128
f 154//129 152//129 151//129
f 156//130 154//130 148//130
f 147//131 155//131 148//131
f 155//163 158//163 156//163
f 152//165 4//165 153//165
f 154//166 7//166 152//166
f 156//167 1//167 154//167
