# Blender v2.76 (sub 0) OBJ File: ''
# www.blender.org
mtllib realSalad.mtl
o Sphere.006
v -3.826830 -2.249180 2.143740
v -1.913410 -2.533700 1.953440
v -3.753300 -2.249180 1.770450
v -7.071070 -1.165310 2.143740
v -8.154930 -0.407630 1.332680
v -8.314700 -0.407630 2.143740
v -5.555700 -1.787130 2.143740
v -6.935200 -1.165310 1.453990
v -5.448950 -1.787130 1.601810
v -5.132800 -1.787130 1.080700
v -1.802400 -2.533700 1.770450
v -3.535530 -2.249180 1.411510
v -7.681780 -0.407630 0.552790
v -6.532810 -1.165310 0.790750
v -5.879380 -1.165310 0.179500
v -6.913420 -0.407630 -0.165960
v -4.619400 -1.787130 0.600450
v -3.181890 -2.249180 1.080700
v -1.622110 -2.533700 1.601810
v -2.705980 -2.249180 0.790750
v -3.928470 -1.787130 0.179500
v -1.379490 -2.533700 1.453990
v -5.879380 -0.407630 -0.795950
v -5.000000 -1.165310 -0.356260
v -3.928470 -1.165310 -0.795950
v -4.619400 -0.407630 -1.312970
v -2.126070 -2.249180 0.552790
v -3.086580 -1.787130 -0.165960
v -1.083860 -2.533700 1.332680
v -1.464460 -2.249180 0.375970
v -2.705980 -1.165310 -1.122670
v -3.181890 -0.407630 -1.697150
v -2.126070 -1.787130 -0.422660
v -1.379490 -1.165310 -1.323860
v -1.622110 -0.407630 -1.933730
v -0.746580 -2.249180 0.267090
v -1.083860 -1.787130 -0.580740
v -0.746580 -2.533700 1.242540
v -0.380600 -2.533700 1.187030
v 0.000000 -2.249180 0.230320
v 0.000000 -1.165310 -1.391800
v 0.000000 -0.407630 -2.013610
v 0.000000 -1.787130 -0.634110
v 1.379500 -1.165310 -1.323860
v 1.622120 -0.407630 -1.933730
v 0.746580 -2.249180 0.267090
v 1.083870 -1.787130 -0.580740
v 0.000000 -2.533700 1.168290
v 2.705980 -1.165310 -1.122670
v 3.181900 -0.407630 -1.697150
v 2.126080 -1.787130 -0.422660
v 0.380610 -2.533700 1.187030
v 1.464470 -2.249180 0.375970
v 3.928480 -1.165310 -0.795950
v 2.126080 -2.249180 0.552790
v 3.086590 -1.787130 -0.165960
v 1.083870 -2.533700 1.332680
v 4.619400 -0.407630 -1.312970
v 5.000000 -1.165310 -0.356260
v 5.879380 -0.407630 -0.795950
v 3.928480 -1.787130 0.179500
v 2.705980 -2.249180 0.790750
v 5.879380 -1.165310 0.179500
v 4.619400 -1.787130 0.600450
v 1.379500 -2.533700 1.453990
v 3.181900 -2.249180 1.080700
v 6.913420 -0.407630 -0.165960
v 7.681780 -0.407630 0.552790
v 6.532820 -1.165310 0.790750
v 5.132800 -1.787130 1.080700
v 1.622120 -2.533700 1.601810
v 3.535540 -2.249180 1.411510
v 3.753310 -2.249180 1.770450
v 5.448950 -1.787130 1.601810
v 1.802400 -2.533700 1.770450
v 6.935200 -1.165310 1.453990
v 8.154930 -0.407630 1.332680
v 7.071070 -1.165310 2.143740
v 8.314700 -0.407630 2.143740
v 5.555700 -1.787130 2.143740
v 1.913420 -2.533700 1.953440
v 3.826840 -2.249180 2.143740
v 5.448950 -1.787130 2.685670
v 1.950910 -2.533700 2.143740
v 3.753310 -2.249180 2.517030
v 6.935200 -1.165310 2.833490
v 8.154930 -0.407630 2.954800
v 6.532820 -1.165310 3.496730
v 7.681780 -0.407630 3.734690
v 5.132800 -1.787130 3.206780
v 1.913420 -2.533700 2.334040
v 3.535540 -2.249180 2.875970
v 1.802400 -2.533700 2.517030
v 3.181900 -2.249180 3.206780
v 5.879380 -1.165310 4.107980
v 6.913420 -0.407630 4.453440
v 4.619400 -1.787130 3.687030
v 5.000000 -1.165310 4.643740
v 5.879380 -0.407630 5.083430
v 3.928480 -1.787130 4.107980
v 1.379500 -2.533700 2.833490
v 2.705980 -2.249180 3.496730
v 3.928480 -1.165310 5.083430
v 4.619400 -0.407630 5.600450
v 3.086580 -1.787130 4.453440
v 1.083870 -2.533700 2.954800
v 2.126080 -2.249180 3.734690
v 2.705980 -1.165310 5.410151
v 3.181900 -0.407630 5.984630
v 2.126080 -1.787130 4.710140
v 1.464470 -2.249180 3.911510
v 1.379500 -1.165310 5.611340
v 1.622120 -0.407630 6.221200
v 1.083870 -1.787130 4.868210
v 0.380610 -2.533700 3.100450
v 0.746580 -2.249180 4.020390
v 0.000000 -1.787130 4.921590
v 0.000000 -1.165310 5.679270
v 0.000000 -2.533700 3.119190
v 0.000000 -2.249180 4.057160
v 0.000000 -0.407630 6.301090
v -1.379490 -1.165310 5.611340
v -1.622110 -0.407630 6.221200
v -1.083860 -1.787130 4.868210
v -0.380600 -2.533700 3.100450
v -0.746580 -2.249180 4.020390
v -2.126070 -1.787130 4.710140
v -2.705980 -1.165310 5.410151
v -0.746570 -2.533700 3.044940
v -1.464460 -2.249180 3.911510
v -3.181890 -0.407630 5.984630
v -3.928470 -1.165310 5.083430
v -4.619390 -0.407630 5.600450
v -3.086580 -1.787130 4.453440
v -1.083860 -2.533700 2.954800
v -2.126070 -2.249180 3.734690
v -3.928470 -1.787130 4.107980
v -1.379490 -2.533700 2.833490
v -2.705980 -2.249180 3.496730
v -5.000000 -1.165310 4.643740
v -5.879370 -0.407630 5.083430
v -5.879370 -1.165310 4.107980
v -6.913410 -0.407630 4.453440
v -3.181890 -2.249180 3.206780
v -4.619390 -1.787130 3.687030
v -1.622110 -2.533700 2.685670
v -1.802400 -2.533700 2.517030
v -3.535530 -2.249180 2.875970
v -6.532810 -1.165310 3.496730
v -7.681770 -0.407630 3.734690
v -5.132790 -1.787130 3.206780
v -6.935200 -1.165310 2.833490
v -8.154920 -0.407630 2.954800
v -5.448950 -1.787130 2.685670
v -1.913410 -2.533700 2.334040
v -3.753300 -2.249180 2.517030
v 0.000000 -2.629780 2.143740
v -1.950900 -2.533700 2.143740
v 0.746580 -2.533700 1.242540
v 1.622120 -2.533700 2.685670
v 0.746580 -2.533700 3.044940
vn 0.149900 0.988300 0.029500
vn 0.517600 0.849500 0.102000
vn 0.378600 0.922600 0.074600
vn 0.257900 0.964800 0.050800
vn 0.246100 0.957700 0.149300
vn 0.143800 0.985800 0.087200
vn 0.483300 0.824900 0.293200
vn 0.358300 0.908000 0.217400
vn 0.423600 0.784600 0.452800
vn 0.321000 0.882700 0.343100
vn 0.321000 0.882700 0.343200
vn 0.223800 0.944800 0.239200
vn 0.131900 0.981200 0.141000
vn 0.192800 0.928800 0.316500
vn 0.114900 0.975300 0.188600
vn 0.350100 0.739800 0.574600
vn 0.271800 0.852700 0.446100
vn 0.271500 0.699000 0.661600
vn 0.215400 0.823400 0.524900
vn 0.155400 0.912300 0.378800
vn 0.093700 0.969100 0.228300
vn 0.069200 0.963400 0.259000
vn 0.192400 0.666800 0.720000
vn 0.155300 0.798900 0.581000
vn 0.113700 0.897900 0.425300
vn 0.114600 0.644900 0.755600
vn 0.093500 0.781600 0.616800
vn 0.069200 0.887300 0.456000
vn 0.042400 0.959100 0.279800
vn 0.014300 0.956800 0.290200
vn 0.038000 0.633900 0.772500
vn 0.031200 0.772600 0.634100
vn 0.023200 0.881700 0.471300
vn -0.038000 0.633900 0.772400
vn -0.031200 0.772600 0.634100
vn -0.023200 0.881700 0.471300
vn -0.014300 0.956800 0.290200
vn -0.114600 0.644900 0.755600
vn -0.093500 0.781600 0.616800
vn -0.069200 0.887300 0.456000
vn -0.042400 0.959100 0.279800
vn -0.155300 0.798900 0.581000
vn -0.113700 0.897900 0.425300
vn -0.069200 0.963400 0.259000
vn -0.192400 0.666800 0.720000
vn -0.271500 0.699000 0.661600
vn -0.215400 0.823400 0.524900
vn -0.155400 0.912300 0.378800
vn -0.093700 0.969100 0.228300
vn -0.271800 0.852700 0.446100
vn -0.192800 0.928800 0.316500
vn -0.114900 0.975300 0.188600
vn -0.350100 0.739800 0.574600
vn -0.423600 0.784600 0.452800
vn -0.321000 0.882700 0.343200
vn -0.223800 0.944800 0.239200
vn -0.131900 0.981200 0.141000
vn -0.246100 0.957700 0.149300
vn -0.143800 0.985800 0.087200
vn -0.483300 0.824900 0.293200
vn -0.358300 0.908000 0.217400
vn -0.517600 0.849500 0.102000
vn -0.378600 0.922600 0.074600
vn -0.257900 0.964800 0.050800
vn -0.149900 0.988300 0.029500
vn -0.257900 0.964800 -0.050800
vn -0.149900 0.988300 -0.029500
vn -0.517600 0.849500 -0.102000
vn -0.378600 0.922600 -0.074600
vn -0.483300 0.824900 -0.293200
vn -0.358300 0.908000 -0.217400
vn -0.246100 0.957700 -0.149300
vn -0.143800 0.985800 -0.087200
vn -0.131900 0.981200 -0.141000
vn -0.423600 0.784600 -0.452800
vn -0.321000 0.882700 -0.343200
vn -0.223800 0.944800 -0.239200
vn -0.350100 0.739800 -0.574600
vn -0.271800 0.852700 -0.446100
vn -0.192800 0.928800 -0.316500
vn -0.114900 0.975300 -0.188600
vn -0.271500 0.699000 -0.661600
vn -0.215400 0.823400 -0.524900
vn -0.155400 0.912300 -0.378800
vn -0.093700 0.969100 -0.228300
vn -0.192400 0.666800 -0.720000
vn -0.155300 0.798900 -0.581000
vn -0.113700 0.897900 -0.425300
vn -0.069200 0.963400 -0.259000
vn -0.114600 0.644900 -0.755600
vn -0.093500 0.781600 -0.616800
vn -0.069200 0.887300 -0.456000
vn -0.042400 0.959100 -0.279800
vn -0.031200 0.772600 -0.634100
vn -0.023200 0.881700 -0.471300
vn -0.014300 0.956800 -0.290200
vn -0.038000 0.633900 -0.772400
vn 0.038000 0.633900 -0.772500
vn 0.031200 0.772600 -0.634100
vn 0.023200 0.881700 -0.471300
vn 0.014300 0.956800 -0.290200
vn 0.093500 0.781600 -0.616800
vn 0.069200 0.887300 -0.456000
vn 0.042400 0.959100 -0.279800
vn 0.114600 0.644900 -0.755600
vn 0.192400 0.666800 -0.720000
vn 0.155300 0.798900 -0.581000
vn 0.113700 0.897900 -0.425300
vn 0.069200 0.963400 -0.259000
vn 0.155400 0.912300 -0.378800
vn 0.093700 0.969100 -0.228300
vn 0.271500 0.699000 -0.661600
vn 0.215400 0.823400 -0.524900
vn 0.350100 0.739800 -0.574600
vn 0.271800 0.852700 -0.446100
vn 0.192800 0.928800 -0.316500
vn 0.114900 0.975300 -0.188600
vn 0.131900 0.981200 -0.141000
vn 0.423600 0.784600 -0.452800
vn 0.321000 0.882700 -0.343200
vn 0.223800 0.944800 -0.239200
vn 0.483300 0.824900 -0.293200
vn 0.358300 0.908000 -0.217400
vn 0.246100 0.957700 -0.149300
vn 0.143800 0.985800 -0.087200
vn 0.049200 0.998700 0.009700
vn 0.047300 0.998500 0.028700
vn 0.043600 0.998000 0.046600
vn 0.038200 0.997300 0.062600
vn 0.031300 0.996600 0.076200
vn 0.023200 0.995900 0.086900
vn 0.014300 0.995400 0.094300
vn 0.004800 0.995200 0.098000
vn -0.004800 0.995200 0.098000
vn -0.014300 0.995400 0.094300
vn -0.023200 0.995900 0.086900
vn -0.031300 0.996600 0.076200
vn -0.038200 0.997300 0.062600
vn -0.043600 0.998000 0.046600
vn -0.047300 0.998500 0.028700
vn -0.049200 0.998700 0.009700
vn -0.049200 0.998700 -0.009700
vn -0.047300 0.998500 -0.028700
vn -0.043600 0.998000 -0.046600
vn -0.038200 0.997300 -0.062600
vn -0.031300 0.996600 -0.076200
vn -0.023200 0.995900 -0.086900
vn -0.014300 0.995400 -0.094300
vn -0.004800 0.995200 -0.098000
vn 0.004800 0.995200 -0.098000
vn 0.014300 0.995400 -0.094300
vn 0.023200 0.995900 -0.086900
vn 0.031300 0.996600 -0.076200
vn 0.038200 0.997300 -0.062600
vn 0.043600 0.998000 -0.046600
vn 0.047300 0.998500 -0.028700
vn 0.149900 0.988300 -0.029500
vn 0.049200 0.998700 -0.009700
vn 0.517600 0.849500 -0.102000
vn 0.378600 0.922600 -0.074600
vn 0.257900 0.964800 -0.050800
vn 0.093600 0.781600 0.616800
vn 0.038000 0.633900 0.772400
vn -0.038000 0.633900 0.772500
vn -0.038000 0.633900 -0.772500
vn 0.038000 0.633900 -0.772400
usemtl None
s 1
f 1//1 2//1 3//1
f 4//2 5//2 6//2
f 7//3 8//3 4//3
f 7//4 3//4 9//4
f 3//5 10//5 9//5
f 3//6 11//6 12//6
f 8//7 13//7 5//7
f 9//8 14//8 8//8
f 13//9 15//9 16//9
f 14//10 17//11 15//10
f 10//12 18//12 17//12
f 12//13 19//13 18//13
f 17//14 20//14 21//14
f 18//15 22//15 20//15
f 15//16 23//16 16//16
f 17//17 24//17 15//17
f 23//18 25//18 26//18
f 21//19 25//19 24//19
f 21//20 27//20 28//20
f 20//21 29//21 27//21
f 29//22 30//22 27//22
f 26//23 31//23 32//23
f 28//24 31//24 25//24
f 28//25 30//25 33//25
f 32//26 34//26 35//26
f 33//27 34//27 31//27
f 33//28 36//28 37//28
f 38//29 36//29 30//29
f 39//30 40//30 36//30
f 35//31 41//31 42//31
f 37//32 41//32 34//32
f 36//33 43//33 37//33
f 42//34 44//34 45//34
f 43//35 44//35 41//35
f 43//36 46//36 47//36
f 48//37 46//37 40//37
f 45//38 49//38 50//38
f 47//39 49//39 44//39
f 46//40 51//40 47//40
f 52//41 53//41 46//41
f 51//42 54//42 49//42
f 51//43 55//43 56//43
f 53//44 57//44 55//44
f 50//45 54//45 58//45
f 58//46 59//46 60//46
f 56//47 59//47 54//47
f 55//48 61//48 56//48
f 57//49 62//49 55//49
f 61//50 63//50 59//50
f 62//51 64//51 61//51
f 65//52 66//52 62//52
f 60//53 63//53 67//53
f 63//54 68//54 67//54
f 64//55 69//55 63//55
f 66//56 70//56 64//56
f 71//57 72//57 66//57
f 70//58 73//58 74//58
f 75//59 73//59 72//59
f 68//60 76//60 77//60
f 69//61 74//61 76//61
f 77//62 78//62 79//62
f 74//63 78//63 76//63
f 73//64 80//64 74//64
f 81//65 82//65 73//65
f 82//66 83//66 80//66
f 84//67 85//67 82//67
f 79//68 86//68 87//68
f 78//69 83//69 86//69
f 87//70 88//70 89//70
f 86//71 90//71 88//71
f 85//72 90//72 83//72
f 91//73 92//73 85//73
f 93//74 94//74 92//74
f 89//75 95//75 96//75
f 90//76 95//76 88//76
f 92//77 97//77 90//77
f 96//78 98//78 99//78
f 97//79 98//79 95//79
f 94//80 100//80 97//80
f 94//81 101//81 102//81
f 99//82 103//82 104//82
f 100//83 103//83 98//83
f 102//84 105//84 100//84
f 102//85 106//85 107//85
f 104//86 108//86 109//86
f 105//87 108//87 103//87
f 107//88 110//88 105//88
f 106//89 111//89 107//89
f 109//90 112//90 113//90
f 108//91 114//91 112//91
f 111//92 114//92 110//92
f 111//93 115//93 116//93
f 112//94 117//94 118//94
f 116//95 117//95 114//95
f 116//96 119//96 120//96
f 113//97 118//97 121//97
f 121//98 122//98 123//98
f 118//99 124//99 122//99
f 120//100 124//100 117//100
f 120//101 125//101 126//101
f 122//102 127//102 128//102
f 126//103 127//103 124//103
f 126//104 129//104 130//104
f 123//105 128//105 131//105
f 131//106 132//106 133//106
f 128//107 134//107 132//107
f 130//108 134//108 127//108
f 130//109 135//109 136//109
f 136//110 137//110 134//110
f 136//111 138//111 139//111
f 133//112 140//112 141//112
f 132//113 137//113 140//113
f 141//114 142//114 143//114
f 137//115 142//115 140//115
f 137//116 144//116 145//116
f 139//117 146//117 144//117
f 144//118 147//118 148//118
f 143//119 149//119 150//119
f 142//120 151//120 149//120
f 144//121 151//121 145//121
f 150//122 152//122 153//122
f 151//123 152//123 149//123
f 148//124 154//124 151//124
f 148//125 155//125 156//125
f 157//126 2//126 158//126
f 157//127 11//127 2//127
f 157//128 19//128 11//128
f 157//129 22//129 19//129
f 157//130 29//130 22//130
f 157//131 38//131 29//131
f 157//132 39//132 38//132
f 157//133 48//133 39//133
f 157//134 52//134 48//134
f 157//135 159//135 52//135
f 157//136 57//136 159//136
f 157//137 65//137 57//137
f 157//138 71//138 65//138
f 157//139 75//139 71//139
f 157//140 81//140 75//140
f 157//141 84//141 81//141
f 157//142 91//142 84//142
f 157//143 93//143 91//143
f 157//144 160//144 93//144
f 157//145 101//145 160//145
f 157//146 106//146 101//146
f 157//147 161//147 106//147
f 157//148 115//148 161//148
f 157//149 119//149 115//149
f 157//150 125//150 119//150
f 157//151 129//151 125//151
f 157//152 135//152 129//152
f 157//153 138//153 135//153
f 157//154 146//154 138//154
f 157//155 147//155 146//155
f 157//156 155//156 147//156
f 156//157 158//157 1//157
f 157//158 158//158 155//158
f 153//159 4//159 6//159
f 152//160 7//160 4//160
f 154//161 1//161 7//161
f 158//1 2//1 1//1
f 8//2 5//2 4//2
f 9//3 8//3 7//3
f 1//4 3//4 7//4
f 12//5 10//5 3//5
f 2//6 11//6 3//6
f 14//7 13//7 8//7
f 10//8 14//8 9//8
f 14//9 15//9 13//9
f 10//11 17//11 14//10
f 12//12 18//12 10//12
f 11//13 19//13 12//13
f 18//14 20//14 17//14
f 19//15 22//15 18//15
f 24//16 23//16 15//16
f 21//17 24//17 17//17
f 24//18 25//18 23//18
f 28//19 25//19 21//19
f 20//20 27//20 21//20
f 22//21 29//21 20//21
f 38//22 30//22 29//22
f 25//23 31//23 26//23
f 33//24 31//24 28//24
f 27//25 30//25 28//25
f 31//26 34//26 32//26
f 37//162 34//27 33//27
f 30//28 36//28 33//28
f 39//29 36//29 38//29
f 48//30 40//30 39//30
f 34//163 41//163 35//163
f 43//32 41//32 37//32
f 40//33 43//33 36//33
f 41//164 44//164 42//164
f 47//35 44//35 43//35
f 40//36 46//36 43//36
f 52//37 46//37 48//37
f 44//38 49//38 45//38
f 51//39 49//39 47//39
f 53//40 51//40 46//40
f 159//41 53//41 52//41
f 56//42 54//42 51//42
f 53//43 55//43 51//43
f 159//44 57//44 53//44
f 49//45 54//45 50//45
f 54//46 59//46 58//46
f 61//47 59//47 56//47
f 62//48 61//48 55//48
f 65//49 62//49 57//49
f 64//50 63//50 61//50
f 66//51 64//51 62//51
f 71//52 66//52 65//52
f 59//53 63//53 60//53
f 69//54 68//54 63//54
f 70//55 69//55 64//55
f 72//56 70//56 66//56
f 75//57 72//57 71//57
f 72//58 73//58 70//58
f 81//59 73//59 75//59
f 69//60 76//60 68//60
f 70//61 74//61 69//61
f 76//62 78//62 77//62
f 80//63 78//63 74//63
f 82//64 80//64 73//64
f 84//65 82//65 81//65
f 85//66 83//66 82//66
f 91//67 85//67 84//67
f 78//68 86//68 79//68
f 80//69 83//69 78//69
f 86//70 88//70 87//70
f 83//71 90//71 86//71
f 92//72 90//72 85//72
f 93//73 92//73 91//73
f 160//74 94//74 93//74
f 88//75 95//75 89//75
f 97//76 95//76 90//76
f 94//77 97//77 92//77
f 95//78 98//78 96//78
f 100//79 98//79 97//79
f 102//80 100//80 94//80
f 160//81 101//81 94//81
f 98//82 103//82 99//82
f 105//83 103//83 100//83
f 107//84 105//84 102//84
f 101//85 106//85 102//85
f 103//86 108//86 104//86
f 110//87 108//87 105//87
f 111//88 110//88 107//88
f 161//89 111//89 106//89
f 108//90 112//90 109//90
f 110//91 114//91 108//91
f 116//92 114//92 111//92
f 161//93 115//93 111//93
f 114//94 117//94 112//94
f 120//95 117//95 116//95
f 115//96 119//96 116//96
f 112//165 118//165 113//165
f 118//166 122//166 121//166
f 117//99 124//99 118//99
f 126//100 124//100 120//100
f 119//101 125//101 120//101
f 124//102 127//102 122//102
f 130//103 127//103 126//103
f 125//104 129//104 126//104
f 122//105 128//105 123//105
f 128//106 132//106 131//106
f 127//107 134//107 128//107
f 136//108 134//108 130//108
f 129//109 135//109 130//109
f 139//110 137//110 136//110
f 135//111 138//111 136//111
f 132//112 140//112 133//112
f 134//113 137//113 132//113
f 140//114 142//114 141//114
f 145//115 142//115 137//115
f 139//116 144//116 137//116
f 138//117 146//117 139//117
f 146//118 147//118 144//118
f 142//119 149//119 143//119
f 145//120 151//120 142//120
f 148//121 151//121 144//121
f 149//122 152//122 150//122
f 154//123 152//123 151//123
f 156//124 154//124 148//124
f 147//125 155//125 148//125
f 155//157 158//157 156//157
f 152//159 4//159 153//159
f 154//160 7//160 152//160
f 156//161 1//161 154//161
