# Blender v2.76 (sub 0) OBJ File: ''
# www.blender.org
mtllib realPlaneVisu.mtl
o Plane.000
v 10.000000 -0.799000 10.000000
v 10.000000 -0.799000 -10.000000
v -10.000000 -0.799000 -10.000000
v -10.000000 -0.799000 10.000000
v 10.000000 -0.809000 10.000000
v 10.000000 -0.809000 -10.000000
v -10.000000 -0.809000 -10.000000
v -10.000000 -0.809000 10.000000
vn 0.000000 1.000000 0.000000
vn 0.000000 -1.000000 -0.000000
vn 0.707100 0.000000 0.707100
vn -0.707100 0.000000 0.707100
vn -0.707100 0.000000 -0.707100
vn 0.707100 0.000000 -0.707100
usemtl None
s 1
f 1//1 2//1 3//1
f 4//1 1//1 3//1
f 7//2 6//2 5//2
f 7//2 5//2 8//2
f 1//3 4//4 8//4 5//3
f 4//4 3//5 7//5 8//4
f 3//5 2//6 6//6 7//5
f 2//6 1//3 5//3 6//6
