solid ascii
 facet normal 0 -1 0
  outer loop
   vertex 0 0 0
   vertex 0.01 0 0
   vertex 0 0 0.0065
  endloop
 endfacet
 facet normal -1 0 0
  outer loop
   vertex 0 0 0
   vertex 0 0 0.0065
   vertex 0 0.00958333 0
  endloop
 endfacet
 facet normal 0 -0 -1
  outer loop
   vertex 0 0 0
   vertex 0.00599492 0.00582984 0
   vertex 0.01 0 0
  endloop
 endfacet
 facet normal 0 0 -1
  outer loop
   vertex 0 0 0
   vertex 0 0.00958333 0
   vertex 0.00599492 0.00582984 0
  endloop
 endfacet
 facet normal 0 -1 -0
  outer loop
   vertex 0.06 0 0
   vertex 0.06 0 0.0065
   vertex 0.05 0 0
  endloop
 endfacet
 facet normal 1 0 0
  outer loop
   vertex 0.06 0 0
   vertex 0.06 0.00958333 0
   vertex 0.06 0 0.0065
  endloop
 endfacet
 facet normal 0 0 -1
  outer loop
   vertex 0.06 0 0
   vertex 0.05 0 0
   vertex 0.0540051 0.00582984 0
  endloop
 endfacet
 facet normal 0 0 -1
  outer loop
   vertex 0.06 0 0
   vertex 0.0540051 0.00582984 0
   vertex 0.06 0.00958333 0
  endloop
 endfacet
 facet normal 0 1 0
  outer loop
   vertex 0.06 0.115 0
   vertex 0.05 0.115 0
   vertex 0.06 0.115 0.0065
  endloop
 endfacet
 facet normal 1 0 0
  outer loop
   vertex 0.06 0.115 0
   vertex 0.06 0.115 0.0065
   vertex 0.06 0.105417 0
  endloop
 endfacet
 facet normal 0 0 -1
  outer loop
   vertex 0.06 0.115 0
   vertex 0.0528937 0.10802 0
   vertex 0.05 0.115 0
  endloop
 endfacet
 facet normal 0 0 -1
  outer loop
   vertex 0.06 0.115 0
   vertex 0.06 0.105417 0
   vertex 0.0528937 0.10802 0
  endloop
 endfacet
 facet normal 0 1 0
  outer loop
   vertex 0 0.115 0
   vertex 0 0.115 0.0065
   vertex 0.01 0.115 0
  endloop
 endfacet
 facet normal -1 0 0
  outer loop
   vertex 0 0.115 0
   vertex 0 0.105417 0
   vertex 0 0.115 0.0065
  endloop
 endfacet
 facet normal -0 0 -1
  outer loop
   vertex 0 0.115 0
   vertex 0.01 0.115 0
   vertex 0.00599492 0.10917 0
  endloop
 endfacet
 facet normal -0 0 -1
  outer loop
   vertex 0 0.115 0
   vertex 0.00599492 0.10917 0
   vertex 0 0.105417 0
  endloop
 endfacet
 facet normal 0 1 -0
  outer loop
   vertex 0.06 0.115 0.013
   vertex 0.06 0.115 0.0065
   vertex 0.05 0.115 0.013
  endloop
 endfacet
 facet normal 1 -0 0
  outer loop
   vertex 0.06 0.115 0.013
   vertex 0.06 0.105417 0.013
   vertex 0.06 0.115 0.0065
  endloop
 endfacet
 facet normal -0 0 1
  outer loop
   vertex 0.06 0.115 0.013
   vertex 0.0528937 0.10802 0.013
   vertex 0.06 0.105417 0.013
  endloop
 endfacet
 facet normal -0 0 1
  outer loop
   vertex 0.06 0.115 0.013
   vertex 0.05 0.115 0.013
   vertex 0.0528937 0.10802 0.013
  endloop
 endfacet
 facet normal 0 -1 0
  outer loop
   vertex 0.06 0 0.013
   vertex 0.05 0 0.013
   vertex 0.06 0 0.0065
  endloop
 endfacet
 facet normal 1 0 0
  outer loop
   vertex 0.06 0 0.013
   vertex 0.06 0 0.0065
   vertex 0.06 0.00958333 0.013
  endloop
 endfacet
 facet normal 0 0 1
  outer loop
   vertex 0.06 0 0.013
   vertex 0.0540051 0.00582984 0.013
   vertex 0.05 0 0.013
  endloop
 endfacet
 facet normal 0 0 1
  outer loop
   vertex 0.06 0 0.013
   vertex 0.06 0.00958333 0.013
   vertex 0.0540051 0.00582984 0.013
  endloop
 endfacet
 facet normal 0 -1 0
  outer loop
   vertex 0 0 0.013
   vertex 0 0 0.0065
   vertex 0.01 0 0.013
  endloop
 endfacet
 facet normal -1 -0 0
  outer loop
   vertex 0 0 0.013
   vertex 0 0.00958333 0.013
   vertex 0 0 0.0065
  endloop
 endfacet
 facet normal 0 0 1
  outer loop
   vertex 0 0 0.013
   vertex 0.01 0 0.013
   vertex 0.00599492 0.00582984 0.013
  endloop
 endfacet
 facet normal 0 0 1
  outer loop
   vertex 0 0 0.013
   vertex 0.00599492 0.00582984 0.013
   vertex 0 0.00958333 0.013
  endloop
 endfacet
 facet normal 0 1 0
  outer loop
   vertex 0 0.115 0.013
   vertex 0.01 0.115 0.013
   vertex 0 0.115 0.0065
  endloop
 endfacet
 facet normal -1 0 0
  outer loop
   vertex 0 0.115 0.013
   vertex 0 0.115 0.0065
   vertex 0 0.105417 0.013
  endloop
 endfacet
 facet normal 0 -0 1
  outer loop
   vertex 0 0.115 0.013
   vertex 0.00599492 0.10917 0.013
   vertex 0.01 0.115 0.013
  endloop
 endfacet
 facet normal 0 0 1
  outer loop
   vertex 0 0.115 0.013
   vertex 0 0.105417 0.013
   vertex 0.00599492 0.10917 0.013
  endloop
 endfacet
 facet normal -0 1 0
  outer loop
   vertex 0.01 0.115 0
   vertex 0 0.115 0.0065
   vertex 0.01 0.115 0.013
  endloop
 endfacet
 facet normal 0 1 0
  outer loop
   vertex 0.01 0.115 0
   vertex 0.01 0.115 0.013
   vertex 0.0170667 0.115 0.0065
  endloop
 endfacet
 facet normal 0 1 0
  outer loop
   vertex 0.01 0.115 0
   vertex 0.0170667 0.115 0.0065
   vertex 0.02 0.115 0
  endloop
 endfacet
 facet normal -0 0 -1
  outer loop
   vertex 0.01 0.115 0
   vertex 0.02 0.115 0
   vertex 0.0152759 0.109672 0
  endloop
 endfacet
 facet normal -0 0 -1
  outer loop
   vertex 0.01 0.115 0
   vertex 0.0152759 0.109672 0
   vertex 0.00599492 0.10917 0
  endloop
 endfacet
 facet normal 0 0 -1
  outer loop
   vertex 0.02 0.115 0
   vertex 0.0210835 0.105552 0
   vertex 0.0152759 0.109672 0
  endloop
 endfacet
 facet normal -0 0 -1
  outer loop
   vertex 0.02 0.115 0
   vertex 0.03 0.115 0
   vertex 0.0210835 0.105552 0
  endloop
 endfacet
 facet normal -0 1 0
  outer loop
   vertex 0.02 0.115 0
   vertex 0.0170667 0.115 0.0065
   vertex 0.0253333 0.115 0.0065
  endloop
 endfacet
 facet normal 0 1 0
  outer loop
   vertex 0.02 0.115 0
   vertex 0.0253333 0.115 0.0065
   vertex 0.03 0.115 0
  endloop
 endfacet
 facet normal 0 0 -1
  outer loop
   vertex 0.03 0.115 0
   vertex 0.03 0.102245 0
   vertex 0.0210835 0.105552 0
  endloop
 endfacet
 facet normal -0 0 -1
  outer loop
   vertex 0.03 0.115 0
   vertex 0.04 0.115 0
   vertex 0.0387696 0.105457 0
  endloop
 endfacet
 facet normal -0 1 0
  outer loop
   vertex 0.03 0.115 0
   vertex 0.0253333 0.115 0.0065
   vertex 0.0347222 0.115 0.0065
  endloop
 endfacet
 facet normal -0 0 -1
  outer loop
   vertex 0.03 0.115 0
   vertex 0.0387696 0.105457 0
   vertex 0.03 0.102245 0
  endloop
 endfacet
 facet normal 0 1 0
  outer loop
   vertex 0.03 0.115 0
   vertex 0.0347222 0.115 0.0065
   vertex 0.04 0.115 0
  endloop
 endfacet
 facet normal -0 0 -1
  outer loop
   vertex 0.04 0.115 0
   vertex 0.05 0.115 0
   vertex 0.0450164 0.109543 0
  endloop
 endfacet
 facet normal -0 1 0
  outer loop
   vertex 0.04 0.115 0
   vertex 0.0347222 0.115 0.0065
   vertex 0.0429444 0.115 0.0065
  endloop
 endfacet
 facet normal -0 0 -1
  outer loop
   vertex 0.04 0.115 0
   vertex 0.0450164 0.109543 0
   vertex 0.0387696 0.105457 0
  endloop
 endfacet
 facet normal 0 1 0
  outer loop
   vertex 0.04 0.115 0
   vertex 0.0429444 0.115 0.0065
   vertex 0.05 0.115 0
  endloop
 endfacet
 facet normal 0 0 -1
  outer loop
   vertex 0.05 0.115 0
   vertex 0.0528937 0.10802 0
   vertex 0.0450164 0.109543 0
  endloop
 endfacet
 facet normal -0 1 0
  outer loop
   vertex 0.05 0.115 0
   vertex 0.0429444 0.115 0.0065
   vertex 0.05 0.115 0.013
  endloop
 endfacet
 facet normal 0 1 0
  outer loop
   vertex 0.05 0.115 0
   vertex 0.05 0.115 0.013
   vertex 0.06 0.115 0.0065
  endloop
 endfacet
 facet normal 0 0 -1
  outer loop
   vertex 0.06 0.105417 0
   vertex 0.06 0.0958333 0
   vertex 0.055067 0.100625 0
  endloop
 endfacet
 facet normal 1 0 0
  outer loop
   vertex 0.06 0.105417 0
   vertex 0.06 0.115 0.0065
   vertex 0.06 0.105417 0.013
  endloop
 endfacet
 facet normal 0 0 -1
  outer loop
   vertex 0.06 0.105417 0
   vertex 0.055067 0.100625 0
   vertex 0.0528937 0.10802 0
  endloop
 endfacet
 facet normal 1 0 0
  outer loop
   vertex 0.06 0.105417 0
   vertex 0.06 0.105417 0.013
   vertex 0.06 0.0987083 0.0065
  endloop
 endfacet
 facet normal 1 0 0
  outer loop
   vertex 0.06 0.105417 0
   vertex 0.06 0.0987083 0.0065
   vertex 0.06 0.0958333 0
  endloop
 endfacet
 facet normal 1 0 0
  outer loop
   vertex 0.06 0.0958333 0
   vertex 0.06 0.0910417 0.0065
   vertex 0.06 0.08625 0
  endloop
 endfacet
 facet normal 1 0 0
  outer loop
   vertex 0.06 0.0958333 0
   vertex 0.06 0.0987083 0.0065
   vertex 0.06 0.0910417 0.0065
  endloop
 endfacet
 facet normal 0 0 -1
  outer loop
   vertex 0.06 0.0958333 0
   vertex 0.0520594 0.0926135 0
   vertex 0.055067 0.100625 0
  endloop
 endfacet
 facet normal 0 0 -1
  outer loop
   vertex 0.06 0.0958333 0
   vertex 0.06 0.08625 0
   vertex 0.0520594 0.0926135 0
  endloop
 endfacet
 facet normal 0 0 -1
  outer loop
   vertex 0.06 0.08625 0
   vertex 0.0538025 0.0832557 0
   vertex 0.0520594 0.0926135 0
  endloop
 endfacet
 facet normal 0 0 -1
  outer loop
   vertex 0.06 0.08625 0
   vertex 0.06 0.0766667 0
   vertex 0.0538025 0.0832557 0
  endloop
 endfacet
 facet normal 1 0 0
  outer loop
   vertex 0.06 0.08625 0
   vertex 0.06 0.0814583 0.0065
   vertex 0.06 0.0766667 0
  endloop
 endfacet
 facet normal 1 0 0
  outer loop
   vertex 0.06 0.08625 0
   vertex 0.06 0.0910417 0.0065
   vertex 0.06 0.0814583 0.0065
  endloop
 endfacet
 facet normal 1 0 0
  outer loop
   vertex 0.06 0.0766667 0
   vertex 0.06 0.0814583 0.0065
   vertex 0.06 0.071875 0.0065
  endloop
 endfacet
 facet normal 0 0 -1
  outer loop
   vertex 0.06 0.0766667 0
   vertex 0.0539398 0.0704919 0
   vertex 0.0514099 0.0771898 0
  endloop
 endfacet
 facet normal 0 0 -1
  outer loop
   vertex 0.06 0.0766667 0
   vertex 0.0514099 0.0771898 0
   vertex 0.0538025 0.0832557 0
  endloop
 endfacet
 facet normal 0 0 -1
  outer loop
   vertex 0.06 0.0766667 0
   vertex 0.06 0.0670833 0
   vertex 0.0539398 0.0704919 0
  endloop
 endfacet
 facet normal 1 0 0
  outer loop
   vertex 0.06 0.0766667 0
   vertex 0.06 0.071875 0.0065
   vertex 0.06 0.0670833 0
  endloop
 endfacet
 facet normal 1 0 0
  outer loop
   vertex 0.06 0.0670833 0
   vertex 0.06 0.0622917 0.0065
   vertex 0.06 0.0575 0
  endloop
 endfacet
 facet normal 0 0 -1
  outer loop
   vertex 0.06 0.0670833 0
   vertex 0.06 0.0575 0
   vertex 0.051401 0.0626069 0
  endloop
 endfacet
 facet normal 0 0 -1
  outer loop
   vertex 0.06 0.0670833 0
   vertex 0.051401 0.0626069 0
   vertex 0.0539398 0.0704919 0
  endloop
 endfacet
 facet normal 1 0 0
  outer loop
   vertex 0.06 0.0670833 0
   vertex 0.06 0.071875 0.0065
   vertex 0.06 0.0622917 0.0065
  endloop
 endfacet
 facet normal 0 0 -1
  outer loop
   vertex 0.06 0.0575 0
   vertex 0.0539553 0.0536193 0
   vertex 0.051401 0.0626069 0
  endloop
 endfacet
 facet normal 1 0 0
  outer loop
   vertex 0.06 0.0575 0
   vertex 0.06 0.0622917 0.0065
   vertex 0.06 0.0527083 0.0065
  endloop
 endfacet
 facet normal 0 0 -1
  outer loop
   vertex 0.06 0.0575 0
   vertex 0.06 0.0479167 0
   vertex 0.0539553 0.0536193 0
  endloop
 endfacet
 facet normal 1 0 0
  outer loop
   vertex 0.06 0.0575 0
   vertex 0.06 0.0527083 0.0065
   vertex 0.06 0.0479167 0
  endloop
 endfacet
 facet normal 1 0 0
  outer loop
   vertex 0.06 0.0479167 0
   vertex 0.06 0.0527083 0.0065
   vertex 0.06 0.043125 0.0065
  endloop
 endfacet
 facet normal 0 0 -1
  outer loop
   vertex 0.06 0.0479167 0
   vertex 0.0525577 0.0458285 0
   vertex 0.0539553 0.0536193 0
  endloop
 endfacet
 facet normal 0 0 -1
  outer loop
   vertex 0.06 0.0479167 0
   vertex 0.06 0.0383333 0
   vertex 0.0525577 0.0458285 0
  endloop
 endfacet
 facet normal 1 0 0
  outer loop
   vertex 0.06 0.0479167 0
   vertex 0.06 0.043125 0.0065
   vertex 0.06 0.0383333 0
  endloop
 endfacet
 facet normal 1 0 0
  outer loop
   vertex 0.06 0.0383333 0
   vertex 0.06 0.043125 0.0065
   vertex 0.06 0.0335417 0.0065
  endloop
 endfacet
 facet normal 0 0 -1
  outer loop
   vertex 0.06 0.0383333 0
   vertex 0.0536777 0.0316877 0
   vertex 0.0512017 0.0381169 0
  endloop
 endfacet
 facet normal 0 0 -1
  outer loop
   vertex 0.06 0.0383333 0
   vertex 0.06 0.02875 0
   vertex 0.0536777 0.0316877 0
  endloop
 endfacet
 facet normal 0 0 -1
  outer loop
   vertex 0.06 0.0383333 0
   vertex 0.0512017 0.0381169 0
   vertex 0.0525577 0.0458285 0
  endloop
 endfacet
 facet normal 1 0 0
  outer loop
   vertex 0.06 0.0383333 0
   vertex 0.06 0.0335417 0.0065
   vertex 0.06 0.02875 0
  endloop
 endfacet
 facet normal 0 0 -1
  outer loop
   vertex 0.06 0.02875 0
   vertex 0.06 0.0191667 0
   vertex 0.050387 0.0226346 0
  endloop
 endfacet
 facet normal 1 0 0
  outer loop
   vertex 0.06 0.02875 0
   vertex 0.06 0.0238252 0.00631944
   vertex 0.06 0.0191667 0
  endloop
 endfacet
 facet normal 1 0 0
  outer loop
   vertex 0.06 0.02875 0
   vertex 0.06 0.0335417 0.0065
   vertex 0.06 0.0238252 0.00631944
  endloop
 endfacet
 facet normal 0 0 -1
  outer loop
   vertex 0.06 0.02875 0
   vertex 0.050387 0.0226346 0
   vertex 0.0536777 0.0316877 0
  endloop
 endfacet
 facet normal 0 0 -1
  outer loop
   vertex 0.06 0.0191667 0
   vertex 0.06 0.00958333 0
   vertex 0.0549033 0.0142336 0
  endloop
 endfacet
 facet normal 1 0 0
  outer loop
   vertex 0.06 0.0191667 0
   vertex 0.06 0.0238252 0.00631944
   vertex 0.06 0.0135542 0.00538657
  endloop
 endfacet
 facet normal 1 0 0
  outer loop
   vertex 0.06 0.0191667 0
   vertex 0.06 0.0135542 0.00538657
   vertex 0.06 0.00958333 0
  endloop
 endfacet
 facet normal 0 0 -1
  outer loop
   vertex 0.06 0.0191667 0
   vertex 0.0549033 0.0142336 0
   vertex 0.050387 0.0226346 0
  endloop
 endfacet
 facet normal 1 0 0
  outer loop
   vertex 0.06 0.00958333 0
   vertex 0.06 0.00958333 0.013
   vertex 0.06 0 0.0065
  endloop
 endfacet
 facet normal 0 0 -1
  outer loop
   vertex 0.06 0.00958333 0
   vertex 0.0540051 0.00582984 0
   vertex 0.0549033 0.0142336 0
  endloop
 endfacet
 facet normal 1 0 0
  outer loop
   vertex 0.06 0.00958333 0
   vertex 0.06 0.0135542 0.00538657
   vertex 0.06 0.00958333 0.013
  endloop
 endfacet
 facet normal 0 -1 -0
  outer loop
   vertex 0.05 0 0
   vertex 0.05 0 0.013
   vertex 0.0458565 0 0.00538657
  endloop
 endfacet
 facet normal 0 0 -1
  outer loop
   vertex 0.05 0 0
   vertex 0.04 0 0
   vertex 0.0450917 0.00533007 0
  endloop
 endfacet
 facet normal -0 -1 0
  outer loop
   vertex 0.05 0 0
   vertex 0.06 0 0.0065
   vertex 0.05 0 0.013
  endloop
 endfacet
 facet normal 0 0 -1
  outer loop
   vertex 0.05 0 0
   vertex 0.0450917 0.00533007 0
   vertex 0.0540051 0.00582984 0
  endloop
 endfacet
 facet normal 0 -1 -0
  outer loop
   vertex 0.05 0 0
   vertex 0.0458565 0 0.00538657
   vertex 0.04 0 0
  endloop
 endfacet
 facet normal -0 -1 0
  outer loop
   vertex 0.04 0 0
   vertex 0.0458565 0 0.00538657
   vertex 0.0351389 0 0.00631944
  endloop
 endfacet
 facet normal 0 0 -1
  outer loop
   vertex 0.04 0 0
   vertex 0.0388776 0.00890704 0
   vertex 0.0450917 0.00533007 0
  endloop
 endfacet
 facet normal 0 0 -1
  outer loop
   vertex 0.04 0 0
   vertex 0.03 0 0
   vertex 0.0388776 0.00890704 0
  endloop
 endfacet
 facet normal 0 -1 -0
  outer loop
   vertex 0.04 0 0
   vertex 0.0351389 0 0.00631944
   vertex 0.03 0 0
  endloop
 endfacet
 facet normal -0 -1 0
  outer loop
   vertex 0.03 0 0
   vertex 0.0351389 0 0.00631944
   vertex 0.0253565 0 0.00646991
  endloop
 endfacet
 facet normal 0 0 -1
  outer loop
   vertex 0.03 0 0
   vertex 0.03 0.0127546 0
   vertex 0.0388776 0.00890704 0
  endloop
 endfacet
 facet normal 0 0 -1
  outer loop
   vertex 0.03 0 0
   vertex 0.0212858 0.00943211 0
   vertex 0.03 0.0127546 0
  endloop
 endfacet
 facet normal 0 0 -1
  outer loop
   vertex 0.03 0 0
   vertex 0.02 0 0
   vertex 0.0212858 0.00943211 0
  endloop
 endfacet
 facet normal 0 -1 -0
  outer loop
   vertex 0.03 0 0
   vertex 0.0253565 0 0.00646991
   vertex 0.02 0 0
  endloop
 endfacet
 facet normal -0 -1 0
  outer loop
   vertex 0.02 0 0
   vertex 0.0253565 0 0.00646991
   vertex 0.0170713 0 0.00649398
  endloop
 endfacet
 facet normal 0 0 -1
  outer loop
   vertex 0.02 0 0
   vertex 0.0152759 0.00532787 0
   vertex 0.0212858 0.00943211 0
  endloop
 endfacet
 facet normal 0 0 -1
  outer loop
   vertex 0.02 0 0
   vertex 0.01 0 0
   vertex 0.0152759 0.00532787 0
  endloop
 endfacet
 facet normal 0 -1 -0
  outer loop
   vertex 0.02 0 0
   vertex 0.0170713 0 0.00649398
   vertex 0.01 0 0
  endloop
 endfacet
 facet normal 0 0 -1
  outer loop
   vertex 0.01 0 0
   vertex 0.00599492 0.00582984 0
   vertex 0.0152759 0.00532787 0
  endloop
 endfacet
 facet normal -0 -1 0
  outer loop
   vertex 0.01 0 0
   vertex 0.0170713 0 0.00649398
   vertex 0.01 0 0.013
  endloop
 endfacet
 facet normal 0 -1 -0
  outer loop
   vertex 0.01 0 0
   vertex 0.01 0 0.013
   vertex 0 0 0.0065
  endloop
 endfacet
 facet normal 0 0 -1
  outer loop
   vertex 0 0.00958333 0
   vertex 0.0108888 0.0109365 0
   vertex 0.00599492 0.00582984 0
  endloop
 endfacet
 facet normal 0 -0 -1
  outer loop
   vertex 0 0.00958333 0
   vertex 0.00710193 0.0172445 0
   vertex 0.0108888 0.0109365 0
  endloop
 endfacet
 facet normal -1 0 0
  outer loop
   vertex 0 0.00958333 0
   vertex 0 0 0.0065
   vertex 0 0.00958333 0.013
  endloop
 endfacet
 facet normal 0 0 -1
  outer loop
   vertex 0 0.00958333 0
   vertex 0 0.0191667 0
   vertex 0.00710193 0.0172445 0
  endloop
 endfacet
 facet normal -1 0 0
  outer loop
   vertex 0 0.00958333 0
   vertex 0 0.00958333 0.013
   vertex 0 0.0162917 0.0065
  endloop
 endfacet
 facet normal -1 0 -0
  outer loop
   vertex 0 0.00958333 0
   vertex 0 0.0162917 0.0065
   vertex 0 0.0191667 0
  endloop
 endfacet
 facet normal -1 0 -0
  outer loop
   vertex 0 0.0191667 0
   vertex 0 0.0239583 0.0065
   vertex 0 0.02875 0
  endloop
 endfacet
 facet normal 0 0 -1
  outer loop
   vertex 0 0.0191667 0
   vertex 0.00959667 0.0241661 0
   vertex 0.00710193 0.0172445 0
  endloop
 endfacet
 facet normal 0 0 -1
  outer loop
   vertex 0 0.0191667 0
   vertex 0 0.02875 0
   vertex 0.00959667 0.0241661 0
  endloop
 endfacet
 facet normal -1 0 0
  outer loop
   vertex 0 0.0191667 0
   vertex 0 0.0162917 0.0065
   vertex 0 0.0239583 0.0065
  endloop
 endfacet
 facet normal 0 -0 -1
  outer loop
   vertex 0 0.02875 0
   vertex 0.00652329 0.0335417 0
   vertex 0.00959667 0.0241661 0
  endloop
 endfacet
 facet normal 0 0 -1
  outer loop
   vertex 0 0.02875 0
   vertex 0 0.0383333 0
   vertex 0.00652329 0.0335417 0
  endloop
 endfacet
 facet normal -1 0 -0
  outer loop
   vertex 0 0.02875 0
   vertex 0 0.0335417 0.0065
   vertex 0 0.0383333 0
  endloop
 endfacet
 facet normal -1 0 0
  outer loop
   vertex 0 0.02875 0
   vertex 0 0.0239583 0.0065
   vertex 0 0.0335417 0.0065
  endloop
 endfacet
 facet normal 0 0 -1
  outer loop
   vertex 0 0.0383333 0
   vertex 0.00965352 0.0420677 0
   vertex 0.00652329 0.0335417 0
  endloop
 endfacet
 facet normal 0 0 -1
  outer loop
   vertex 0 0.0383333 0
   vertex 0 0.0479167 0
   vertex 0.00965352 0.0420677 0
  endloop
 endfacet
 facet normal -1 0 0
  outer loop
   vertex 0 0.0383333 0
   vertex 0 0.0335417 0.0065
   vertex 0 0.043125 0.0065
  endloop
 endfacet
 facet normal -1 0 -0
  outer loop
   vertex 0 0.0383333 0
   vertex 0 0.043125 0.0065
   vertex 0 0.0479167 0
  endloop
 endfacet
 facet normal 0 -0 -1
  outer loop
   vertex 0 0.0479167 0
   vertex 0.00796169 0.0509978 0
   vertex 0.00965352 0.0420677 0
  endloop
 endfacet
 facet normal 0 0 -1
  outer loop
   vertex 0 0.0479167 0
   vertex 0 0.0575 0
   vertex 0.00796169 0.0509978 0
  endloop
 endfacet
 facet normal -1 0 0
  outer loop
   vertex 0 0.0479167 0
   vertex 0 0.043125 0.0065
   vertex 0 0.0527083 0.0065
  endloop
 endfacet
 facet normal -1 0 -0
  outer loop
   vertex 0 0.0479167 0
   vertex 0 0.0527083 0.0065
   vertex 0 0.0575 0
  endloop
 endfacet
 facet normal 0 -0 -1
  outer loop
   vertex 0 0.0575 0
   vertex 0.00769521 0.0647743 0
   vertex 0.0112009 0.0580634 0
  endloop
 endfacet
 facet normal -1 0 -0
  outer loop
   vertex 0 0.0575 0
   vertex 0 0.0622917 0.0065
   vertex 0 0.0670833 0
  endloop
 endfacet
 facet normal 0 0 -1
  outer loop
   vertex 0 0.0575 0
   vertex 0.0112009 0.0580634 0
   vertex 0.00796169 0.0509978 0
  endloop
 endfacet
 facet normal 0 0 -1
  outer loop
   vertex 0 0.0575 0
   vertex 0 0.0670833 0
   vertex 0.00769521 0.0647743 0
  endloop
 endfacet
 facet normal -1 0 0
  outer loop
   vertex 0 0.0575 0
   vertex 0 0.0527083 0.0065
   vertex 0 0.0622917 0.0065
  endloop
 endfacet
 facet normal 0 0 -1
  outer loop
   vertex 0 0.0670833 0
   vertex 0 0.0766667 0
   vertex 0.0100044 0.0732602 0
  endloop
 endfacet
 facet normal 0 0 -1
  outer loop
   vertex 0 0.0670833 0
   vertex 0.0100044 0.0732602 0
   vertex 0.00769521 0.0647743 0
  endloop
 endfacet
 facet normal -1 0 0
  outer loop
   vertex 0 0.0670833 0
   vertex 0 0.0622917 0.0065
   vertex 0 0.071875 0.0065
  endloop
 endfacet
 facet normal -1 0 -0
  outer loop
   vertex 0 0.0670833 0
   vertex 0 0.071875 0.0065
   vertex 0 0.0766667 0
  endloop
 endfacet
 facet normal 0 0 -1
  outer loop
   vertex 0 0.0766667 0
   vertex 0 0.08625 0
   vertex 0.00651926 0.0815465 0
  endloop
 endfacet
 facet normal -1 0 0
  outer loop
   vertex 0 0.0766667 0
   vertex 0 0.071875 0.0065
   vertex 0 0.0814583 0.0065
  endloop
 endfacet
 facet normal 0 -0 -1
  outer loop
   vertex 0 0.0766667 0
   vertex 0.00651926 0.0815465 0
   vertex 0.0100044 0.0732602 0
  endloop
 endfacet
 facet normal -1 0 -0
  outer loop
   vertex 0 0.0766667 0
   vertex 0 0.0814583 0.0065
   vertex 0 0.08625 0
  endloop
 endfacet
 facet normal -1 0 0
  outer loop
   vertex 0 0.08625 0
   vertex 0 0.0814583 0.0065
   vertex 0 0.0907222 0.0065
  endloop
 endfacet
 facet normal 0 0 -1
  outer loop
   vertex 0 0.08625 0
   vertex 0.00900721 0.0903881 0
   vertex 0.00651926 0.0815465 0
  endloop
 endfacet
 facet normal -1 0 -0
  outer loop
   vertex 0 0.08625 0
   vertex 0 0.0907222 0.0065
   vertex 0 0.0958333 0
  endloop
 endfacet
 facet normal 0 0 -1
  outer loop
   vertex 0 0.08625 0
   vertex 0 0.0958333 0
   vertex 0.00900721 0.0903881 0
  endloop
 endfacet
 facet normal 0 -0 -1
  outer loop
   vertex 0 0.0958333 0
   vertex 0.0069861 0.0979087 0
   vertex 0.00900721 0.0903881 0
  endloop
 endfacet
 facet normal 0 0 -1
  outer loop
   vertex 0 0.0958333 0
   vertex 0 0.105417 0
   vertex 0.0069861 0.0979087 0
  endloop
 endfacet
 facet normal -1 0 0
  outer loop
   vertex 0 0.0958333 0
   vertex 0 0.0907222 0.0065
   vertex 0 0.0986444 0.0065
  endloop
 endfacet
 facet normal -1 0 -0
  outer loop
   vertex 0 0.0958333 0
   vertex 0 0.0986444 0.0065
   vertex 0 0.105417 0
  endloop
 endfacet
 facet normal -0 0 -1
  outer loop
   vertex 0 0.105417 0
   vertex 0.0108888 0.104064 0
   vertex 0.0069861 0.0979087 0
  endloop
 endfacet
 facet normal -1 0 0
  outer loop
   vertex 0 0.105417 0
   vertex 0 0.0986444 0.0065
   vertex 0 0.105417 0.013
  endloop
 endfacet
 facet normal 0 -0 -1
  outer loop
   vertex 0 0.105417 0
   vertex 0.00599492 0.10917 0
   vertex 0.0108888 0.104064 0
  endloop
 endfacet
 facet normal -1 0 0
  outer loop
   vertex 0 0.105417 0
   vertex 0 0.105417 0.013
   vertex 0 0.115 0.0065
  endloop
 endfacet
 facet normal 1 -0 0
  outer loop
   vertex 0.06 0.105417 0.013
   vertex 0.06 0.0958333 0.013
   vertex 0.06 0.0987083 0.0065
  endloop
 endfacet
 facet normal -0 0 1
  outer loop
   vertex 0.06 0.105417 0.013
   vertex 0.055067 0.100625 0.013
   vertex 0.06 0.0958333 0.013
  endloop
 endfacet
 facet normal 0 0 1
  outer loop
   vertex 0.06 0.105417 0.013
   vertex 0.0528937 0.10802 0.013
   vertex 0.055067 0.100625 0.013
  endloop
 endfacet
 facet normal 1 0 0
  outer loop
   vertex 0.06 0.0958333 0.013
   vertex 0.06 0.0910417 0.0065
   vertex 0.06 0.0987083 0.0065
  endloop
 endfacet
 facet normal 1 -0 0
  outer loop
   vertex 0.06 0.0958333 0.013
   vertex 0.06 0.08625 0.013
   vertex 0.06 0.0910417 0.0065
  endloop
 endfacet
 facet normal 0 0 1
  outer loop
   vertex 0.06 0.0958333 0.013
   vertex 0.055067 0.100625 0.013
   vertex 0.0520594 0.0926135 0.013
  endloop
 endfacet
 facet normal -0 0 1
  outer loop
   vertex 0.06 0.0958333 0.013
   vertex 0.0520594 0.0926135 0.013
   vertex 0.06 0.08625 0.013
  endloop
 endfacet
 facet normal 1 -0 0
  outer loop
   vertex 0.06 0.08625 0.013
   vertex 0.06 0.0766667 0.013
   vertex 0.06 0.0814583 0.0065
  endloop
 endfacet
 facet normal -0 0 1
  outer loop
   vertex 0.06 0.08625 0.013
   vertex 0.0538025 0.0832557 0.013
   vertex 0.06 0.0766667 0.013
  endloop
 endfacet
 facet normal 1 0 0
  outer loop
   vertex 0.06 0.08625 0.013
   vertex 0.06 0.0814583 0.0065
   vertex 0.06 0.0910417 0.0065
  endloop
 endfacet
 facet normal 0 0 1
  outer loop
   vertex 0.06 0.08625 0.013
   vertex 0.0520594 0.0926135 0.013
   vertex 0.0538025 0.0832557 0.013
  endloop
 endfacet
 facet normal 1 0 0
  outer loop
   vertex 0.06 0.0766667 0.013
   vertex 0.06 0.071875 0.0065
   vertex 0.06 0.0814583 0.0065
  endloop
 endfacet
 facet normal 1 -0 0
  outer loop
   vertex 0.06 0.0766667 0.013
   vertex 0.06 0.0670833 0.013
   vertex 0.06 0.071875 0.0065
  endloop
 endfacet
 facet normal 0 0 1
  outer loop
   vertex 0.06 0.0766667 0.013
   vertex 0.0538025 0.0832557 0.013
   vertex 0.0514099 0.0771898 0.013
  endloop
 endfacet
 facet normal 0 0 1
  outer loop
   vertex 0.06 0.0766667 0.013
   vertex 0.0514099 0.0771898 0.013
   vertex 0.0539398 0.0704919 0.013
  endloop
 endfacet
 facet normal -0 0 1
  outer loop
   vertex 0.06 0.0766667 0.013
   vertex 0.0539398 0.0704919 0.013
   vertex 0.06 0.0670833 0.013
  endloop
 endfacet
 facet normal 1 -0 0
  outer loop
   vertex 0.06 0.0670833 0.013
   vertex 0.06 0.0575 0.013
   vertex 0.06 0.0622917 0.0065
  endloop
 endfacet
 facet normal 1 0 0
  outer loop
   vertex 0.06 0.0670833 0.013
   vertex 0.06 0.0622917 0.0065
   vertex 0.06 0.071875 0.0065
  endloop
 endfacet
 facet normal -0 0 1
  outer loop
   vertex 0.06 0.0670833 0.013
   vertex 0.051401 0.0626069 0.013
   vertex 0.06 0.0575 0.013
  endloop
 endfacet
 facet normal 0 0 1
  outer loop
   vertex 0.06 0.0670833 0.013
   vertex 0.0539398 0.0704919 0.013
   vertex 0.051401 0.0626069 0.013
  endloop
 endfacet
 facet normal 1 -0 0
  outer loop
   vertex 0.06 0.0575 0.013
   vertex 0.06 0.0479167 0.013
   vertex 0.06 0.0527083 0.0065
  endloop
 endfacet
 facet normal 1 0 0
  outer loop
   vertex 0.06 0.0575 0.013
   vertex 0.06 0.0527083 0.0065
   vertex 0.06 0.0622917 0.0065
  endloop
 endfacet
 facet normal -0 0 1
  outer loop
   vertex 0.06 0.0575 0.013
   vertex 0.0539553 0.0536193 0.013
   vertex 0.06 0.0479167 0.013
  endloop
 endfacet
 facet normal 0 0 1
  outer loop
   vertex 0.06 0.0575 0.013
   vertex 0.051401 0.0626069 0.013
   vertex 0.0539553 0.0536193 0.013
  endloop
 endfacet
 facet normal 1 -0 0
  outer loop
   vertex 0.06 0.0479167 0.013
   vertex 0.06 0.0383333 0.013
   vertex 0.06 0.043125 0.0065
  endloop
 endfacet
 facet normal 1 0 0
  outer loop
   vertex 0.06 0.0479167 0.013
   vertex 0.06 0.043125 0.0065
   vertex 0.06 0.0527083 0.0065
  endloop
 endfacet
 facet normal -0 0 1
  outer loop
   vertex 0.06 0.0479167 0.013
   vertex 0.0525577 0.0458285 0.013
   vertex 0.06 0.0383333 0.013
  endloop
 endfacet
 facet normal 0 0 1
  outer loop
   vertex 0.06 0.0479167 0.013
   vertex 0.0539553 0.0536193 0.013
   vertex 0.0525577 0.0458285 0.013
  endloop
 endfacet
 facet normal 1 -0 0
  outer loop
   vertex 0.06 0.0383333 0.013
   vertex 0.06 0.02875 0.013
   vertex 0.06 0.0335417 0.0065
  endloop
 endfacet
 facet normal -0 0 1
  outer loop
   vertex 0.06 0.0383333 0.013
   vertex 0.0512017 0.0381169 0.013
   vertex 0.0536777 0.0316877 0.013
  endloop
 endfacet
 facet normal -0 0 1
  outer loop
   vertex 0.06 0.0383333 0.013
   vertex 0.0536777 0.0316877 0.013
   vertex 0.06 0.02875 0.013
  endloop
 endfacet
 facet normal 0 0 1
  outer loop
   vertex 0.06 0.0383333 0.013
   vertex 0.0525577 0.0458285 0.013
   vertex 0.0512017 0.0381169 0.013
  endloop
 endfacet
 facet normal 1 0 0
  outer loop
   vertex 0.06 0.0383333 0.013
   vertex 0.06 0.0335417 0.0065
   vertex 0.06 0.043125 0.0065
  endloop
 endfacet
 facet normal 0 0 1
  outer loop
   vertex 0.06 0.02875 0.013
   vertex 0.0536777 0.0316877 0.013
   vertex 0.050387 0.0226346 0.013
  endloop
 endfacet
 facet normal 1 -0 0
  outer loop
   vertex 0.06 0.02875 0.013
   vertex 0.06 0.0191667 0.013
   vertex 0.06 0.0238252 0.00631944
  endloop
 endfacet
 facet normal -0 0 1
  outer loop
   vertex 0.06 0.02875 0.013
   vertex 0.050387 0.0226346 0.013
   vertex 0.06 0.0191667 0.013
  endloop
 endfacet
 facet normal 1 0 0
  outer loop
   vertex 0.06 0.02875 0.013
   vertex 0.06 0.0238252 0.00631944
   vertex 0.06 0.0335417 0.0065
  endloop
 endfacet
 facet normal 1 0 0
  outer loop
   vertex 0.06 0.0191667 0.013
   vertex 0.06 0.0135542 0.00538657
   vertex 0.06 0.0238252 0.00631944
  endloop
 endfacet
 facet normal 1 -0 0
  outer loop
   vertex 0.06 0.0191667 0.013
   vertex 0.06 0.00958333 0.013
   vertex 0.06 0.0135542 0.00538657
  endloop
 endfacet
 facet normal -0 0 1
  outer loop
   vertex 0.06 0.0191667 0.013
   vertex 0.0549033 0.0142336 0.013
   vertex 0.06 0.00958333 0.013
  endloop
 endfacet
 facet normal 0 0 1
  outer loop
   vertex 0.06 0.0191667 0.013
   vertex 0.050387 0.0226346 0.013
   vertex 0.0549033 0.0142336 0.013
  endloop
 endfacet
 facet normal 0 0 1
  outer loop
   vertex 0.06 0.00958333 0.013
   vertex 0.0549033 0.0142336 0.013
   vertex 0.0540051 0.00582984 0.013
  endloop
 endfacet
 facet normal 0 -1 0
  outer loop
   vertex 0.05 0 0.013
   vertex 0.04 0 0.013
   vertex 0.0458565 0 0.00538657
  endloop
 endfacet
 facet normal 0 0 1
  outer loop
   vertex 0.05 0 0.013
   vertex 0.0540051 0.00582984 0.013
   vertex 0.0450917 0.00533007 0.013
  endloop
 endfacet
 facet normal 0 0 1
  outer loop
   vertex 0.05 0 0.013
   vertex 0.0450917 0.00533007 0.013
   vertex 0.04 0 0.013
  endloop
 endfacet
 facet normal 0 -1 0
  outer loop
   vertex 0.04 0 0.013
   vertex 0.0351389 0 0.00631944
   vertex 0.0458565 0 0.00538657
  endloop
 endfacet
 facet normal 0 -1 0
  outer loop
   vertex 0.04 0 0.013
   vertex 0.03 0 0.013
   vertex 0.0351389 0 0.00631944
  endloop
 endfacet
 facet normal 0 0 1
  outer loop
   vertex 0.04 0 0.013
   vertex 0.0450917 0.00533007 0.013
   vertex 0.0388776 0.00890704 0.013
  endloop
 endfacet
 facet normal 0 0 1
  outer loop
   vertex 0.04 0 0.013
   vertex 0.0388776 0.00890704 0.013
   vertex 0.03 0 0.013
  endloop
 endfacet
 facet normal 0 -1 0
  outer loop
   vertex 0.03 0 0.013
   vertex 0.0253565 0 0.00646991
   vertex 0.0351389 0 0.00631944
  endloop
 endfacet
 facet normal 0 -1 0
  outer loop
   vertex 0.03 0 0.013
   vertex 0.02 0 0.013
   vertex 0.0253565 0 0.00646991
  endloop
 endfacet
 facet normal 0 0 1
  outer loop
   vertex 0.03 0 0.013
   vertex 0.03 0.0127546 0.013
   vertex 0.0212858 0.00943211 0.013
  endloop
 endfacet
 facet normal 0 0 1
  outer loop
   vertex 0.03 0 0.013
   vertex 0.0212858 0.00943211 0.013
   vertex 0.02 0 0.013
  endloop
 endfacet
 facet normal 0 0 1
  outer loop
   vertex 0.03 0 0.013
   vertex 0.0388776 0.00890704 0.013
   vertex 0.03 0.0127546 0.013
  endloop
 endfacet
 facet normal 0 0 1
  outer loop
   vertex 0.02 0 0.013
   vertex 0.0152759 0.00532787 0.013
   vertex 0.01 0 0.013
  endloop
 endfacet
 facet normal 0 0 1
  outer loop
   vertex 0.02 0 0.013
   vertex 0.0212858 0.00943211 0.013
   vertex 0.0152759 0.00532787 0.013
  endloop
 endfacet
 facet normal 0 -1 0
  outer loop
   vertex 0.02 0 0.013
   vertex 0.0170713 0 0.00649398
   vertex 0.0253565 0 0.00646991
  endloop
 endfacet
 facet normal 0 -1 0
  outer loop
   vertex 0.02 0 0.013
   vertex 0.01 0 0.013
   vertex 0.0170713 0 0.00649398
  endloop
 endfacet
 facet normal 0 0 1
  outer loop
   vertex 0.01 0 0.013
   vertex 0.0152759 0.00532787 0.013
   vertex 0.00599492 0.00582984 0.013
  endloop
 endfacet
 facet normal 0 0 1
  outer loop
   vertex 0 0.00958333 0.013
   vertex 0.00710193 0.0172445 0.013
   vertex 0 0.0191667 0.013
  endloop
 endfacet
 facet normal -1 -0 0
  outer loop
   vertex 0 0.00958333 0.013
   vertex 0 0.0191667 0.013
   vertex 0 0.0162917 0.0065
  endloop
 endfacet
 facet normal 0 -0 1
  outer loop
   vertex 0 0.00958333 0.013
   vertex 0.00599492 0.00582984 0.013
   vertex 0.0108888 0.0109365 0.013
  endloop
 endfacet
 facet normal 0 0 1
  outer loop
   vertex 0 0.00958333 0.013
   vertex 0.0108888 0.0109365 0.013
   vertex 0.00710193 0.0172445 0.013
  endloop
 endfacet
 facet normal -1 0 0
  outer loop
   vertex 0 0.0191667 0.013
   vertex 0 0.0239583 0.0065
   vertex 0 0.0162917 0.0065
  endloop
 endfacet
 facet normal -1 -0 0
  outer loop
   vertex 0 0.0191667 0.013
   vertex 0 0.02875 0.013
   vertex 0 0.0239583 0.0065
  endloop
 endfacet
 facet normal 0 0 1
  outer loop
   vertex 0 0.0191667 0.013
   vertex 0.00959667 0.0241661 0.013
   vertex 0 0.02875 0.013
  endloop
 endfacet
 facet normal 0 -0 1
  outer loop
   vertex 0 0.0191667 0.013
   vertex 0.00710193 0.0172445 0.013
   vertex 0.00959667 0.0241661 0.013
  endloop
 endfacet
 facet normal -1 0 0
  outer loop
   vertex 0 0.02875 0.013
   vertex 0 0.0335417 0.0065
   vertex 0 0.0239583 0.0065
  endloop
 endfacet
 facet normal 0 0 1
  outer loop
   vertex 0 0.02875 0.013
   vertex 0.00959667 0.0241661 0.013
   vertex 0.00652329 0.0335417 0.013
  endloop
 endfacet
 facet normal -1 -0 0
  outer loop
   vertex 0 0.02875 0.013
   vertex 0 0.0383333 0.013
   vertex 0 0.0335417 0.0065
  endloop
 endfacet
 facet normal 0 0 1
  outer loop
   vertex 0 0.02875 0.013
   vertex 0.00652329 0.0335417 0.013
   vertex 0 0.0383333 0.013
  endloop
 endfacet
 facet normal 0 -0 1
  outer loop
   vertex 0 0.0383333 0.013
   vertex 0.00652329 0.0335417 0.013
   vertex 0.00965352 0.0420677 0.013
  endloop
 endfacet
 facet normal 0 0 1
  outer loop
   vertex 0 0.0383333 0.013
   vertex 0.00965352 0.0420677 0.013
   vertex 0 0.0479167 0.013
  endloop
 endfacet
 facet normal -1 0 0
  outer loop
   vertex 0 0.0383333 0.013
   vertex 0 0.043125 0.0065
   vertex 0 0.0335417 0.0065
  endloop
 endfacet
 facet normal -1 -0 0
  outer loop
   vertex 0 0.0383333 0.013
   vertex 0 0.0479167 0.013
   vertex 0 0.043125 0.0065
  endloop
 endfacet
 facet normal 0 0 1
  outer loop
   vertex 0 0.0479167 0.013
   vertex 0.00796169 0.0509978 0.013
   vertex 0 0.0575 0.013
  endloop
 endfacet
 facet normal 0 0 1
  outer loop
   vertex 0 0.0479167 0.013
   vertex 0.00965352 0.0420677 0.013
   vertex 0.00796169 0.0509978 0.013
  endloop
 endfacet
 facet normal -1 -0 0
  outer loop
   vertex 0 0.0479167 0.013
   vertex 0 0.0575 0.013
   vertex 0 0.0527083 0.0065
  endloop
 endfacet
 facet normal -1 0 0
  outer loop
   vertex 0 0.0479167 0.013
   vertex 0 0.0527083 0.0065
   vertex 0 0.043125 0.0065
  endloop
 endfacet
 facet normal -1 0 0
  outer loop
   vertex 0 0.0575 0.013
   vertex 0 0.0622917 0.0065
   vertex 0 0.0527083 0.0065
  endloop
 endfacet
 facet normal 0 -0 1
  outer loop
   vertex 0 0.0575 0.013
   vertex 0.00796169 0.0509978 0.013
   vertex 0.0112009 0.0580634 0.013
  endloop
 endfacet
 facet normal -1 -0 0
  outer loop
   vertex 0 0.0575 0.013
   vertex 0 0.0670833 0.013
   vertex 0 0.0622917 0.0065
  endloop
 endfacet
 facet normal 0 0 1
  outer loop
   vertex 0 0.0575 0.013
   vertex 0.00769521 0.0647743 0.013
   vertex 0 0.0670833 0.013
  endloop
 endfacet
 facet normal 0 0 1
  outer loop
   vertex 0 0.0575 0.013
   vertex 0.0112009 0.0580634 0.013
   vertex 0.00769521 0.0647743 0.013
  endloop
 endfacet
 facet normal 0 -0 1
  outer loop
   vertex 0 0.0670833 0.013
   vertex 0.00769521 0.0647743 0.013
   vertex 0.0100044 0.0732602 0.013
  endloop
 endfacet
 facet normal 0 0 1
  outer loop
   vertex 0 0.0670833 0.013
   vertex 0.0100044 0.0732602 0.013
   vertex 0 0.0766667 0.013
  endloop
 endfacet
 facet normal -1 -0 0
  outer loop
   vertex 0 0.0670833 0.013
   vertex 0 0.0766667 0.013
   vertex 0 0.071875 0.0065
  endloop
 endfacet
 facet normal -1 0 0
  outer loop
   vertex 0 0.0670833 0.013
   vertex 0 0.071875 0.0065
   vertex 0 0.0622917 0.0065
  endloop
 endfacet
 facet normal -1 0 0
  outer loop
   vertex 0 0.0766667 0.013
   vertex 0 0.0814583 0.0065
   vertex 0 0.071875 0.0065
  endloop
 endfacet
 facet normal 0 0 1
  outer loop
   vertex 0 0.0766667 0.013
   vertex 0.0100044 0.0732602 0.013
   vertex 0.00651926 0.0815465 0.013
  endloop
 endfacet
 facet normal -1 -0 0
  outer loop
   vertex 0 0.0766667 0.013
   vertex 0 0.08625 0.013
   vertex 0 0.0814583 0.0065
  endloop
 endfacet
 facet normal 0 0 1
  outer loop
   vertex 0 0.0766667 0.013
   vertex 0.00651926 0.0815465 0.013
   vertex 0 0.08625 0.013
  endloop
 endfacet
 facet normal 0 -0 1
  outer loop
   vertex 0 0.08625 0.013
   vertex 0.00651926 0.0815465 0.013
   vertex 0.00900721 0.0903881 0.013
  endloop
 endfacet
 facet normal 0 0 1
  outer loop
   vertex 0 0.08625 0.013
   vertex 0.00900721 0.0903881 0.013
   vertex 0 0.0958333 0.013
  endloop
 endfacet
 facet normal -1 -0 0
  outer loop
   vertex 0 0.08625 0.013
   vertex 0 0.0958333 0.013
   vertex 0 0.0907222 0.0065
  endloop
 endfacet
 facet normal -1 0 0
  outer loop
   vertex 0 0.08625 0.013
   vertex 0 0.0907222 0.0065
   vertex 0 0.0814583 0.0065
  endloop
 endfacet
 facet normal 0 0 1
  outer loop
   vertex 0 0.0958333 0.013
   vertex 0.00900721 0.0903881 0.013
   vertex 0.0069861 0.0979087 0.013
  endloop
 endfacet
 facet normal -1 0 0
  outer loop
   vertex 0 0.0958333 0.013
   vertex 0 0.0986444 0.0065
   vertex 0 0.0907222 0.0065
  endloop
 endfacet
 facet normal -1 -0 0
  outer loop
   vertex 0 0.0958333 0.013
   vertex 0 0.105417 0.013
   vertex 0 0.0986444 0.0065
  endloop
 endfacet
 facet normal 0 0 1
  outer loop
   vertex 0 0.0958333 0.013
   vertex 0.0069861 0.0979087 0.013
   vertex 0 0.105417 0.013
  endloop
 endfacet
 facet normal 0 0 1
  outer loop
   vertex 0 0.105417 0.013
   vertex 0.0108888 0.104064 0.013
   vertex 0.00599492 0.10917 0.013
  endloop
 endfacet
 facet normal 0 -0 1
  outer loop
   vertex 0 0.105417 0.013
   vertex 0.0069861 0.0979087 0.013
   vertex 0.0108888 0.104064 0.013
  endloop
 endfacet
 facet normal 0 1 0
  outer loop
   vertex 0.01 0.115 0.013
   vertex 0.02 0.115 0.013
   vertex 0.0170667 0.115 0.0065
  endloop
 endfacet
 facet normal 0 0 1
  outer loop
   vertex 0.01 0.115 0.013
   vertex 0.00599492 0.10917 0.013
   vertex 0.0152759 0.109672 0.013
  endloop
 endfacet
 facet normal 0 -0 1
  outer loop
   vertex 0.01 0.115 0.013
   vertex 0.0152759 0.109672 0.013
   vertex 0.02 0.115 0.013
  endloop
 endfacet
 facet normal 0 -0 1
  outer loop
   vertex 0.02 0.115 0.013
   vertex 0.0210835 0.105552 0.013
   vertex 0.03 0.115 0.013
  endloop
 endfacet
 facet normal -0 0 1
  outer loop
   vertex 0.02 0.115 0.013
   vertex 0.0152759 0.109672 0.013
   vertex 0.0210835 0.105552 0.013
  endloop
 endfacet
 facet normal 0 1 0
  outer loop
   vertex 0.02 0.115 0.013
   vertex 0.0253333 0.115 0.0065
   vertex 0.0170667 0.115 0.0065
  endloop
 endfacet
 facet normal 0 1 0
  outer loop
   vertex 0.02 0.115 0.013
   vertex 0.03 0.115 0.013
   vertex 0.0253333 0.115 0.0065
  endloop
 endfacet
 facet normal 0 1 0
  outer loop
   vertex 0.03 0.115 0.013
   vertex 0.04 0.115 0.013
   vertex 0.0347222 0.115 0.0065
  endloop
 endfacet
 facet normal 0 1 0
  outer loop
   vertex 0.03 0.115 0.013
   vertex 0.0347222 0.115 0.0065
   vertex 0.0253333 0.115 0.0065
  endloop
 endfacet
 facet normal 0 -0 1
  outer loop
   vertex 0.03 0.115 0.013
   vertex 0.0387696 0.105457 0.013
   vertex 0.04 0.115 0.013
  endloop
 endfacet
 facet normal 0 0 1
  outer loop
   vertex 0.03 0.115 0.013
   vertex 0.03 0.102245 0.013
   vertex 0.0387696 0.105457 0.013
  endloop
 endfacet
 facet normal -0 0 1
  outer loop
   vertex 0.03 0.115 0.013
   vertex 0.0210835 0.105552 0.013
   vertex 0.03 0.102245 0.013
  endloop
 endfacet
 facet normal 0 1 0
  outer loop
   vertex 0.04 0.115 0.013
   vertex 0.0429444 0.115 0.0065
   vertex 0.0347222 0.115 0.0065
  endloop
 endfacet
 facet normal 0 1 0
  outer loop
   vertex 0.04 0.115 0.013
   vertex 0.05 0.115 0.013
   vertex 0.0429444 0.115 0.0065
  endloop
 endfacet
 facet normal 0 -0 1
  outer loop
   vertex 0.04 0.115 0.013
   vertex 0.0450164 0.109543 0.013
   vertex 0.05 0.115 0.013
  endloop
 endfacet
 facet normal 0 0 1
  outer loop
   vertex 0.04 0.115 0.013
   vertex 0.0387696 0.105457 0.013
   vertex 0.0450164 0.109543 0.013
  endloop
 endfacet
 facet normal -0 0 1
  outer loop
   vertex 0.05 0.115 0.013
   vertex 0.0450164 0.109543 0.013
   vertex 0.0528937 0.10802 0.013
  endloop
 endfacet
 facet normal 0 0 -1
  outer loop
   vertex 0.0298983 0.081383 0
   vertex 0.0272493 0.0915164 0
   vertex 0.0366615 0.0877675 0
  endloop
 endfacet
 facet normal 0 0 -1
  outer loop
   vertex 0.0298983 0.081383 0
   vertex 0.0217954 0.084246 0
   vertex 0.0272493 0.0915164 0
  endloop
 endfacet
 facet normal 0 -0 -1
  outer loop
   vertex 0.0298983 0.081383 0
   vertex 0.0366615 0.0877675 0
   vertex 0.0379904 0.0783625 0
  endloop
 endfacet
 facet normal -0 0 -1
  outer loop
   vertex 0.0298983 0.081383 0
   vertex 0.0379904 0.0783625 0
   vertex 0.0298982 0.0711051 0
  endloop
 endfacet
 facet normal 0 0 -1
  outer loop
   vertex 0.0298983 0.081383 0
   vertex 0.0298982 0.0711051 0
   vertex 0.0209772 0.0763546 0
  endloop
 endfacet
 facet normal 0 0 -1
  outer loop
   vertex 0.0298983 0.081383 0
   vertex 0.0209772 0.0763546 0
   vertex 0.0217954 0.084246 0
  endloop
 endfacet
 facet normal 0 0 -1
  outer loop
   vertex 0.0317889 0.0342757 0
   vertex 0.0216589 0.0403306 0
   vertex 0.0309205 0.0459282 0
  endloop
 endfacet
 facet normal 0 0 -1
  outer loop
   vertex 0.0317889 0.0342757 0
   vertex 0.0223087 0.0276437 0
   vertex 0.0216589 0.0403306 0
  endloop
 endfacet
 facet normal 0 0 -1
  outer loop
   vertex 0.0317889 0.0342757 0
   vertex 0.0317725 0.0231481 0
   vertex 0.0223087 0.0276437 0
  endloop
 endfacet
 facet normal 0 0 -1
  outer loop
   vertex 0.0317889 0.0342757 0
   vertex 0.0416269 0.0357617 0
   vertex 0.0392928 0.026737 0
  endloop
 endfacet
 facet normal 0 0 -1
  outer loop
   vertex 0.0317889 0.0342757 0
   vertex 0.0309205 0.0459282 0
   vertex 0.0373506 0.0416465 0
  endloop
 endfacet
 facet normal 0 -0 -1
  outer loop
   vertex 0.0317889 0.0342757 0
   vertex 0.0373506 0.0416465 0
   vertex 0.0416269 0.0357617 0
  endloop
 endfacet
 facet normal -0 0 -1
  outer loop
   vertex 0.0317889 0.0342757 0
   vertex 0.0392928 0.026737 0
   vertex 0.0317725 0.0231481 0
  endloop
 endfacet
 facet normal 0 0 -1
  outer loop
   vertex 0.0349778 0.0565891 0
   vertex 0.0245079 0.0580095 0
   vertex 0.0305328 0.062659 0
  endloop
 endfacet
 facet normal 0 0 -1
  outer loop
   vertex 0.0349778 0.0565891 0
   vertex 0.0305328 0.062659 0
   vertex 0.0406449 0.0627704 0
  endloop
 endfacet
 facet normal 0 -0 -1
  outer loop
   vertex 0.0349778 0.0565891 0
   vertex 0.0406449 0.0627704 0
   vertex 0.0458178 0.0542444 0
  endloop
 endfacet
 facet normal 0 0 -1
  outer loop
   vertex 0.0349778 0.0565891 0
   vertex 0.0252366 0.050828 0
   vertex 0.0245079 0.0580095 0
  endloop
 endfacet
 facet normal 0 0 -1
  outer loop
   vertex 0.0349778 0.0565891 0
   vertex 0.0309205 0.0459282 0
   vertex 0.0252366 0.050828 0
  endloop
 endfacet
 facet normal -0 0 -1
  outer loop
   vertex 0.0349778 0.0565891 0
   vertex 0.0458178 0.0542444 0
   vertex 0.038543 0.049276 0
  endloop
 endfacet
 facet normal -0 0 -1
  outer loop
   vertex 0.0349778 0.0565891 0
   vertex 0.038543 0.049276 0
   vertex 0.0309205 0.0459282 0
  endloop
 endfacet
 facet normal 0 0 -1
  outer loop
   vertex 0.0166461 0.0479695 0
   vertex 0.00965352 0.0420677 0
   vertex 0.00796169 0.0509978 0
  endloop
 endfacet
 facet normal 0 -0 -1
  outer loop
   vertex 0.0166461 0.0479695 0
   vertex 0.0177811 0.0552812 0
   vertex 0.0252366 0.050828 0
  endloop
 endfacet
 facet normal 0 0 -1
  outer loop
   vertex 0.0166461 0.0479695 0
   vertex 0.0216589 0.0403306 0
   vertex 0.00965352 0.0420677 0
  endloop
 endfacet
 facet normal 0 0 -1
  outer loop
   vertex 0.0166461 0.0479695 0
   vertex 0.00796169 0.0509978 0
   vertex 0.0177811 0.0552812 0
  endloop
 endfacet
 facet normal 0 0 -1
  outer loop
   vertex 0.0166461 0.0479695 0
   vertex 0.0252366 0.050828 0
   vertex 0.0216589 0.0403306 0
  endloop
 endfacet
 facet normal 0 0 -1
  outer loop
   vertex 0.0193143 0.0644622 0
   vertex 0.0100044 0.0732602 0
   vertex 0.0209772 0.0763546 0
  endloop
 endfacet
 facet normal 0 -0 -1
  outer loop
   vertex 0.0193143 0.0644622 0
   vertex 0.0209772 0.0763546 0
   vertex 0.0298982 0.0711051 0
  endloop
 endfacet
 facet normal 0 -0 -1
  outer loop
   vertex 0.0193143 0.0644622 0
   vertex 0.0298982 0.0711051 0
   vertex 0.0305328 0.062659 0
  endloop
 endfacet
 facet normal 0 0 -1
  outer loop
   vertex 0.0193143 0.0644622 0
   vertex 0.0112009 0.0580634 0
   vertex 0.00769521 0.0647743 0
  endloop
 endfacet
 facet normal 0 0 -1
  outer loop
   vertex 0.0193143 0.0644622 0
   vertex 0.00769521 0.0647743 0
   vertex 0.0100044 0.0732602 0
  endloop
 endfacet
 facet normal 0 0 -1
  outer loop
   vertex 0.0193143 0.0644622 0
   vertex 0.0177811 0.0552812 0
   vertex 0.0112009 0.0580634 0
  endloop
 endfacet
 facet normal -0 0 -1
  outer loop
   vertex 0.0193143 0.0644622 0
   vertex 0.0245079 0.0580095 0
   vertex 0.0177811 0.0552812 0
  endloop
 endfacet
 facet normal -0 0 -1
  outer loop
   vertex 0.0193143 0.0644622 0
   vertex 0.0305328 0.062659 0
   vertex 0.0245079 0.0580095 0
  endloop
 endfacet
 facet normal 0 0 -1
  outer loop
   vertex 0.0175774 0.09746 0
   vertex 0.03 0.102245 0
   vertex 0.0272493 0.0915164 0
  endloop
 endfacet
 facet normal 0 0 -1
  outer loop
   vertex 0.0175774 0.09746 0
   vertex 0.0168408 0.0894653 0
   vertex 0.00900721 0.0903881 0
  endloop
 endfacet
 facet normal 0 -0 -1
  outer loop
   vertex 0.0175774 0.09746 0
   vertex 0.0210835 0.105552 0
   vertex 0.03 0.102245 0
  endloop
 endfacet
 facet normal 0 0 -1
  outer loop
   vertex 0.0175774 0.09746 0
   vertex 0.00900721 0.0903881 0
   vertex 0.0069861 0.0979087 0
  endloop
 endfacet
 facet normal -0 0 -1
  outer loop
   vertex 0.0175774 0.09746 0
   vertex 0.0272493 0.0915164 0
   vertex 0.0168408 0.0894653 0
  endloop
 endfacet
 facet normal 0 0 -1
  outer loop
   vertex 0.0175774 0.09746 0
   vertex 0.0108888 0.104064 0
   vertex 0.0210835 0.105552 0
  endloop
 endfacet
 facet normal 0 0 -1
  outer loop
   vertex 0.0175774 0.09746 0
   vertex 0.0069861 0.0979087 0
   vertex 0.0108888 0.104064 0
  endloop
 endfacet
 facet normal 0 0 -1
  outer loop
   vertex 0.040336 0.017755 0
   vertex 0.03 0.0127546 0
   vertex 0.0317725 0.0231481 0
  endloop
 endfacet
 facet normal 0 0 -1
  outer loop
   vertex 0.040336 0.017755 0
   vertex 0.0317725 0.0231481 0
   vertex 0.0392928 0.026737 0
  endloop
 endfacet
 facet normal 0 0 -1
  outer loop
   vertex 0.040336 0.017755 0
   vertex 0.050387 0.0226346 0
   vertex 0.047798 0.0119448 0
  endloop
 endfacet
 facet normal 0 0 -1
  outer loop
   vertex 0.040336 0.017755 0
   vertex 0.0388776 0.00890704 0
   vertex 0.03 0.0127546 0
  endloop
 endfacet
 facet normal -0 0 -1
  outer loop
   vertex 0.040336 0.017755 0
   vertex 0.047798 0.0119448 0
   vertex 0.0388776 0.00890704 0
  endloop
 endfacet
 facet normal 0 0 -1
  outer loop
   vertex 0.040336 0.017755 0
   vertex 0.0392928 0.026737 0
   vertex 0.050387 0.0226346 0
  endloop
 endfacet
 facet normal 0 -0 -1
  outer loop
   vertex 0.0421254 0.0957832 0
   vertex 0.0475709 0.102408 0
   vertex 0.0520594 0.0926135 0
  endloop
 endfacet
 facet normal 0 0 -1
  outer loop
   vertex 0.0421254 0.0957832 0
   vertex 0.04585 0.0841387 0
   vertex 0.0366615 0.0877675 0
  endloop
 endfacet
 facet normal 0 0 -1
  outer loop
   vertex 0.0421254 0.0957832 0
   vertex 0.0387696 0.105457 0
   vertex 0.0475709 0.102408 0
  endloop
 endfacet
 facet normal -0 0 -1
  outer loop
   vertex 0.0421254 0.0957832 0
   vertex 0.0520594 0.0926135 0
   vertex 0.04585 0.0841387 0
  endloop
 endfacet
 facet normal 0 0 -1
  outer loop
   vertex 0.0421254 0.0957832 0
   vertex 0.0349612 0.096554 0
   vertex 0.0387696 0.105457 0
  endloop
 endfacet
 facet normal 0 0 -1
  outer loop
   vertex 0.0421254 0.0957832 0
   vertex 0.0366615 0.0877675 0
   vertex 0.0349612 0.096554 0
  endloop
 endfacet
 facet normal 0 0 -1
  outer loop
   vertex 0.0168801 0.0182137 0
   vertex 0.0212858 0.00943211 0
   vertex 0.0108888 0.0109365 0
  endloop
 endfacet
 facet normal 0 0 -1
  outer loop
   vertex 0.0168801 0.0182137 0
   vertex 0.0108888 0.0109365 0
   vertex 0.00710193 0.0172445 0
  endloop
 endfacet
 facet normal 0 0 -1
  outer loop
   vertex 0.0168801 0.0182137 0
   vertex 0.00710193 0.0172445 0
   vertex 0.00959667 0.0241661 0
  endloop
 endfacet
 facet normal 0 0 -1
  outer loop
   vertex 0.0168801 0.0182137 0
   vertex 0.00959667 0.0241661 0
   vertex 0.0223087 0.0276437 0
  endloop
 endfacet
 facet normal 0 0 -1
  outer loop
   vertex 0.0168801 0.0182137 0
   vertex 0.0248799 0.0183966 0
   vertex 0.0212858 0.00943211 0
  endloop
 endfacet
 facet normal 0 -0 -1
  outer loop
   vertex 0.0168801 0.0182137 0
   vertex 0.0223087 0.0276437 0
   vertex 0.0248799 0.0183966 0
  endloop
 endfacet
 facet normal 0 -0 -1
  outer loop
   vertex 0.0438735 0.0720093 0
   vertex 0.04585 0.0841387 0
   vertex 0.0514099 0.0771898 0
  endloop
 endfacet
 facet normal 0 0 -1
  outer loop
   vertex 0.0438735 0.0720093 0
   vertex 0.051401 0.0626069 0
   vertex 0.0406449 0.0627704 0
  endloop
 endfacet
 facet normal 0 0 -1
  outer loop
   vertex 0.0438735 0.0720093 0
   vertex 0.0406449 0.0627704 0
   vertex 0.0372483 0.0691992 0
  endloop
 endfacet
 facet normal 0 0 -1
  outer loop
   vertex 0.0438735 0.0720093 0
   vertex 0.0379904 0.0783625 0
   vertex 0.04585 0.0841387 0
  endloop
 endfacet
 facet normal 0 0 -1
  outer loop
   vertex 0.0438735 0.0720093 0
   vertex 0.0372483 0.0691992 0
   vertex 0.0379904 0.0783625 0
  endloop
 endfacet
 facet normal 0 -0 -1
  outer loop
   vertex 0.0438735 0.0720093 0
   vertex 0.0514099 0.0771898 0
   vertex 0.0539398 0.0704919 0
  endloop
 endfacet
 facet normal -0 0 -1
  outer loop
   vertex 0.0438735 0.0720093 0
   vertex 0.0539398 0.0704919 0
   vertex 0.051401 0.0626069 0
  endloop
 endfacet
 facet normal 0 0 -1
  outer loop
   vertex 0.0438735 0.0429907 0
   vertex 0.038543 0.049276 0
   vertex 0.0458178 0.0542444 0
  endloop
 endfacet
 facet normal 0 -0 -1
  outer loop
   vertex 0.0438735 0.0429907 0
   vertex 0.0458178 0.0542444 0
   vertex 0.0525577 0.0458285 0
  endloop
 endfacet
 facet normal -0 0 -1
  outer loop
   vertex 0.0438735 0.0429907 0
   vertex 0.0512017 0.0381169 0
   vertex 0.0416269 0.0357617 0
  endloop
 endfacet
 facet normal 0 0 -1
  outer loop
   vertex 0.0438735 0.0429907 0
   vertex 0.0525577 0.0458285 0
   vertex 0.0512017 0.0381169 0
  endloop
 endfacet
 facet normal 0 0 -1
  outer loop
   vertex 0.0438735 0.0429907 0
   vertex 0.0373506 0.0416465 0
   vertex 0.038543 0.049276 0
  endloop
 endfacet
 facet normal 0 0 -1
  outer loop
   vertex 0.0438735 0.0429907 0
   vertex 0.0416269 0.0357617 0
   vertex 0.0373506 0.0416465 0
  endloop
 endfacet
 facet normal 0 0 -1
  outer loop
   vertex 0.0146173 0.0335417 0
   vertex 0.00959667 0.0241661 0
   vertex 0.00652329 0.0335417 0
  endloop
 endfacet
 facet normal 0 0 -1
  outer loop
   vertex 0.0146173 0.0335417 0
   vertex 0.00965352 0.0420677 0
   vertex 0.0216589 0.0403306 0
  endloop
 endfacet
 facet normal 0 0 -1
  outer loop
   vertex 0.0146173 0.0335417 0
   vertex 0.00652329 0.0335417 0
   vertex 0.00965352 0.0420677 0
  endloop
 endfacet
 facet normal 0 -0 -1
  outer loop
   vertex 0.0146173 0.0335417 0
   vertex 0.0216589 0.0403306 0
   vertex 0.0223087 0.0276437 0
  endloop
 endfacet
 facet normal -0 0 -1
  outer loop
   vertex 0.0146173 0.0335417 0
   vertex 0.0223087 0.0276437 0
   vertex 0.00959667 0.0241661 0
  endloop
 endfacet
 facet normal 0 0 -1
  outer loop
   vertex 0.014423 0.0824196 0
   vertex 0.0100044 0.0732602 0
   vertex 0.00651926 0.0815465 0
  endloop
 endfacet
 facet normal -0 0 -1
  outer loop
   vertex 0.014423 0.0824196 0
   vertex 0.0209772 0.0763546 0
   vertex 0.0100044 0.0732602 0
  endloop
 endfacet
 facet normal 0 0 -1
  outer loop
   vertex 0.014423 0.0824196 0
   vertex 0.00651926 0.0815465 0
   vertex 0.00900721 0.0903881 0
  endloop
 endfacet
 facet normal 0 0 -1
  outer loop
   vertex 0.014423 0.0824196 0
   vertex 0.00900721 0.0903881 0
   vertex 0.0168408 0.0894653 0
  endloop
 endfacet
 facet normal 0 0 -1
  outer loop
   vertex 0.014423 0.0824196 0
   vertex 0.0217954 0.084246 0
   vertex 0.0209772 0.0763546 0
  endloop
 endfacet
 facet normal 0 -0 -1
  outer loop
   vertex 0.014423 0.0824196 0
   vertex 0.0168408 0.0894653 0
   vertex 0.0217954 0.084246 0
  endloop
 endfacet
 facet normal 0 0 -1
  outer loop
   vertex 0.04585 0.0841387 0
   vertex 0.0379904 0.0783625 0
   vertex 0.0366615 0.0877675 0
  endloop
 endfacet
 facet normal -0 0 -1
  outer loop
   vertex 0.04585 0.0841387 0
   vertex 0.0538025 0.0832557 0
   vertex 0.0514099 0.0771898 0
  endloop
 endfacet
 facet normal 0 -0 -1
  outer loop
   vertex 0.04585 0.0841387 0
   vertex 0.0520594 0.0926135 0
   vertex 0.0538025 0.0832557 0
  endloop
 endfacet
 facet normal 0 -0 -1
  outer loop
   vertex 0.0467999 0.0306038 0
   vertex 0.0512017 0.0381169 0
   vertex 0.0536777 0.0316877 0
  endloop
 endfacet
 facet normal 0 0 -1
  outer loop
   vertex 0.0467999 0.0306038 0
   vertex 0.0536777 0.0316877 0
   vertex 0.050387 0.0226346 0
  endloop
 endfacet
 facet normal 0 0 -1
  outer loop
   vertex 0.0467999 0.0306038 0
   vertex 0.050387 0.0226346 0
   vertex 0.0392928 0.026737 0
  endloop
 endfacet
 facet normal 0 0 -1
  outer loop
   vertex 0.0467999 0.0306038 0
   vertex 0.0392928 0.026737 0
   vertex 0.0416269 0.0357617 0
  endloop
 endfacet
 facet normal 0 0 -1
  outer loop
   vertex 0.0467999 0.0306038 0
   vertex 0.0416269 0.0357617 0
   vertex 0.0512017 0.0381169 0
  endloop
 endfacet
 facet normal -0 0 -1
  outer loop
   vertex 0.0458178 0.0542444 0
   vertex 0.0539553 0.0536193 0
   vertex 0.0525577 0.0458285 0
  endloop
 endfacet
 facet normal 0 0 -1
  outer loop
   vertex 0.0458178 0.0542444 0
   vertex 0.0406449 0.0627704 0
   vertex 0.051401 0.0626069 0
  endloop
 endfacet
 facet normal 0 -0 -1
  outer loop
   vertex 0.0458178 0.0542444 0
   vertex 0.051401 0.0626069 0
   vertex 0.0539553 0.0536193 0
  endloop
 endfacet
 facet normal -0 0 -1
  outer loop
   vertex 0.03 0.102245 0
   vertex 0.0349612 0.096554 0
   vertex 0.0272493 0.0915164 0
  endloop
 endfacet
 facet normal 0 0 -1
  outer loop
   vertex 0.03 0.102245 0
   vertex 0.0387696 0.105457 0
   vertex 0.0349612 0.096554 0
  endloop
 endfacet
 facet normal 0 0 -1
  outer loop
   vertex 0.03 0.0127546 0
   vertex 0.0212858 0.00943211 0
   vertex 0.0248799 0.0183966 0
  endloop
 endfacet
 facet normal 0 0 -1
  outer loop
   vertex 0.03 0.0127546 0
   vertex 0.0248799 0.0183966 0
   vertex 0.0317725 0.0231481 0
  endloop
 endfacet
 facet normal 0 0 -1
  outer loop
   vertex 0.0298982 0.0711051 0
   vertex 0.0379904 0.0783625 0
   vertex 0.0372483 0.0691992 0
  endloop
 endfacet
 facet normal -0 0 -1
  outer loop
   vertex 0.0298982 0.0711051 0
   vertex 0.0372483 0.0691992 0
   vertex 0.0305328 0.062659 0
  endloop
 endfacet
 facet normal 0 0 -1
  outer loop
   vertex 0.0309205 0.0459282 0
   vertex 0.038543 0.049276 0
   vertex 0.0373506 0.0416465 0
  endloop
 endfacet
 facet normal 0 0 -1
  outer loop
   vertex 0.0309205 0.0459282 0
   vertex 0.0216589 0.0403306 0
   vertex 0.0252366 0.050828 0
  endloop
 endfacet
 facet normal -0 0 -1
  outer loop
   vertex 0.0112009 0.0580634 0
   vertex 0.0177811 0.0552812 0
   vertex 0.00796169 0.0509978 0
  endloop
 endfacet
 facet normal 0 0 -1
  outer loop
   vertex 0.0245079 0.0580095 0
   vertex 0.0252366 0.050828 0
   vertex 0.0177811 0.0552812 0
  endloop
 endfacet
 facet normal 0 0 -1
  outer loop
   vertex 0.0108888 0.104064 0
   vertex 0.00599492 0.10917 0
   vertex 0.0152759 0.109672 0
  endloop
 endfacet
 facet normal 0 -0 -1
  outer loop
   vertex 0.0108888 0.104064 0
   vertex 0.0152759 0.109672 0
   vertex 0.0210835 0.105552 0
  endloop
 endfacet
 facet normal 0 0 -1
  outer loop
   vertex 0.047798 0.0119448 0
   vertex 0.0450917 0.00533007 0
   vertex 0.0388776 0.00890704 0
  endloop
 endfacet
 facet normal 0 0 -1
  outer loop
   vertex 0.047798 0.0119448 0
   vertex 0.0549033 0.0142336 0
   vertex 0.0540051 0.00582984 0
  endloop
 endfacet
 facet normal 0 -0 -1
  outer loop
   vertex 0.047798 0.0119448 0
   vertex 0.050387 0.0226346 0
   vertex 0.0549033 0.0142336 0
  endloop
 endfacet
 facet normal -0 0 -1
  outer loop
   vertex 0.047798 0.0119448 0
   vertex 0.0540051 0.00582984 0
   vertex 0.0450917 0.00533007 0
  endloop
 endfacet
 facet normal 0 0 -1
  outer loop
   vertex 0.0475709 0.102408 0
   vertex 0.0450164 0.109543 0
   vertex 0.0528937 0.10802 0
  endloop
 endfacet
 facet normal 0 0 -1
  outer loop
   vertex 0.0475709 0.102408 0
   vertex 0.0387696 0.105457 0
   vertex 0.0450164 0.109543 0
  endloop
 endfacet
 facet normal 0 -0 -1
  outer loop
   vertex 0.0475709 0.102408 0
   vertex 0.0528937 0.10802 0
   vertex 0.055067 0.100625 0
  endloop
 endfacet
 facet normal -0 0 -1
  outer loop
   vertex 0.0475709 0.102408 0
   vertex 0.055067 0.100625 0
   vertex 0.0520594 0.0926135 0
  endloop
 endfacet
 facet normal -0 0 -1
  outer loop
   vertex 0.0108888 0.0109365 0
   vertex 0.0212858 0.00943211 0
   vertex 0.0152759 0.00532787 0
  endloop
 endfacet
 facet normal 0 0 -1
  outer loop
   vertex 0.0108888 0.0109365 0
   vertex 0.0152759 0.00532787 0
   vertex 0.00599492 0.00582984 0
  endloop
 endfacet
 facet normal 0 -0 -1
  outer loop
   vertex 0.0272493 0.0915164 0
   vertex 0.0349612 0.096554 0
   vertex 0.0366615 0.0877675 0
  endloop
 endfacet
 facet normal 0 0 -1
  outer loop
   vertex 0.0272493 0.0915164 0
   vertex 0.0217954 0.084246 0
   vertex 0.0168408 0.0894653 0
  endloop
 endfacet
 facet normal 0 0 -1
  outer loop
   vertex 0.0317725 0.0231481 0
   vertex 0.0248799 0.0183966 0
   vertex 0.0223087 0.0276437 0
  endloop
 endfacet
 facet normal 0 0 -1
  outer loop
   vertex 0.0406449 0.0627704 0
   vertex 0.0305328 0.062659 0
   vertex 0.0372483 0.0691992 0
  endloop
 endfacet
 facet normal 0 0 1
  outer loop
   vertex 0.0298983 0.081383 0.013
   vertex 0.0366615 0.0877675 0.013
   vertex 0.0272493 0.0915164 0.013
  endloop
 endfacet
 facet normal 0 0 1
  outer loop
   vertex 0.0298983 0.081383 0.013
   vertex 0.0272493 0.0915164 0.013
   vertex 0.0217954 0.084246 0.013
  endloop
 endfacet
 facet normal 0 0 1
  outer loop
   vertex 0.0298983 0.081383 0.013
   vertex 0.0379904 0.0783625 0.013
   vertex 0.0366615 0.0877675 0.013
  endloop
 endfacet
 facet normal 0 0 1
  outer loop
   vertex 0.0298983 0.081383 0.013
   vertex 0.0298982 0.0711051 0.013
   vertex 0.0379904 0.0783625 0.013
  endloop
 endfacet
 facet normal 0 0 1
  outer loop
   vertex 0.0298983 0.081383 0.013
   vertex 0.0217954 0.084246 0.013
   vertex 0.0209772 0.0763546 0.013
  endloop
 endfacet
 facet normal -0 0 1
  outer loop
   vertex 0.0298983 0.081383 0.013
   vertex 0.0209772 0.0763546 0.013
   vertex 0.0298982 0.0711051 0.013
  endloop
 endfacet
 facet normal 0 0 1
  outer loop
   vertex 0.0317889 0.0342757 0.013
   vertex 0.0373506 0.0416465 0.013
   vertex 0.0309205 0.0459282 0.013
  endloop
 endfacet
 facet normal 0 0 1
  outer loop
   vertex 0.0317889 0.0342757 0.013
   vertex 0.0309205 0.0459282 0.013
   vertex 0.0216589 0.0403306 0.013
  endloop
 endfacet
 facet normal 0 0 1
  outer loop
   vertex 0.0317889 0.0342757 0.013
   vertex 0.0216589 0.0403306 0.013
   vertex 0.0223087 0.0276437 0.013
  endloop
 endfacet
 facet normal -0 0 1
  outer loop
   vertex 0.0317889 0.0342757 0.013
   vertex 0.0223087 0.0276437 0.013
   vertex 0.0317725 0.0231481 0.013
  endloop
 endfacet
 facet normal 0 0 1
  outer loop
   vertex 0.0317889 0.0342757 0.013
   vertex 0.0317725 0.0231481 0.013
   vertex 0.0392928 0.026737 0.013
  endloop
 endfacet
 facet normal 0 -0 1
  outer loop
   vertex 0.0317889 0.0342757 0.013
   vertex 0.0392928 0.026737 0.013
   vertex 0.0416269 0.0357617 0.013
  endloop
 endfacet
 facet normal 0 0 1
  outer loop
   vertex 0.0317889 0.0342757 0.013
   vertex 0.0416269 0.0357617 0.013
   vertex 0.0373506 0.0416465 0.013
  endloop
 endfacet
 facet normal 0 0 1
  outer loop
   vertex 0.0349778 0.0565891 0.013
   vertex 0.0458178 0.0542444 0.013
   vertex 0.0406449 0.0627704 0.013
  endloop
 endfacet
 facet normal 0 0 1
  outer loop
   vertex 0.0349778 0.0565891 0.013
   vertex 0.0305328 0.062659 0.013
   vertex 0.0245079 0.0580095 0.013
  endloop
 endfacet
 facet normal 0 0 1
  outer loop
   vertex 0.0349778 0.0565891 0.013
   vertex 0.0406449 0.0627704 0.013
   vertex 0.0305328 0.062659 0.013
  endloop
 endfacet
 facet normal 0 -0 1
  outer loop
   vertex 0.0349778 0.0565891 0.013
   vertex 0.038543 0.049276 0.013
   vertex 0.0458178 0.0542444 0.013
  endloop
 endfacet
 facet normal 0 0 1
  outer loop
   vertex 0.0349778 0.0565891 0.013
   vertex 0.0245079 0.0580095 0.013
   vertex 0.0252366 0.050828 0.013
  endloop
 endfacet
 facet normal 0 0 1
  outer loop
   vertex 0.0349778 0.0565891 0.013
   vertex 0.0309205 0.0459282 0.013
   vertex 0.038543 0.049276 0.013
  endloop
 endfacet
 facet normal -0 0 1
  outer loop
   vertex 0.0349778 0.0565891 0.013
   vertex 0.0252366 0.050828 0.013
   vertex 0.0309205 0.0459282 0.013
  endloop
 endfacet
 facet normal 0 0 1
  outer loop
   vertex 0.0166461 0.0479695 0.013
   vertex 0.0177811 0.0552812 0.013
   vertex 0.00796169 0.0509978 0.013
  endloop
 endfacet
 facet normal 0 0 1
  outer loop
   vertex 0.0166461 0.0479695 0.013
   vertex 0.00796169 0.0509978 0.013
   vertex 0.00965352 0.0420677 0.013
  endloop
 endfacet
 facet normal 0 0 1
  outer loop
   vertex 0.0166461 0.0479695 0.013
   vertex 0.0252366 0.050828 0.013
   vertex 0.0177811 0.0552812 0.013
  endloop
 endfacet
 facet normal -0 0 1
  outer loop
   vertex 0.0166461 0.0479695 0.013
   vertex 0.00965352 0.0420677 0.013
   vertex 0.0216589 0.0403306 0.013
  endloop
 endfacet
 facet normal 0 -0 1
  outer loop
   vertex 0.0166461 0.0479695 0.013
   vertex 0.0216589 0.0403306 0.013
   vertex 0.0252366 0.050828 0.013
  endloop
 endfacet
 facet normal 0 -0 1
  outer loop
   vertex 0.0193143 0.0644622 0.013
   vertex 0.0245079 0.0580095 0.013
   vertex 0.0305328 0.062659 0.013
  endloop
 endfacet
 facet normal 0 0 1
  outer loop
   vertex 0.0193143 0.0644622 0.013
   vertex 0.0100044 0.0732602 0.013
   vertex 0.00769521 0.0647743 0.013
  endloop
 endfacet
 facet normal 0 0 1
  outer loop
   vertex 0.0193143 0.0644622 0.013
   vertex 0.0209772 0.0763546 0.013
   vertex 0.0100044 0.0732602 0.013
  endloop
 endfacet
 facet normal 0 0 1
  outer loop
   vertex 0.0193143 0.0644622 0.013
   vertex 0.00769521 0.0647743 0.013
   vertex 0.0112009 0.0580634 0.013
  endloop
 endfacet
 facet normal 0 0 1
  outer loop
   vertex 0.0193143 0.0644622 0.013
   vertex 0.0298982 0.0711051 0.013
   vertex 0.0209772 0.0763546 0.013
  endloop
 endfacet
 facet normal -0 0 1
  outer loop
   vertex 0.0193143 0.0644622 0.013
   vertex 0.0112009 0.0580634 0.013
   vertex 0.0177811 0.0552812 0.013
  endloop
 endfacet
 facet normal 0 0 1
  outer loop
   vertex 0.0193143 0.0644622 0.013
   vertex 0.0177811 0.0552812 0.013
   vertex 0.0245079 0.0580095 0.013
  endloop
 endfacet
 facet normal 0 0 1
  outer loop
   vertex 0.0193143 0.0644622 0.013
   vertex 0.0305328 0.062659 0.013
   vertex 0.0298982 0.0711051 0.013
  endloop
 endfacet
 facet normal 0 0 1
  outer loop
   vertex 0.0175774 0.09746 0.013
   vertex 0.0168408 0.0894653 0.013
   vertex 0.0272493 0.0915164 0.013
  endloop
 endfacet
 facet normal 0 0 1
  outer loop
   vertex 0.0175774 0.09746 0.013
   vertex 0.0069861 0.0979087 0.013
   vertex 0.00900721 0.0903881 0.013
  endloop
 endfacet
 facet normal 0 0 1
  outer loop
   vertex 0.0175774 0.09746 0.013
   vertex 0.0108888 0.104064 0.013
   vertex 0.0069861 0.0979087 0.013
  endloop
 endfacet
 facet normal 0 0 1
  outer loop
   vertex 0.0175774 0.09746 0.013
   vertex 0.03 0.102245 0.013
   vertex 0.0210835 0.105552 0.013
  endloop
 endfacet
 facet normal 0 0 1
  outer loop
   vertex 0.0175774 0.09746 0.013
   vertex 0.0210835 0.105552 0.013
   vertex 0.0108888 0.104064 0.013
  endloop
 endfacet
 facet normal 0 -0 1
  outer loop
   vertex 0.0175774 0.09746 0.013
   vertex 0.0272493 0.0915164 0.013
   vertex 0.03 0.102245 0.013
  endloop
 endfacet
 facet normal -0 0 1
  outer loop
   vertex 0.0175774 0.09746 0.013
   vertex 0.00900721 0.0903881 0.013
   vertex 0.0168408 0.0894653 0.013
  endloop
 endfacet
 facet normal 0 0 1
  outer loop
   vertex 0.040336 0.017755 0.013
   vertex 0.0317725 0.0231481 0.013
   vertex 0.03 0.0127546 0.013
  endloop
 endfacet
 facet normal 0 0 1
  outer loop
   vertex 0.040336 0.017755 0.013
   vertex 0.050387 0.0226346 0.013
   vertex 0.0392928 0.026737 0.013
  endloop
 endfacet
 facet normal 0 -0 1
  outer loop
   vertex 0.040336 0.017755 0.013
   vertex 0.047798 0.0119448 0.013
   vertex 0.050387 0.0226346 0.013
  endloop
 endfacet
 facet normal -0 0 1
  outer loop
   vertex 0.040336 0.017755 0.013
   vertex 0.03 0.0127546 0.013
   vertex 0.0388776 0.00890704 0.013
  endloop
 endfacet
 facet normal 0 0 1
  outer loop
   vertex 0.040336 0.017755 0.013
   vertex 0.0388776 0.00890704 0.013
   vertex 0.047798 0.0119448 0.013
  endloop
 endfacet
 facet normal 0 0 1
  outer loop
   vertex 0.040336 0.017755 0.013
   vertex 0.0392928 0.026737 0.013
   vertex 0.0317725 0.0231481 0.013
  endloop
 endfacet
 facet normal -0 0 1
  outer loop
   vertex 0.0421254 0.0957832 0.013
   vertex 0.0366615 0.0877675 0.013
   vertex 0.04585 0.0841387 0.013
  endloop
 endfacet
 facet normal 0 0 1
  outer loop
   vertex 0.0421254 0.0957832 0.013
   vertex 0.0349612 0.096554 0.013
   vertex 0.0366615 0.0877675 0.013
  endloop
 endfacet
 facet normal 0 0 1
  outer loop
   vertex 0.0421254 0.0957832 0.013
   vertex 0.0520594 0.0926135 0.013
   vertex 0.0475709 0.102408 0.013
  endloop
 endfacet
 facet normal 0 -0 1
  outer loop
   vertex 0.0421254 0.0957832 0.013
   vertex 0.04585 0.0841387 0.013
   vertex 0.0520594 0.0926135 0.013
  endloop
 endfacet
 facet normal 0 0 1
  outer loop
   vertex 0.0421254 0.0957832 0.013
   vertex 0.0387696 0.105457 0.013
   vertex 0.0349612 0.096554 0.013
  endloop
 endfacet
 facet normal 0 0 1
  outer loop
   vertex 0.0421254 0.0957832 0.013
   vertex 0.0475709 0.102408 0.013
   vertex 0.0387696 0.105457 0.013
  endloop
 endfacet
 facet normal -0 0 1
  outer loop
   vertex 0.0168801 0.0182137 0.013
   vertex 0.00710193 0.0172445 0.013
   vertex 0.0108888 0.0109365 0.013
  endloop
 endfacet
 facet normal 0 0 1
  outer loop
   vertex 0.0168801 0.0182137 0.013
   vertex 0.0223087 0.0276437 0.013
   vertex 0.00959667 0.0241661 0.013
  endloop
 endfacet
 facet normal 0 -0 1
  outer loop
   vertex 0.0168801 0.0182137 0.013
   vertex 0.0212858 0.00943211 0.013
   vertex 0.0248799 0.0183966 0.013
  endloop
 endfacet
 facet normal 0 0 1
  outer loop
   vertex 0.0168801 0.0182137 0.013
   vertex 0.0248799 0.0183966 0.013
   vertex 0.0223087 0.0276437 0.013
  endloop
 endfacet
 facet normal 0 0 1
  outer loop
   vertex 0.0168801 0.0182137 0.013
   vertex 0.00959667 0.0241661 0.013
   vertex 0.00710193 0.0172445 0.013
  endloop
 endfacet
 facet normal -0 0 1
  outer loop
   vertex 0.0168801 0.0182137 0.013
   vertex 0.0108888 0.0109365 0.013
   vertex 0.0212858 0.00943211 0.013
  endloop
 endfacet
 facet normal 0 0 1
  outer loop
   vertex 0.0438735 0.0720093 0.013
   vertex 0.0514099 0.0771898 0.013
   vertex 0.04585 0.0841387 0.013
  endloop
 endfacet
 facet normal -0 0 1
  outer loop
   vertex 0.0438735 0.0720093 0.013
   vertex 0.0406449 0.0627704 0.013
   vertex 0.051401 0.0626069 0.013
  endloop
 endfacet
 facet normal 0 -0 1
  outer loop
   vertex 0.0438735 0.0720093 0.013
   vertex 0.051401 0.0626069 0.013
   vertex 0.0539398 0.0704919 0.013
  endloop
 endfacet
 facet normal 0 0 1
  outer loop
   vertex 0.0438735 0.0720093 0.013
   vertex 0.0539398 0.0704919 0.013
   vertex 0.0514099 0.0771898 0.013
  endloop
 endfacet
 facet normal 0 0 1
  outer loop
   vertex 0.0438735 0.0720093 0.013
   vertex 0.04585 0.0841387 0.013
   vertex 0.0379904 0.0783625 0.013
  endloop
 endfacet
 facet normal 0 0 1
  outer loop
   vertex 0.0438735 0.0720093 0.013
   vertex 0.0379904 0.0783625 0.013
   vertex 0.0372483 0.0691992 0.013
  endloop
 endfacet
 facet normal -0 0 1
  outer loop
   vertex 0.0438735 0.0720093 0.013
   vertex 0.0372483 0.0691992 0.013
   vertex 0.0406449 0.0627704 0.013
  endloop
 endfacet
 facet normal 0 0 1
  outer loop
   vertex 0.0438735 0.0429907 0.013
   vertex 0.0416269 0.0357617 0.013
   vertex 0.0512017 0.0381169 0.013
  endloop
 endfacet
 facet normal 0 0 1
  outer loop
   vertex 0.0438735 0.0429907 0.013
   vertex 0.0458178 0.0542444 0.013
   vertex 0.038543 0.049276 0.013
  endloop
 endfacet
 facet normal 0 0 1
  outer loop
   vertex 0.0438735 0.0429907 0.013
   vertex 0.0525577 0.0458285 0.013
   vertex 0.0458178 0.0542444 0.013
  endloop
 endfacet
 facet normal 0 -0 1
  outer loop
   vertex 0.0438735 0.0429907 0.013
   vertex 0.0512017 0.0381169 0.013
   vertex 0.0525577 0.0458285 0.013
  endloop
 endfacet
 facet normal -0 0 1
  outer loop
   vertex 0.0438735 0.0429907 0.013
   vertex 0.0373506 0.0416465 0.013
   vertex 0.0416269 0.0357617 0.013
  endloop
 endfacet
 facet normal 0 0 1
  outer loop
   vertex 0.0438735 0.0429907 0.013
   vertex 0.038543 0.049276 0.013
   vertex 0.0373506 0.0416465 0.013
  endloop
 endfacet
 facet normal 0 0 1
  outer loop
   vertex 0.0146173 0.0335417 0.013
   vertex 0.00965352 0.0420677 0.013
   vertex 0.00652329 0.0335417 0.013
  endloop
 endfacet
 facet normal 0 0 1
  outer loop
   vertex 0.0146173 0.0335417 0.013
   vertex 0.0216589 0.0403306 0.013
   vertex 0.00965352 0.0420677 0.013
  endloop
 endfacet
 facet normal -0 0 1
  outer loop
   vertex 0.0146173 0.0335417 0.013
   vertex 0.00652329 0.0335417 0.013
   vertex 0.00959667 0.0241661 0.013
  endloop
 endfacet
 facet normal 0 0 1
  outer loop
   vertex 0.0146173 0.0335417 0.013
   vertex 0.0223087 0.0276437 0.013
   vertex 0.0216589 0.0403306 0.013
  endloop
 endfacet
 facet normal 0 0 1
  outer loop
   vertex 0.0146173 0.0335417 0.013
   vertex 0.00959667 0.0241661 0.013
   vertex 0.0223087 0.0276437 0.013
  endloop
 endfacet
 facet normal 0 0 1
  outer loop
   vertex 0.014423 0.0824196 0.013
   vertex 0.00900721 0.0903881 0.013
   vertex 0.00651926 0.0815465 0.013
  endloop
 endfacet
 facet normal -0 0 1
  outer loop
   vertex 0.014423 0.0824196 0.013
   vertex 0.00651926 0.0815465 0.013
   vertex 0.0100044 0.0732602 0.013
  endloop
 endfacet
 facet normal 0 0 1
  outer loop
   vertex 0.014423 0.0824196 0.013
   vertex 0.0100044 0.0732602 0.013
   vertex 0.0209772 0.0763546 0.013
  endloop
 endfacet
 facet normal 0 -0 1
  outer loop
   vertex 0.014423 0.0824196 0.013
   vertex 0.0209772 0.0763546 0.013
   vertex 0.0217954 0.084246 0.013
  endloop
 endfacet
 facet normal 0 0 1
  outer loop
   vertex 0.014423 0.0824196 0.013
   vertex 0.0168408 0.0894653 0.013
   vertex 0.00900721 0.0903881 0.013
  endloop
 endfacet
 facet normal 0 0 1
  outer loop
   vertex 0.014423 0.0824196 0.013
   vertex 0.0217954 0.084246 0.013
   vertex 0.0168408 0.0894653 0.013
  endloop
 endfacet
 facet normal 0 0 1
  outer loop
   vertex 0.04585 0.0841387 0.013
   vertex 0.0366615 0.0877675 0.013
   vertex 0.0379904 0.0783625 0.013
  endloop
 endfacet
 facet normal 0 -0 1
  outer loop
   vertex 0.04585 0.0841387 0.013
   vertex 0.0514099 0.0771898 0.013
   vertex 0.0538025 0.0832557 0.013
  endloop
 endfacet
 facet normal 0 0 1
  outer loop
   vertex 0.04585 0.0841387 0.013
   vertex 0.0538025 0.0832557 0.013
   vertex 0.0520594 0.0926135 0.013
  endloop
 endfacet
 facet normal 0 0 1
  outer loop
   vertex 0.0467999 0.0306038 0.013
   vertex 0.0536777 0.0316877 0.013
   vertex 0.0512017 0.0381169 0.013
  endloop
 endfacet
 facet normal 0 -0 1
  outer loop
   vertex 0.0467999 0.0306038 0.013
   vertex 0.050387 0.0226346 0.013
   vertex 0.0536777 0.0316877 0.013
  endloop
 endfacet
 facet normal -0 0 1
  outer loop
   vertex 0.0467999 0.0306038 0.013
   vertex 0.0392928 0.026737 0.013
   vertex 0.050387 0.0226346 0.013
  endloop
 endfacet
 facet normal 0 0 1
  outer loop
   vertex 0.0467999 0.0306038 0.013
   vertex 0.0416269 0.0357617 0.013
   vertex 0.0392928 0.026737 0.013
  endloop
 endfacet
 facet normal 0 0 1
  outer loop
   vertex 0.0467999 0.0306038 0.013
   vertex 0.0512017 0.0381169 0.013
   vertex 0.0416269 0.0357617 0.013
  endloop
 endfacet
 facet normal 0 0 1
  outer loop
   vertex 0.0458178 0.0542444 0.013
   vertex 0.051401 0.0626069 0.013
   vertex 0.0406449 0.0627704 0.013
  endloop
 endfacet
 facet normal 0 0 1
  outer loop
   vertex 0.0458178 0.0542444 0.013
   vertex 0.0539553 0.0536193 0.013
   vertex 0.051401 0.0626069 0.013
  endloop
 endfacet
 facet normal 0 -0 1
  outer loop
   vertex 0.0458178 0.0542444 0.013
   vertex 0.0525577 0.0458285 0.013
   vertex 0.0539553 0.0536193 0.013
  endloop
 endfacet
 facet normal 0 0 1
  outer loop
   vertex 0.03 0.102245 0.013
   vertex 0.0272493 0.0915164 0.013
   vertex 0.0349612 0.096554 0.013
  endloop
 endfacet
 facet normal 0 -0 1
  outer loop
   vertex 0.03 0.102245 0.013
   vertex 0.0349612 0.096554 0.013
   vertex 0.0387696 0.105457 0.013
  endloop
 endfacet
 facet normal 0 0 1
  outer loop
   vertex 0.03 0.0127546 0.013
   vertex 0.0317725 0.0231481 0.013
   vertex 0.0248799 0.0183966 0.013
  endloop
 endfacet
 facet normal 0 0 1
  outer loop
   vertex 0.03 0.0127546 0.013
   vertex 0.0248799 0.0183966 0.013
   vertex 0.0212858 0.00943211 0.013
  endloop
 endfacet
 facet normal 0 -0 1
  outer loop
   vertex 0.0298982 0.0711051 0.013
   vertex 0.0372483 0.0691992 0.013
   vertex 0.0379904 0.0783625 0.013
  endloop
 endfacet
 facet normal 0 -0 1
  outer loop
   vertex 0.0298982 0.0711051 0.013
   vertex 0.0305328 0.062659 0.013
   vertex 0.0372483 0.0691992 0.013
  endloop
 endfacet
 facet normal 0 -0 1
  outer loop
   vertex 0.0309205 0.0459282 0.013
   vertex 0.0373506 0.0416465 0.013
   vertex 0.038543 0.049276 0.013
  endloop
 endfacet
 facet normal 0 0 1
  outer loop
   vertex 0.0309205 0.0459282 0.013
   vertex 0.0252366 0.050828 0.013
   vertex 0.0216589 0.0403306 0.013
  endloop
 endfacet
 facet normal 0 0 1
  outer loop
   vertex 0.0112009 0.0580634 0.013
   vertex 0.00796169 0.0509978 0.013
   vertex 0.0177811 0.0552812 0.013
  endloop
 endfacet
 facet normal -0 0 1
  outer loop
   vertex 0.0245079 0.0580095 0.013
   vertex 0.0177811 0.0552812 0.013
   vertex 0.0252366 0.050828 0.013
  endloop
 endfacet
 facet normal 0 0 1
  outer loop
   vertex 0.0108888 0.104064 0.013
   vertex 0.0210835 0.105552 0.013
   vertex 0.0152759 0.109672 0.013
  endloop
 endfacet
 facet normal 0 0 1
  outer loop
   vertex 0.0108888 0.104064 0.013
   vertex 0.0152759 0.109672 0.013
   vertex 0.00599492 0.10917 0.013
  endloop
 endfacet
 facet normal 0 0 1
  outer loop
   vertex 0.047798 0.0119448 0.013
   vertex 0.0450917 0.00533007 0.013
   vertex 0.0540051 0.00582984 0.013
  endloop
 endfacet
 facet normal 0 -0 1
  outer loop
   vertex 0.047798 0.0119448 0.013
   vertex 0.0540051 0.00582984 0.013
   vertex 0.0549033 0.0142336 0.013
  endloop
 endfacet
 facet normal -0 0 1
  outer loop
   vertex 0.047798 0.0119448 0.013
   vertex 0.0388776 0.00890704 0.013
   vertex 0.0450917 0.00533007 0.013
  endloop
 endfacet
 facet normal 0 0 1
  outer loop
   vertex 0.047798 0.0119448 0.013
   vertex 0.0549033 0.0142336 0.013
   vertex 0.050387 0.0226346 0.013
  endloop
 endfacet
 facet normal 0 0 1
  outer loop
   vertex 0.0475709 0.102408 0.013
   vertex 0.0528937 0.10802 0.013
   vertex 0.0450164 0.109543 0.013
  endloop
 endfacet
 facet normal 0 0 1
  outer loop
   vertex 0.0475709 0.102408 0.013
   vertex 0.0450164 0.109543 0.013
   vertex 0.0387696 0.105457 0.013
  endloop
 endfacet
 facet normal 0 -0 1
  outer loop
   vertex 0.0475709 0.102408 0.013
   vertex 0.0520594 0.0926135 0.013
   vertex 0.055067 0.100625 0.013
  endloop
 endfacet
 facet normal 0 0 1
  outer loop
   vertex 0.0475709 0.102408 0.013
   vertex 0.055067 0.100625 0.013
   vertex 0.0528937 0.10802 0.013
  endloop
 endfacet
 facet normal 0 -0 1
  outer loop
   vertex 0.0108888 0.0109365 0.013
   vertex 0.0152759 0.00532787 0.013
   vertex 0.0212858 0.00943211 0.013
  endloop
 endfacet
 facet normal -0 0 1
  outer loop
   vertex 0.0108888 0.0109365 0.013
   vertex 0.00599492 0.00582984 0.013
   vertex 0.0152759 0.00532787 0.013
  endloop
 endfacet
 facet normal 0 0 1
  outer loop
   vertex 0.0272493 0.0915164 0.013
   vertex 0.0366615 0.0877675 0.013
   vertex 0.0349612 0.096554 0.013
  endloop
 endfacet
 facet normal -0 0 1
  outer loop
   vertex 0.0272493 0.0915164 0.013
   vertex 0.0168408 0.0894653 0.013
   vertex 0.0217954 0.084246 0.013
  endloop
 endfacet
 facet normal 0 0 1
  outer loop
   vertex 0.0317725 0.0231481 0.013
   vertex 0.0223087 0.0276437 0.013
   vertex 0.0248799 0.0183966 0.013
  endloop
 endfacet
 facet normal 0 0 1
  outer loop
   vertex 0.0406449 0.0627704 0.013
   vertex 0.0372483 0.0691992 0.013
   vertex 0.0305328 0.062659 0.013
  endloop
 endfacet
endsolid
