solid ascii
 facet normal 1 0 0
  outer loop
   vertex 0.115 0 0
   vertex 0.115 0.01 0
   vertex 0.115 0 0.0065
  endloop
 endfacet
 facet normal -2.22044e-16 -1 -0
  outer loop
   vertex 0.115 0 0
   vertex 0.115 0 0.0065
   vertex 0.105417 2.12793e-18 0
  endloop
 endfacet
 facet normal 0 0 -1
  outer loop
   vertex 0.115 0 0
   vertex 0.10917 0.00599492 0
   vertex 0.115 0.01 0
  endloop
 endfacet
 facet normal 0 0 -1
  outer loop
   vertex 0.115 0 0
   vertex 0.105417 2.12793e-18 0
   vertex 0.10917 0.00599492 0
  endloop
 endfacet
 facet normal 1 0 0
  outer loop
   vertex 0.115 0.06 0
   vertex 0.115 0.06 0.0065
   vertex 0.115 0.05 0
  endloop
 endfacet
 facet normal 0 1 0
  outer loop
   vertex 0.115 0.06 0
   vertex 0.105417 0.06 0
   vertex 0.115 0.06 0.0065
  endloop
 endfacet
 facet normal 0 0 -1
  outer loop
   vertex 0.115 0.06 0
   vertex 0.115 0.05 0
   vertex 0.10917 0.0540051 0
  endloop
 endfacet
 facet normal 0 0 -1
  outer loop
   vertex 0.115 0.06 0
   vertex 0.10917 0.0540051 0
   vertex 0.105417 0.06 0
  endloop
 endfacet
 facet normal -1 0 0
  outer loop
   vertex -2.08616e-09 0.06 0
   vertex -2.08616e-09 0.05 0
   vertex -2.08616e-09 0.06 0.0065
  endloop
 endfacet
 facet normal 0 1 0
  outer loop
   vertex -2.08616e-09 0.06 0
   vertex -2.08616e-09 0.06 0.0065
   vertex 0.00958334 0.06 0
  endloop
 endfacet
 facet normal -0 0 -1
  outer loop
   vertex -2.08616e-09 0.06 0
   vertex 0.00697966 0.0528937 0
   vertex -2.08616e-09 0.05 0
  endloop
 endfacet
 facet normal -0 0 -1
  outer loop
   vertex -2.08616e-09 0.06 0
   vertex 0.00958334 0.06 0
   vertex 0.00697966 0.0528937 0
  endloop
 endfacet
 facet normal -1 0 0
  outer loop
   vertex -2.08616e-09 2.55351e-17 0
   vertex -2.08616e-09 2.55351e-17 0.0065
   vertex -2.08616e-09 0.01 0
  endloop
 endfacet
 facet normal -2.22045e-16 -1 0
  outer loop
   vertex -2.08616e-09 2.55351e-17 0
   vertex 0.00958334 2.34072e-17 0
   vertex -2.08616e-09 2.55351e-17 0.0065
  endloop
 endfacet
 facet normal 0 0 -1
  outer loop
   vertex -2.08616e-09 2.55351e-17 0
   vertex -2.08616e-09 0.01 0
   vertex 0.00582985 0.00599492 0
  endloop
 endfacet
 facet normal 0 -0 -1
  outer loop
   vertex -2.08616e-09 2.55351e-17 0
   vertex 0.00582985 0.00599492 0
   vertex 0.00958334 2.34072e-17 0
  endloop
 endfacet
 facet normal -1 0 0
  outer loop
   vertex -2.08616e-09 0.06 0.013
   vertex -2.08616e-09 0.06 0.0065
   vertex -2.08616e-09 0.05 0.013
  endloop
 endfacet
 facet normal 0 1 0
  outer loop
   vertex -2.08616e-09 0.06 0.013
   vertex 0.00958334 0.06 0.013
   vertex -2.08616e-09 0.06 0.0065
  endloop
 endfacet
 facet normal 0 -0 1
  outer loop
   vertex -2.08616e-09 0.06 0.013
   vertex 0.00697966 0.0528937 0.013
   vertex 0.00958334 0.06 0.013
  endloop
 endfacet
 facet normal 0 0 1
  outer loop
   vertex -2.08616e-09 0.06 0.013
   vertex -2.08616e-09 0.05 0.013
   vertex 0.00697966 0.0528937 0.013
  endloop
 endfacet
 facet normal 1 -0 0
  outer loop
   vertex 0.115 0.06 0.013
   vertex 0.115 0.05 0.013
   vertex 0.115 0.06 0.0065
  endloop
 endfacet
 facet normal 0 1 -0
  outer loop
   vertex 0.115 0.06 0.013
   vertex 0.115 0.06 0.0065
   vertex 0.105417 0.06 0.013
  endloop
 endfacet
 facet normal -0 0 1
  outer loop
   vertex 0.115 0.06 0.013
   vertex 0.10917 0.0540051 0.013
   vertex 0.115 0.05 0.013
  endloop
 endfacet
 facet normal -0 0 1
  outer loop
   vertex 0.115 0.06 0.013
   vertex 0.105417 0.06 0.013
   vertex 0.10917 0.0540051 0.013
  endloop
 endfacet
 facet normal 1 0 0
  outer loop
   vertex 0.115 0 0.013
   vertex 0.115 0 0.0065
   vertex 0.115 0.01 0.013
  endloop
 endfacet
 facet normal -2.22044e-16 -1 0
  outer loop
   vertex 0.115 0 0.013
   vertex 0.105417 2.12793e-18 0.013
   vertex 0.115 0 0.0065
  endloop
 endfacet
 facet normal 0 0 1
  outer loop
   vertex 0.115 0 0.013
   vertex 0.115 0.01 0.013
   vertex 0.10917 0.00599492 0.013
  endloop
 endfacet
 facet normal 0 0 1
  outer loop
   vertex 0.115 0 0.013
   vertex 0.10917 0.00599492 0.013
   vertex 0.105417 2.12793e-18 0.013
  endloop
 endfacet
 facet normal -1 -0 0
  outer loop
   vertex -2.08616e-09 2.55351e-17 0.013
   vertex -2.08616e-09 0.01 0.013
   vertex -2.08616e-09 2.55351e-17 0.0065
  endloop
 endfacet
 facet normal -2.22045e-16 -1 0
  outer loop
   vertex -2.08616e-09 2.55351e-17 0.013
   vertex -2.08616e-09 2.55351e-17 0.0065
   vertex 0.00958334 2.34072e-17 0.013
  endloop
 endfacet
 facet normal 0 0 1
  outer loop
   vertex -2.08616e-09 2.55351e-17 0.013
   vertex 0.00582985 0.00599492 0.013
   vertex -2.08616e-09 0.01 0.013
  endloop
 endfacet
 facet normal 0 0 1
  outer loop
   vertex -2.08616e-09 2.55351e-17 0.013
   vertex 0.00958334 2.34072e-17 0.013
   vertex 0.00582985 0.00599492 0.013
  endloop
 endfacet
 facet normal -1 0 0
  outer loop
   vertex -2.08616e-09 0.01 0
   vertex -2.08616e-09 2.55351e-17 0.0065
   vertex -2.08616e-09 0.01 0.013
  endloop
 endfacet
 facet normal -1 0 0
  outer loop
   vertex -2.08616e-09 0.01 0
   vertex -2.08616e-09 0.01 0.013
   vertex -2.08616e-09 0.0170667 0.0065
  endloop
 endfacet
 facet normal -1 0 -0
  outer loop
   vertex -2.08616e-09 0.01 0
   vertex -2.08616e-09 0.0170667 0.0065
   vertex -2.08616e-09 0.02 0
  endloop
 endfacet
 facet normal 0 0 -1
  outer loop
   vertex -2.08616e-09 0.01 0
   vertex -2.08616e-09 0.02 0
   vertex 0.00532786 0.0152759 0
  endloop
 endfacet
 facet normal 0 -0 -1
  outer loop
   vertex -2.08616e-09 0.01 0
   vertex 0.00532786 0.0152759 0
   vertex 0.00582985 0.00599492 0
  endloop
 endfacet
 facet normal 0 0 -1
  outer loop
   vertex -2.08616e-09 0.02 0
   vertex 0.00944795 0.0210835 0
   vertex 0.00532786 0.0152759 0
  endloop
 endfacet
 facet normal 0 0 -1
  outer loop
   vertex -2.08616e-09 0.02 0
   vertex -2.08616e-09 0.03 0
   vertex 0.00944795 0.0210835 0
  endloop
 endfacet
 facet normal -1 0 0
  outer loop
   vertex -2.08616e-09 0.02 0
   vertex -2.08616e-09 0.0170667 0.0065
   vertex -2.08616e-09 0.0253333 0.0065
  endloop
 endfacet
 facet normal -1 0 -0
  outer loop
   vertex -2.08616e-09 0.02 0
   vertex -2.08616e-09 0.0253333 0.0065
   vertex -2.08616e-09 0.03 0
  endloop
 endfacet
 facet normal -0 0 -1
  outer loop
   vertex -2.08616e-09 0.03 0
   vertex 0.0127546 0.03 0
   vertex 0.00944795 0.0210835 0
  endloop
 endfacet
 facet normal 0 0 -1
  outer loop
   vertex -2.08616e-09 0.03 0
   vertex -2.08616e-09 0.04 0
   vertex 0.00954268 0.0387696 0
  endloop
 endfacet
 facet normal -1 0 0
  outer loop
   vertex -2.08616e-09 0.03 0
   vertex -2.08616e-09 0.0253333 0.0065
   vertex -2.08616e-09 0.0347222 0.0065
  endloop
 endfacet
 facet normal 0 -0 -1
  outer loop
   vertex -2.08616e-09 0.03 0
   vertex 0.00954268 0.0387696 0
   vertex 0.0127546 0.03 0
  endloop
 endfacet
 facet normal -1 0 -0
  outer loop
   vertex -2.08616e-09 0.03 0
   vertex -2.08616e-09 0.0347222 0.0065
   vertex -2.08616e-09 0.04 0
  endloop
 endfacet
 facet normal 0 0 -1
  outer loop
   vertex -2.08616e-09 0.04 0
   vertex -2.08616e-09 0.05 0
   vertex 0.00545671 0.0450164 0
  endloop
 endfacet
 facet normal -1 0 0
  outer loop
   vertex -2.08616e-09 0.04 0
   vertex -2.08616e-09 0.0347222 0.0065
   vertex -2.08616e-09 0.0429444 0.0065
  endloop
 endfacet
 facet normal 0 -0 -1
  outer loop
   vertex -2.08616e-09 0.04 0
   vertex 0.00545671 0.0450164 0
   vertex 0.00954268 0.0387696 0
  endloop
 endfacet
 facet normal -1 0 -0
  outer loop
   vertex -2.08616e-09 0.04 0
   vertex -2.08616e-09 0.0429444 0.0065
   vertex -2.08616e-09 0.05 0
  endloop
 endfacet
 facet normal 0 0 -1
  outer loop
   vertex -2.08616e-09 0.05 0
   vertex 0.00697966 0.0528937 0
   vertex 0.00545671 0.0450164 0
  endloop
 endfacet
 facet normal -1 0 0
  outer loop
   vertex -2.08616e-09 0.05 0
   vertex -2.08616e-09 0.0429444 0.0065
   vertex -2.08616e-09 0.05 0.013
  endloop
 endfacet
 facet normal -1 0 0
  outer loop
   vertex -2.08616e-09 0.05 0
   vertex -2.08616e-09 0.05 0.013
   vertex -2.08616e-09 0.06 0.0065
  endloop
 endfacet
 facet normal -0 0 -1
  outer loop
   vertex 0.00958334 0.06 0
   vertex 0.0191667 0.06 0
   vertex 0.014375 0.055067 0
  endloop
 endfacet
 facet normal -0 1 0
  outer loop
   vertex 0.00958334 0.06 0
   vertex -2.08616e-09 0.06 0.0065
   vertex 0.00958334 0.06 0.013
  endloop
 endfacet
 facet normal -0 0 -1
  outer loop
   vertex 0.00958334 0.06 0
   vertex 0.014375 0.055067 0
   vertex 0.00697966 0.0528937 0
  endloop
 endfacet
 facet normal 0 1 0
  outer loop
   vertex 0.00958334 0.06 0
   vertex 0.00958334 0.06 0.013
   vertex 0.0162917 0.06 0.0065
  endloop
 endfacet
 facet normal 0 1 0
  outer loop
   vertex 0.00958334 0.06 0
   vertex 0.0162917 0.06 0.0065
   vertex 0.0191667 0.06 0
  endloop
 endfacet
 facet normal 0 1 0
  outer loop
   vertex 0.0191667 0.06 0
   vertex 0.0239583 0.06 0.0065
   vertex 0.02875 0.06 0
  endloop
 endfacet
 facet normal -0 1 0
  outer loop
   vertex 0.0191667 0.06 0
   vertex 0.0162917 0.06 0.0065
   vertex 0.0239583 0.06 0.0065
  endloop
 endfacet
 facet normal 0 0 -1
  outer loop
   vertex 0.0191667 0.06 0
   vertex 0.0223865 0.0520594 0
   vertex 0.014375 0.055067 0
  endloop
 endfacet
 facet normal -0 0 -1
  outer loop
   vertex 0.0191667 0.06 0
   vertex 0.02875 0.06 0
   vertex 0.0223865 0.0520594 0
  endloop
 endfacet
 facet normal -0 0 -1
  outer loop
   vertex 0.02875 0.06 0
   vertex 0.0317443 0.0538025 0
   vertex 0.0223865 0.0520594 0
  endloop
 endfacet
 facet normal -0 0 -1
  outer loop
   vertex 0.02875 0.06 0
   vertex 0.0383333 0.06 0
   vertex 0.0317443 0.0538025 0
  endloop
 endfacet
 facet normal 0 1 0
  outer loop
   vertex 0.02875 0.06 0
   vertex 0.0335417 0.06 0.0065
   vertex 0.0383333 0.06 0
  endloop
 endfacet
 facet normal -0 1 0
  outer loop
   vertex 0.02875 0.06 0
   vertex 0.0239583 0.06 0.0065
   vertex 0.0335417 0.06 0.0065
  endloop
 endfacet
 facet normal -0 1 0
  outer loop
   vertex 0.0383333 0.06 0
   vertex 0.0335417 0.06 0.0065
   vertex 0.043125 0.06 0.0065
  endloop
 endfacet
 facet normal -0 0 -1
  outer loop
   vertex 0.0383333 0.06 0
   vertex 0.0445081 0.0539398 0
   vertex 0.0378102 0.0514099 0
  endloop
 endfacet
 facet normal 0 0 -1
  outer loop
   vertex 0.0383333 0.06 0
   vertex 0.0378102 0.0514099 0
   vertex 0.0317443 0.0538025 0
  endloop
 endfacet
 facet normal -0 0 -1
  outer loop
   vertex 0.0383333 0.06 0
   vertex 0.0479167 0.06 0
   vertex 0.0445081 0.0539398 0
  endloop
 endfacet
 facet normal 0 1 0
  outer loop
   vertex 0.0383333 0.06 0
   vertex 0.043125 0.06 0.0065
   vertex 0.0479167 0.06 0
  endloop
 endfacet
 facet normal 0 1 0
  outer loop
   vertex 0.0479167 0.06 0
   vertex 0.0527083 0.06 0.0065
   vertex 0.0575 0.06 0
  endloop
 endfacet
 facet normal -0 0 -1
  outer loop
   vertex 0.0479167 0.06 0
   vertex 0.0575 0.06 0
   vertex 0.0523931 0.051401 0
  endloop
 endfacet
 facet normal 0 0 -1
  outer loop
   vertex 0.0479167 0.06 0
   vertex 0.0523931 0.051401 0
   vertex 0.0445081 0.0539398 0
  endloop
 endfacet
 facet normal -0 1 0
  outer loop
   vertex 0.0479167 0.06 0
   vertex 0.043125 0.06 0.0065
   vertex 0.0527083 0.06 0.0065
  endloop
 endfacet
 facet normal -0 0 -1
  outer loop
   vertex 0.0575 0.06 0
   vertex 0.0613807 0.0539553 0
   vertex 0.0523931 0.051401 0
  endloop
 endfacet
 facet normal -0 1 0
  outer loop
   vertex 0.0575 0.06 0
   vertex 0.0527083 0.06 0.0065
   vertex 0.0622917 0.06 0.0065
  endloop
 endfacet
 facet normal -0 0 -1
  outer loop
   vertex 0.0575 0.06 0
   vertex 0.0670833 0.06 0
   vertex 0.0613807 0.0539553 0
  endloop
 endfacet
 facet normal 0 1 0
  outer loop
   vertex 0.0575 0.06 0
   vertex 0.0622917 0.06 0.0065
   vertex 0.0670833 0.06 0
  endloop
 endfacet
 facet normal -0 1 0
  outer loop
   vertex 0.0670833 0.06 0
   vertex 0.0622917 0.06 0.0065
   vertex 0.071875 0.06 0.0065
  endloop
 endfacet
 facet normal 0 0 -1
  outer loop
   vertex 0.0670833 0.06 0
   vertex 0.0691715 0.0525577 0
   vertex 0.0613807 0.0539553 0
  endloop
 endfacet
 facet normal -0 0 -1
  outer loop
   vertex 0.0670833 0.06 0
   vertex 0.0766667 0.06 0
   vertex 0.0691715 0.0525577 0
  endloop
 endfacet
 facet normal 0 1 0
  outer loop
   vertex 0.0670833 0.06 0
   vertex 0.071875 0.06 0.0065
   vertex 0.0766667 0.06 0
  endloop
 endfacet
 facet normal -0 1 0
  outer loop
   vertex 0.0766667 0.06 0
   vertex 0.071875 0.06 0.0065
   vertex 0.0814583 0.06 0.0065
  endloop
 endfacet
 facet normal -0 0 -1
  outer loop
   vertex 0.0766667 0.06 0
   vertex 0.0833123 0.0536777 0
   vertex 0.0768831 0.0512017 0
  endloop
 endfacet
 facet normal -0 0 -1
  outer loop
   vertex 0.0766667 0.06 0
   vertex 0.08625 0.06 0
   vertex 0.0833123 0.0536777 0
  endloop
 endfacet
 facet normal 0 0 -1
  outer loop
   vertex 0.0766667 0.06 0
   vertex 0.0768831 0.0512017 0
   vertex 0.0691715 0.0525577 0
  endloop
 endfacet
 facet normal 0 1 0
  outer loop
   vertex 0.0766667 0.06 0
   vertex 0.0814583 0.06 0.0065
   vertex 0.08625 0.06 0
  endloop
 endfacet
 facet normal -0 0 -1
  outer loop
   vertex 0.08625 0.06 0
   vertex 0.0958333 0.06 0
   vertex 0.0923654 0.050387 0
  endloop
 endfacet
 facet normal 0 1 0
  outer loop
   vertex 0.08625 0.06 0
   vertex 0.0911748 0.06 0.00631944
   vertex 0.0958333 0.06 0
  endloop
 endfacet
 facet normal 0 1 0
  outer loop
   vertex 0.08625 0.06 0
   vertex 0.0814583 0.06 0.0065
   vertex 0.0911748 0.06 0.00631944
  endloop
 endfacet
 facet normal 0 0 -1
  outer loop
   vertex 0.08625 0.06 0
   vertex 0.0923654 0.050387 0
   vertex 0.0833123 0.0536777 0
  endloop
 endfacet
 facet normal -0 0 -1
  outer loop
   vertex 0.0958333 0.06 0
   vertex 0.105417 0.06 0
   vertex 0.100766 0.0549033 0
  endloop
 endfacet
 facet normal 0 1 0
  outer loop
   vertex 0.0958333 0.06 0
   vertex 0.0911748 0.06 0.00631944
   vertex 0.101446 0.06 0.00538657
  endloop
 endfacet
 facet normal 0 1 0
  outer loop
   vertex 0.0958333 0.06 0
   vertex 0.101446 0.06 0.00538657
   vertex 0.105417 0.06 0
  endloop
 endfacet
 facet normal -0 0 -1
  outer loop
   vertex 0.0958333 0.06 0
   vertex 0.100766 0.0549033 0
   vertex 0.0923654 0.050387 0
  endloop
 endfacet
 facet normal 0 1 0
  outer loop
   vertex 0.105417 0.06 0
   vertex 0.105417 0.06 0.013
   vertex 0.115 0.06 0.0065
  endloop
 endfacet
 facet normal 0 0 -1
  outer loop
   vertex 0.105417 0.06 0
   vertex 0.10917 0.0540051 0
   vertex 0.100766 0.0549033 0
  endloop
 endfacet
 facet normal -0 1 0
  outer loop
   vertex 0.105417 0.06 0
   vertex 0.101446 0.06 0.00538657
   vertex 0.105417 0.06 0.013
  endloop
 endfacet
 facet normal 1 0 0
  outer loop
   vertex 0.115 0.05 0
   vertex 0.115 0.05 0.013
   vertex 0.115 0.0458565 0.00538657
  endloop
 endfacet
 facet normal 0 0 -1
  outer loop
   vertex 0.115 0.05 0
   vertex 0.115 0.04 0
   vertex 0.10967 0.0450917 0
  endloop
 endfacet
 facet normal 1 0 0
  outer loop
   vertex 0.115 0.05 0
   vertex 0.115 0.06 0.0065
   vertex 0.115 0.05 0.013
  endloop
 endfacet
 facet normal 0 0 -1
  outer loop
   vertex 0.115 0.05 0
   vertex 0.10967 0.0450917 0
   vertex 0.10917 0.0540051 0
  endloop
 endfacet
 facet normal 1 0 0
  outer loop
   vertex 0.115 0.05 0
   vertex 0.115 0.0458565 0.00538657
   vertex 0.115 0.04 0
  endloop
 endfacet
 facet normal 1 0 0
  outer loop
   vertex 0.115 0.04 0
   vertex 0.115 0.0458565 0.00538657
   vertex 0.115 0.0351389 0.00631944
  endloop
 endfacet
 facet normal 0 0 -1
  outer loop
   vertex 0.115 0.04 0
   vertex 0.106093 0.0388776 0
   vertex 0.10967 0.0450917 0
  endloop
 endfacet
 facet normal 0 0 -1
  outer loop
   vertex 0.115 0.04 0
   vertex 0.115 0.03 0
   vertex 0.106093 0.0388776 0
  endloop
 endfacet
 facet normal 1 0 0
  outer loop
   vertex 0.115 0.04 0
   vertex 0.115 0.0351389 0.00631944
   vertex 0.115 0.03 0
  endloop
 endfacet
 facet normal 1 0 0
  outer loop
   vertex 0.115 0.03 0
   vertex 0.115 0.0351389 0.00631944
   vertex 0.115 0.0253565 0.00646991
  endloop
 endfacet
 facet normal 0 0 -1
  outer loop
   vertex 0.115 0.03 0
   vertex 0.102245 0.03 0
   vertex 0.106093 0.0388776 0
  endloop
 endfacet
 facet normal 0 0 -1
  outer loop
   vertex 0.115 0.03 0
   vertex 0.105568 0.0212858 0
   vertex 0.102245 0.03 0
  endloop
 endfacet
 facet normal 0 0 -1
  outer loop
   vertex 0.115 0.03 0
   vertex 0.115 0.02 0
   vertex 0.105568 0.0212858 0
  endloop
 endfacet
 facet normal 1 0 0
  outer loop
   vertex 0.115 0.03 0
   vertex 0.115 0.0253565 0.00646991
   vertex 0.115 0.02 0
  endloop
 endfacet
 facet normal 1 0 0
  outer loop
   vertex 0.115 0.02 0
   vertex 0.115 0.0253565 0.00646991
   vertex 0.115 0.0170713 0.00649398
  endloop
 endfacet
 facet normal 0 0 -1
  outer loop
   vertex 0.115 0.02 0
   vertex 0.109672 0.0152759 0
   vertex 0.105568 0.0212858 0
  endloop
 endfacet
 facet normal 0 0 -1
  outer loop
   vertex 0.115 0.02 0
   vertex 0.115 0.01 0
   vertex 0.109672 0.0152759 0
  endloop
 endfacet
 facet normal 1 0 0
  outer loop
   vertex 0.115 0.02 0
   vertex 0.115 0.0170713 0.00649398
   vertex 0.115 0.01 0
  endloop
 endfacet
 facet normal 0 0 -1
  outer loop
   vertex 0.115 0.01 0
   vertex 0.10917 0.00599492 0
   vertex 0.109672 0.0152759 0
  endloop
 endfacet
 facet normal 1 0 0
  outer loop
   vertex 0.115 0.01 0
   vertex 0.115 0.0170713 0.00649398
   vertex 0.115 0.01 0.013
  endloop
 endfacet
 facet normal 1 0 0
  outer loop
   vertex 0.115 0.01 0
   vertex 0.115 0.01 0.013
   vertex 0.115 0 0.0065
  endloop
 endfacet
 facet normal 0 0 -1
  outer loop
   vertex 0.105417 2.12793e-18 0
   vertex 0.104064 0.0108888 0
   vertex 0.10917 0.00599492 0
  endloop
 endfacet
 facet normal 0 0 -1
  outer loop
   vertex 0.105417 2.12793e-18 0
   vertex 0.0977555 0.00710193 0
   vertex 0.104064 0.0108888 0
  endloop
 endfacet
 facet normal -2.22044e-16 -1 0
  outer loop
   vertex 0.105417 2.12793e-18 0
   vertex 0.115 0 0.0065
   vertex 0.105417 2.12793e-18 0.013
  endloop
 endfacet
 facet normal 0 0 -1
  outer loop
   vertex 0.105417 2.12793e-18 0
   vertex 0.0958333 4.25586e-18 0
   vertex 0.0977555 0.00710193 0
  endloop
 endfacet
 facet normal -2.22045e-16 -1 -0
  outer loop
   vertex 0.105417 2.12793e-18 0
   vertex 0.105417 2.12793e-18 0.013
   vertex 0.0987083 3.61748e-18 0.0065
  endloop
 endfacet
 facet normal -2.22045e-16 -1 1.90888e-23
  outer loop
   vertex 0.105417 2.12793e-18 0
   vertex 0.0987083 3.61748e-18 0.0065
   vertex 0.0958333 4.25586e-18 0
  endloop
 endfacet
 facet normal -2.22045e-16 -1 9.54439e-23
  outer loop
   vertex 0.0958333 4.25586e-18 0
   vertex 0.0910417 5.31982e-18 0.0065
   vertex 0.08625 6.38378e-18 0
  endloop
 endfacet
 facet normal 0 0 -1
  outer loop
   vertex 0.0958333 4.25586e-18 0
   vertex 0.0908339 0.00959667 0
   vertex 0.0977555 0.00710193 0
  endloop
 endfacet
 facet normal 0 0 -1
  outer loop
   vertex 0.0958333 4.25586e-18 0
   vertex 0.08625 6.38378e-18 0
   vertex 0.0908339 0.00959667 0
  endloop
 endfacet
 facet normal -2.22045e-16 -1 4.7722e-23
  outer loop
   vertex 0.0958333 4.25586e-18 0
   vertex 0.0987083 3.61748e-18 0.0065
   vertex 0.0910417 5.31982e-18 0.0065
  endloop
 endfacet
 facet normal 0 0 -1
  outer loop
   vertex 0.08625 6.38378e-18 0
   vertex 0.0814583 0.00652329 0
   vertex 0.0908339 0.00959667 0
  endloop
 endfacet
 facet normal 0 0 -1
  outer loop
   vertex 0.08625 6.38378e-18 0
   vertex 0.0766667 8.51171e-18 0
   vertex 0.0814583 0.00652329 0
  endloop
 endfacet
 facet normal -2.22045e-16 -1 -9.54439e-23
  outer loop
   vertex 0.08625 6.38378e-18 0
   vertex 0.0814583 7.44775e-18 0.0065
   vertex 0.0766667 8.51171e-18 0
  endloop
 endfacet
 facet normal -2.22045e-16 -1 0
  outer loop
   vertex 0.08625 6.38378e-18 0
   vertex 0.0910417 5.31982e-18 0.0065
   vertex 0.0814583 7.44775e-18 0.0065
  endloop
 endfacet
 facet normal 0 0 -1
  outer loop
   vertex 0.0766667 8.51171e-18 0
   vertex 0.0729323 0.00965352 0
   vertex 0.0814583 0.00652329 0
  endloop
 endfacet
 facet normal 0 0 -1
  outer loop
   vertex 0.0766667 8.51171e-18 0
   vertex 0.0670833 1.06396e-17 0
   vertex 0.0729323 0.00965352 0
  endloop
 endfacet
 facet normal -2.22045e-16 -1 -1.27259e-22
  outer loop
   vertex 0.0766667 8.51171e-18 0
   vertex 0.0814583 7.44775e-18 0.0065
   vertex 0.071875 9.57567e-18 0.0065
  endloop
 endfacet
 facet normal -2.22045e-16 -1 -1.27259e-22
  outer loop
   vertex 0.0766667 8.51171e-18 0
   vertex 0.071875 9.57567e-18 0.0065
   vertex 0.0670833 1.06396e-17 0
  endloop
 endfacet
 facet normal 0 0 -1
  outer loop
   vertex 0.0670833 1.06396e-17 0
   vertex 0.0640022 0.00796169 0
   vertex 0.0729323 0.00965352 0
  endloop
 endfacet
 facet normal 0 0 -1
  outer loop
   vertex 0.0670833 1.06396e-17 0
   vertex 0.0575 1.27676e-17 0
   vertex 0.0640022 0.00796169 0
  endloop
 endfacet
 facet normal -2.22045e-16 -1 -1.27259e-22
  outer loop
   vertex 0.0670833 1.06396e-17 0
   vertex 0.071875 9.57567e-18 0.0065
   vertex 0.0622917 1.17036e-17 0.0065
  endloop
 endfacet
 facet normal -2.22045e-16 -1 -6.36293e-23
  outer loop
   vertex 0.0670833 1.06396e-17 0
   vertex 0.0622917 1.17036e-17 0.0065
   vertex 0.0575 1.27676e-17 0
  endloop
 endfacet
 facet normal 0 0 -1
  outer loop
   vertex 0.0575 1.27676e-17 0
   vertex 0.0502257 0.00769521 0
   vertex 0.0569366 0.0112009 0
  endloop
 endfacet
 facet normal -2.22045e-16 -1 0
  outer loop
   vertex 0.0575 1.27676e-17 0
   vertex 0.0527083 1.38315e-17 0.0065
   vertex 0.0479167 1.48955e-17 0
  endloop
 endfacet
 facet normal 0 0 -1
  outer loop
   vertex 0.0575 1.27676e-17 0
   vertex 0.0569366 0.0112009 0
   vertex 0.0640022 0.00796169 0
  endloop
 endfacet
 facet normal 0 0 -1
  outer loop
   vertex 0.0575 1.27676e-17 0
   vertex 0.0479167 1.48955e-17 0
   vertex 0.0502257 0.00769521 0
  endloop
 endfacet
 facet normal -2.22045e-16 -1 0
  outer loop
   vertex 0.0575 1.27676e-17 0
   vertex 0.0622917 1.17036e-17 0.0065
   vertex 0.0527083 1.38315e-17 0.0065
  endloop
 endfacet
 facet normal 0 0 -1
  outer loop
   vertex 0.0479167 1.48955e-17 0
   vertex 0.0383333 1.70234e-17 0
   vertex 0.0417398 0.0100044 0
  endloop
 endfacet
 facet normal 0 0 -1
  outer loop
   vertex 0.0479167 1.48955e-17 0
   vertex 0.0417398 0.0100044 0
   vertex 0.0502257 0.00769521 0
  endloop
 endfacet
 facet normal -2.22045e-16 -1 0
  outer loop
   vertex 0.0479167 1.48955e-17 0
   vertex 0.0527083 1.38315e-17 0.0065
   vertex 0.043125 1.59595e-17 0.0065
  endloop
 endfacet
 facet normal -2.22045e-16 -1 0
  outer loop
   vertex 0.0479167 1.48955e-17 0
   vertex 0.043125 1.59595e-17 0.0065
   vertex 0.0383333 1.70234e-17 0
  endloop
 endfacet
 facet normal 0 0 -1
  outer loop
   vertex 0.0383333 1.70234e-17 0
   vertex 0.02875 1.91513e-17 0
   vertex 0.0334535 0.00651926 0
  endloop
 endfacet
 facet normal -2.22045e-16 -1 0
  outer loop
   vertex 0.0383333 1.70234e-17 0
   vertex 0.043125 1.59595e-17 0.0065
   vertex 0.0335417 1.80874e-17 0.0065
  endloop
 endfacet
 facet normal 0 0 -1
  outer loop
   vertex 0.0383333 1.70234e-17 0
   vertex 0.0334535 0.00651926 0
   vertex 0.0417398 0.0100044 0
  endloop
 endfacet
 facet normal -2.22045e-16 -1 -3.18146e-23
  outer loop
   vertex 0.0383333 1.70234e-17 0
   vertex 0.0335417 1.80874e-17 0.0065
   vertex 0.02875 1.91513e-17 0
  endloop
 endfacet
 facet normal -2.22045e-16 -1 -3.07176e-23
  outer loop
   vertex 0.02875 1.91513e-17 0
   vertex 0.0335417 1.80874e-17 0.0065
   vertex 0.0242778 2.01444e-17 0.0065
  endloop
 endfacet
 facet normal 0 0 -1
  outer loop
   vertex 0.02875 1.91513e-17 0
   vertex 0.0246119 0.00900721 0
   vertex 0.0334535 0.00651926 0
  endloop
 endfacet
 facet normal -2.22045e-16 -1 0
  outer loop
   vertex 0.02875 1.91513e-17 0
   vertex 0.0242778 2.01444e-17 0.0065
   vertex 0.0191667 2.12793e-17 0
  endloop
 endfacet
 facet normal 0 0 -1
  outer loop
   vertex 0.02875 1.91513e-17 0
   vertex 0.0191667 2.12793e-17 0
   vertex 0.0246119 0.00900721 0
  endloop
 endfacet
 facet normal 0 0 -1
  outer loop
   vertex 0.0191667 2.12793e-17 0
   vertex 0.0170913 0.0069861 0
   vertex 0.0246119 0.00900721 0
  endloop
 endfacet
 facet normal 0 0 -1
  outer loop
   vertex 0.0191667 2.12793e-17 0
   vertex 0.00958334 2.34072e-17 0
   vertex 0.0170913 0.0069861 0
  endloop
 endfacet
 facet normal -2.22045e-16 -1 0
  outer loop
   vertex 0.0191667 2.12793e-17 0
   vertex 0.0242778 2.01444e-17 0.0065
   vertex 0.0163556 2.19035e-17 0.0065
  endloop
 endfacet
 facet normal -2.22045e-16 -1 0
  outer loop
   vertex 0.0191667 2.12793e-17 0
   vertex 0.0163556 2.19035e-17 0.0065
   vertex 0.00958334 2.34072e-17 0
  endloop
 endfacet
 facet normal 0 -0 -1
  outer loop
   vertex 0.00958334 2.34072e-17 0
   vertex 0.0109365 0.0108888 0
   vertex 0.0170913 0.0069861 0
  endloop
 endfacet
 facet normal -2.22045e-16 -1 0
  outer loop
   vertex 0.00958334 2.34072e-17 0
   vertex 0.0163556 2.19035e-17 0.0065
   vertex 0.00958334 2.34072e-17 0.013
  endloop
 endfacet
 facet normal 0 0 -1
  outer loop
   vertex 0.00958334 2.34072e-17 0
   vertex 0.00582985 0.00599492 0
   vertex 0.0109365 0.0108888 0
  endloop
 endfacet
 facet normal -2.22045e-16 -1 -0
  outer loop
   vertex 0.00958334 2.34072e-17 0
   vertex 0.00958334 2.34072e-17 0.013
   vertex -2.08616e-09 2.55351e-17 0.0065
  endloop
 endfacet
 facet normal 0 1 0
  outer loop
   vertex 0.00958334 0.06 0.013
   vertex 0.0191667 0.06 0.013
   vertex 0.0162917 0.06 0.0065
  endloop
 endfacet
 facet normal 0 -0 1
  outer loop
   vertex 0.00958334 0.06 0.013
   vertex 0.014375 0.055067 0.013
   vertex 0.0191667 0.06 0.013
  endloop
 endfacet
 facet normal 0 0 1
  outer loop
   vertex 0.00958334 0.06 0.013
   vertex 0.00697966 0.0528937 0.013
   vertex 0.014375 0.055067 0.013
  endloop
 endfacet
 facet normal 0 1 0
  outer loop
   vertex 0.0191667 0.06 0.013
   vertex 0.0239583 0.06 0.0065
   vertex 0.0162917 0.06 0.0065
  endloop
 endfacet
 facet normal 0 1 0
  outer loop
   vertex 0.0191667 0.06 0.013
   vertex 0.02875 0.06 0.013
   vertex 0.0239583 0.06 0.0065
  endloop
 endfacet
 facet normal -0 0 1
  outer loop
   vertex 0.0191667 0.06 0.013
   vertex 0.014375 0.055067 0.013
   vertex 0.0223865 0.0520594 0.013
  endloop
 endfacet
 facet normal 0 -0 1
  outer loop
   vertex 0.0191667 0.06 0.013
   vertex 0.0223865 0.0520594 0.013
   vertex 0.02875 0.06 0.013
  endloop
 endfacet
 facet normal 0 1 0
  outer loop
   vertex 0.02875 0.06 0.013
   vertex 0.0383333 0.06 0.013
   vertex 0.0335417 0.06 0.0065
  endloop
 endfacet
 facet normal 0 -0 1
  outer loop
   vertex 0.02875 0.06 0.013
   vertex 0.0317443 0.0538025 0.013
   vertex 0.0383333 0.06 0.013
  endloop
 endfacet
 facet normal 0 1 0
  outer loop
   vertex 0.02875 0.06 0.013
   vertex 0.0335417 0.06 0.0065
   vertex 0.0239583 0.06 0.0065
  endloop
 endfacet
 facet normal 0 0 1
  outer loop
   vertex 0.02875 0.06 0.013
   vertex 0.0223865 0.0520594 0.013
   vertex 0.0317443 0.0538025 0.013
  endloop
 endfacet
 facet normal 0 1 0
  outer loop
   vertex 0.0383333 0.06 0.013
   vertex 0.043125 0.06 0.0065
   vertex 0.0335417 0.06 0.0065
  endloop
 endfacet
 facet normal 0 1 0
  outer loop
   vertex 0.0383333 0.06 0.013
   vertex 0.0479167 0.06 0.013
   vertex 0.043125 0.06 0.0065
  endloop
 endfacet
 facet normal -0 0 1
  outer loop
   vertex 0.0383333 0.06 0.013
   vertex 0.0317443 0.0538025 0.013
   vertex 0.0378102 0.0514099 0.013
  endloop
 endfacet
 facet normal 0 0 1
  outer loop
   vertex 0.0383333 0.06 0.013
   vertex 0.0378102 0.0514099 0.013
   vertex 0.0445081 0.0539398 0.013
  endloop
 endfacet
 facet normal 0 -0 1
  outer loop
   vertex 0.0383333 0.06 0.013
   vertex 0.0445081 0.0539398 0.013
   vertex 0.0479167 0.06 0.013
  endloop
 endfacet
 facet normal 0 1 0
  outer loop
   vertex 0.0479167 0.06 0.013
   vertex 0.0575 0.06 0.013
   vertex 0.0527083 0.06 0.0065
  endloop
 endfacet
 facet normal 0 1 0
  outer loop
   vertex 0.0479167 0.06 0.013
   vertex 0.0527083 0.06 0.0065
   vertex 0.043125 0.06 0.0065
  endloop
 endfacet
 facet normal 0 -0 1
  outer loop
   vertex 0.0479167 0.06 0.013
   vertex 0.0523931 0.051401 0.013
   vertex 0.0575 0.06 0.013
  endloop
 endfacet
 facet normal -0 0 1
  outer loop
   vertex 0.0479167 0.06 0.013
   vertex 0.0445081 0.0539398 0.013
   vertex 0.0523931 0.051401 0.013
  endloop
 endfacet
 facet normal 0 1 0
  outer loop
   vertex 0.0575 0.06 0.013
   vertex 0.0670833 0.06 0.013
   vertex 0.0622917 0.06 0.0065
  endloop
 endfacet
 facet normal 0 1 0
  outer loop
   vertex 0.0575 0.06 0.013
   vertex 0.0622917 0.06 0.0065
   vertex 0.0527083 0.06 0.0065
  endloop
 endfacet
 facet normal 0 -0 1
  outer loop
   vertex 0.0575 0.06 0.013
   vertex 0.0613807 0.0539553 0.013
   vertex 0.0670833 0.06 0.013
  endloop
 endfacet
 facet normal 0 0 1
  outer loop
   vertex 0.0575 0.06 0.013
   vertex 0.0523931 0.051401 0.013
   vertex 0.0613807 0.0539553 0.013
  endloop
 endfacet
 facet normal 0 1 0
  outer loop
   vertex 0.0670833 0.06 0.013
   vertex 0.0766667 0.06 0.013
   vertex 0.071875 0.06 0.0065
  endloop
 endfacet
 facet normal 0 1 0
  outer loop
   vertex 0.0670833 0.06 0.013
   vertex 0.071875 0.06 0.0065
   vertex 0.0622917 0.06 0.0065
  endloop
 endfacet
 facet normal 0 -0 1
  outer loop
   vertex 0.0670833 0.06 0.013
   vertex 0.0691715 0.0525577 0.013
   vertex 0.0766667 0.06 0.013
  endloop
 endfacet
 facet normal -0 0 1
  outer loop
   vertex 0.0670833 0.06 0.013
   vertex 0.0613807 0.0539553 0.013
   vertex 0.0691715 0.0525577 0.013
  endloop
 endfacet
 facet normal 0 1 0
  outer loop
   vertex 0.0766667 0.06 0.013
   vertex 0.08625 0.06 0.013
   vertex 0.0814583 0.06 0.0065
  endloop
 endfacet
 facet normal 0 -0 1
  outer loop
   vertex 0.0766667 0.06 0.013
   vertex 0.0768831 0.0512017 0.013
   vertex 0.0833123 0.0536777 0.013
  endloop
 endfacet
 facet normal 0 -0 1
  outer loop
   vertex 0.0766667 0.06 0.013
   vertex 0.0833123 0.0536777 0.013
   vertex 0.08625 0.06 0.013
  endloop
 endfacet
 facet normal -0 0 1
  outer loop
   vertex 0.0766667 0.06 0.013
   vertex 0.0691715 0.0525577 0.013
   vertex 0.0768831 0.0512017 0.013
  endloop
 endfacet
 facet normal 0 1 0
  outer loop
   vertex 0.0766667 0.06 0.013
   vertex 0.0814583 0.06 0.0065
   vertex 0.071875 0.06 0.0065
  endloop
 endfacet
 facet normal -0 0 1
  outer loop
   vertex 0.08625 0.06 0.013
   vertex 0.0833123 0.0536777 0.013
   vertex 0.0923654 0.050387 0.013
  endloop
 endfacet
 facet normal 0 1 0
  outer loop
   vertex 0.08625 0.06 0.013
   vertex 0.0958333 0.06 0.013
   vertex 0.0911748 0.06 0.00631944
  endloop
 endfacet
 facet normal 0 -0 1
  outer loop
   vertex 0.08625 0.06 0.013
   vertex 0.0923654 0.050387 0.013
   vertex 0.0958333 0.06 0.013
  endloop
 endfacet
 facet normal 0 1 0
  outer loop
   vertex 0.08625 0.06 0.013
   vertex 0.0911748 0.06 0.00631944
   vertex 0.0814583 0.06 0.0065
  endloop
 endfacet
 facet normal 0 1 0
  outer loop
   vertex 0.0958333 0.06 0.013
   vertex 0.101446 0.06 0.00538657
   vertex 0.0911748 0.06 0.00631944
  endloop
 endfacet
 facet normal 0 1 0
  outer loop
   vertex 0.0958333 0.06 0.013
   vertex 0.105417 0.06 0.013
   vertex 0.101446 0.06 0.00538657
  endloop
 endfacet
 facet normal 0 -0 1
  outer loop
   vertex 0.0958333 0.06 0.013
   vertex 0.100766 0.0549033 0.013
   vertex 0.105417 0.06 0.013
  endloop
 endfacet
 facet normal 0 0 1
  outer loop
   vertex 0.0958333 0.06 0.013
   vertex 0.0923654 0.050387 0.013
   vertex 0.100766 0.0549033 0.013
  endloop
 endfacet
 facet normal -0 0 1
  outer loop
   vertex 0.105417 0.06 0.013
   vertex 0.100766 0.0549033 0.013
   vertex 0.10917 0.0540051 0.013
  endloop
 endfacet
 facet normal 1 -0 0
  outer loop
   vertex 0.115 0.05 0.013
   vertex 0.115 0.04 0.013
   vertex 0.115 0.0458565 0.00538657
  endloop
 endfacet
 facet normal 0 0 1
  outer loop
   vertex 0.115 0.05 0.013
   vertex 0.10917 0.0540051 0.013
   vertex 0.10967 0.0450917 0.013
  endloop
 endfacet
 facet normal -0 0 1
  outer loop
   vertex 0.115 0.05 0.013
   vertex 0.10967 0.0450917 0.013
   vertex 0.115 0.04 0.013
  endloop
 endfacet
 facet normal 1 -0 0
  outer loop
   vertex 0.115 0.04 0.013
   vertex 0.115 0.0351389 0.00631944
   vertex 0.115 0.0458565 0.00538657
  endloop
 endfacet
 facet normal 1 -0 0
  outer loop
   vertex 0.115 0.04 0.013
   vertex 0.115 0.03 0.013
   vertex 0.115 0.0351389 0.00631944
  endloop
 endfacet
 facet normal 0 0 1
  outer loop
   vertex 0.115 0.04 0.013
   vertex 0.10967 0.0450917 0.013
   vertex 0.106093 0.0388776 0.013
  endloop
 endfacet
 facet normal -0 0 1
  outer loop
   vertex 0.115 0.04 0.013
   vertex 0.106093 0.0388776 0.013
   vertex 0.115 0.03 0.013
  endloop
 endfacet
 facet normal 1 -0 0
  outer loop
   vertex 0.115 0.03 0.013
   vertex 0.115 0.0253565 0.00646991
   vertex 0.115 0.0351389 0.00631944
  endloop
 endfacet
 facet normal 1 -0 0
  outer loop
   vertex 0.115 0.03 0.013
   vertex 0.115 0.02 0.013
   vertex 0.115 0.0253565 0.00646991
  endloop
 endfacet
 facet normal -0 0 1
  outer loop
   vertex 0.115 0.03 0.013
   vertex 0.102245 0.03 0.013
   vertex 0.105568 0.0212858 0.013
  endloop
 endfacet
 facet normal -0 0 1
  outer loop
   vertex 0.115 0.03 0.013
   vertex 0.105568 0.0212858 0.013
   vertex 0.115 0.02 0.013
  endloop
 endfacet
 facet normal 0 0 1
  outer loop
   vertex 0.115 0.03 0.013
   vertex 0.106093 0.0388776 0.013
   vertex 0.102245 0.03 0.013
  endloop
 endfacet
 facet normal -0 0 1
  outer loop
   vertex 0.115 0.02 0.013
   vertex 0.109672 0.0152759 0.013
   vertex 0.115 0.01 0.013
  endloop
 endfacet
 facet normal 0 0 1
  outer loop
   vertex 0.115 0.02 0.013
   vertex 0.105568 0.0212858 0.013
   vertex 0.109672 0.0152759 0.013
  endloop
 endfacet
 facet normal 1 -0 0
  outer loop
   vertex 0.115 0.02 0.013
   vertex 0.115 0.0170713 0.00649398
   vertex 0.115 0.0253565 0.00646991
  endloop
 endfacet
 facet normal 1 -0 0
  outer loop
   vertex 0.115 0.02 0.013
   vertex 0.115 0.01 0.013
   vertex 0.115 0.0170713 0.00649398
  endloop
 endfacet
 facet normal 0 0 1
  outer loop
   vertex 0.115 0.01 0.013
   vertex 0.109672 0.0152759 0.013
   vertex 0.10917 0.00599492 0.013
  endloop
 endfacet
 facet normal 0 0 1
  outer loop
   vertex 0.105417 2.12793e-18 0.013
   vertex 0.0977555 0.00710193 0.013
   vertex 0.0958333 4.25586e-18 0.013
  endloop
 endfacet
 facet normal -2.22045e-16 -1 -1.90888e-23
  outer loop
   vertex 0.105417 2.12793e-18 0.013
   vertex 0.0958333 4.25586e-18 0.013
   vertex 0.0987083 3.61748e-18 0.0065
  endloop
 endfacet
 facet normal 0 0 1
  outer loop
   vertex 0.105417 2.12793e-18 0.013
   vertex 0.10917 0.00599492 0.013
   vertex 0.104064 0.0108888 0.013
  endloop
 endfacet
 facet normal 0 0 1
  outer loop
   vertex 0.105417 2.12793e-18 0.013
   vertex 0.104064 0.0108888 0.013
   vertex 0.0977555 0.00710193 0.013
  endloop
 endfacet
 facet normal -2.22045e-16 -1 -4.7722e-23
  outer loop
   vertex 0.0958333 4.25586e-18 0.013
   vertex 0.0910417 5.31982e-18 0.0065
   vertex 0.0987083 3.61748e-18 0.0065
  endloop
 endfacet
 facet normal -2.22045e-16 -1 -9.54439e-23
  outer loop
   vertex 0.0958333 4.25586e-18 0.013
   vertex 0.08625 6.38378e-18 0.013
   vertex 0.0910417 5.31982e-18 0.0065
  endloop
 endfacet
 facet normal 0 0 1
  outer loop
   vertex 0.0958333 4.25586e-18 0.013
   vertex 0.0908339 0.00959667 0.013
   vertex 0.08625 6.38378e-18 0.013
  endloop
 endfacet
 facet normal 0 0 1
  outer loop
   vertex 0.0958333 4.25586e-18 0.013
   vertex 0.0977555 0.00710193 0.013
   vertex 0.0908339 0.00959667 0.013
  endloop
 endfacet
 facet normal -2.22045e-16 -1 0
  outer loop
   vertex 0.08625 6.38378e-18 0.013
   vertex 0.0814583 7.44775e-18 0.0065
   vertex 0.0910417 5.31982e-18 0.0065
  endloop
 endfacet
 facet normal 0 0 1
  outer loop
   vertex 0.08625 6.38378e-18 0.013
   vertex 0.0908339 0.00959667 0.013
   vertex 0.0814583 0.00652329 0.013
  endloop
 endfacet
 facet normal -2.22045e-16 -1 9.54439e-23
  outer loop
   vertex 0.08625 6.38378e-18 0.013
   vertex 0.0766667 8.51171e-18 0.013
   vertex 0.0814583 7.44775e-18 0.0065
  endloop
 endfacet
 facet normal 0 0 1
  outer loop
   vertex 0.08625 6.38378e-18 0.013
   vertex 0.0814583 0.00652329 0.013
   vertex 0.0766667 8.51171e-18 0.013
  endloop
 endfacet
 facet normal 0 0 1
  outer loop
   vertex 0.0766667 8.51171e-18 0.013
   vertex 0.0814583 0.00652329 0.013
   vertex 0.0729323 0.00965352 0.013
  endloop
 endfacet
 facet normal 0 0 1
  outer loop
   vertex 0.0766667 8.51171e-18 0.013
   vertex 0.0729323 0.00965352 0.013
   vertex 0.0670833 1.06396e-17 0.013
  endloop
 endfacet
 facet normal -2.22045e-16 -1 1.27259e-22
  outer loop
   vertex 0.0766667 8.51171e-18 0.013
   vertex 0.071875 9.57567e-18 0.0065
   vertex 0.0814583 7.44775e-18 0.0065
  endloop
 endfacet
 facet normal -2.22045e-16 -1 1.27259e-22
  outer loop
   vertex 0.0766667 8.51171e-18 0.013
   vertex 0.0670833 1.06396e-17 0.013
   vertex 0.071875 9.57567e-18 0.0065
  endloop
 endfacet
 facet normal 0 0 1
  outer loop
   vertex 0.0670833 1.06396e-17 0.013
   vertex 0.0640022 0.00796169 0.013
   vertex 0.0575 1.27676e-17 0.013
  endloop
 endfacet
 facet normal 0 0 1
  outer loop
   vertex 0.0670833 1.06396e-17 0.013
   vertex 0.0729323 0.00965352 0.013
   vertex 0.0640022 0.00796169 0.013
  endloop
 endfacet
 facet normal -2.22045e-16 -1 6.36293e-23
  outer loop
   vertex 0.0670833 1.06396e-17 0.013
   vertex 0.0575 1.27676e-17 0.013
   vertex 0.0622917 1.17036e-17 0.0065
  endloop
 endfacet
 facet normal -2.22045e-16 -1 1.27259e-22
  outer loop
   vertex 0.0670833 1.06396e-17 0.013
   vertex 0.0622917 1.17036e-17 0.0065
   vertex 0.071875 9.57567e-18 0.0065
  endloop
 endfacet
 facet normal -2.22045e-16 -1 0
  outer loop
   vertex 0.0575 1.27676e-17 0.013
   vertex 0.0527083 1.38315e-17 0.0065
   vertex 0.0622917 1.17036e-17 0.0065
  endloop
 endfacet
 facet normal 0 0 1
  outer loop
   vertex 0.0575 1.27676e-17 0.013
   vertex 0.0640022 0.00796169 0.013
   vertex 0.0569366 0.0112009 0.013
  endloop
 endfacet
 facet normal -2.22045e-16 -1 0
  outer loop
   vertex 0.0575 1.27676e-17 0.013
   vertex 0.0479167 1.48955e-17 0.013
   vertex 0.0527083 1.38315e-17 0.0065
  endloop
 endfacet
 facet normal 0 0 1
  outer loop
   vertex 0.0575 1.27676e-17 0.013
   vertex 0.0502257 0.00769521 0.013
   vertex 0.0479167 1.48955e-17 0.013
  endloop
 endfacet
 facet normal 0 0 1
  outer loop
   vertex 0.0575 1.27676e-17 0.013
   vertex 0.0569366 0.0112009 0.013
   vertex 0.0502257 0.00769521 0.013
  endloop
 endfacet
 facet normal 0 0 1
  outer loop
   vertex 0.0479167 1.48955e-17 0.013
   vertex 0.0502257 0.00769521 0.013
   vertex 0.0417398 0.0100044 0.013
  endloop
 endfacet
 facet normal 0 0 1
  outer loop
   vertex 0.0479167 1.48955e-17 0.013
   vertex 0.0417398 0.0100044 0.013
   vertex 0.0383333 1.70234e-17 0.013
  endloop
 endfacet
 facet normal -2.22045e-16 -1 0
  outer loop
   vertex 0.0479167 1.48955e-17 0.013
   vertex 0.0383333 1.70234e-17 0.013
   vertex 0.043125 1.59595e-17 0.0065
  endloop
 endfacet
 facet normal -2.22045e-16 -1 0
  outer loop
   vertex 0.0479167 1.48955e-17 0.013
   vertex 0.043125 1.59595e-17 0.0065
   vertex 0.0527083 1.38315e-17 0.0065
  endloop
 endfacet
 facet normal -2.22045e-16 -1 0
  outer loop
   vertex 0.0383333 1.70234e-17 0.013
   vertex 0.0335417 1.80874e-17 0.0065
   vertex 0.043125 1.59595e-17 0.0065
  endloop
 endfacet
 facet normal 0 0 1
  outer loop
   vertex 0.0383333 1.70234e-17 0.013
   vertex 0.0417398 0.0100044 0.013
   vertex 0.0334535 0.00651926 0.013
  endloop
 endfacet
 facet normal -2.22045e-16 -1 3.18146e-23
  outer loop
   vertex 0.0383333 1.70234e-17 0.013
   vertex 0.02875 1.91513e-17 0.013
   vertex 0.0335417 1.80874e-17 0.0065
  endloop
 endfacet
 facet normal 0 0 1
  outer loop
   vertex 0.0383333 1.70234e-17 0.013
   vertex 0.0334535 0.00651926 0.013
   vertex 0.02875 1.91513e-17 0.013
  endloop
 endfacet
 facet normal 0 0 1
  outer loop
   vertex 0.02875 1.91513e-17 0.013
   vertex 0.0334535 0.00651926 0.013
   vertex 0.0246119 0.00900721 0.013
  endloop
 endfacet
 facet normal 0 0 1
  outer loop
   vertex 0.02875 1.91513e-17 0.013
   vertex 0.0246119 0.00900721 0.013
   vertex 0.0191667 2.12793e-17 0.013
  endloop
 endfacet
 facet normal -2.22045e-16 -1 0
  outer loop
   vertex 0.02875 1.91513e-17 0.013
   vertex 0.0191667 2.12793e-17 0.013
   vertex 0.0242778 2.01444e-17 0.0065
  endloop
 endfacet
 facet normal -2.22045e-16 -1 3.07176e-23
  outer loop
   vertex 0.02875 1.91513e-17 0.013
   vertex 0.0242778 2.01444e-17 0.0065
   vertex 0.0335417 1.80874e-17 0.0065
  endloop
 endfacet
 facet normal 0 0 1
  outer loop
   vertex 0.0191667 2.12793e-17 0.013
   vertex 0.0246119 0.00900721 0.013
   vertex 0.0170913 0.0069861 0.013
  endloop
 endfacet
 facet normal -2.22045e-16 -1 0
  outer loop
   vertex 0.0191667 2.12793e-17 0.013
   vertex 0.0163556 2.19035e-17 0.0065
   vertex 0.0242778 2.01444e-17 0.0065
  endloop
 endfacet
 facet normal -2.22045e-16 -1 0
  outer loop
   vertex 0.0191667 2.12793e-17 0.013
   vertex 0.00958334 2.34072e-17 0.013
   vertex 0.0163556 2.19035e-17 0.0065
  endloop
 endfacet
 facet normal 0 0 1
  outer loop
   vertex 0.0191667 2.12793e-17 0.013
   vertex 0.0170913 0.0069861 0.013
   vertex 0.00958334 2.34072e-17 0.013
  endloop
 endfacet
 facet normal 0 0 1
  outer loop
   vertex 0.00958334 2.34072e-17 0.013
   vertex 0.0109365 0.0108888 0.013
   vertex 0.00582985 0.00599492 0.013
  endloop
 endfacet
 facet normal 0 0 1
  outer loop
   vertex 0.00958334 2.34072e-17 0.013
   vertex 0.0170913 0.0069861 0.013
   vertex 0.0109365 0.0108888 0.013
  endloop
 endfacet
 facet normal -1 -0 0
  outer loop
   vertex -2.08616e-09 0.01 0.013
   vertex -2.08616e-09 0.02 0.013
   vertex -2.08616e-09 0.0170667 0.0065
  endloop
 endfacet
 facet normal 0 0 1
  outer loop
   vertex -2.08616e-09 0.01 0.013
   vertex 0.00582985 0.00599492 0.013
   vertex 0.00532786 0.0152759 0.013
  endloop
 endfacet
 facet normal 0 0 1
  outer loop
   vertex -2.08616e-09 0.01 0.013
   vertex 0.00532786 0.0152759 0.013
   vertex -2.08616e-09 0.02 0.013
  endloop
 endfacet
 facet normal 0 0 1
  outer loop
   vertex -2.08616e-09 0.02 0.013
   vertex 0.00944795 0.0210835 0.013
   vertex -2.08616e-09 0.03 0.013
  endloop
 endfacet
 facet normal 0 -0 1
  outer loop
   vertex -2.08616e-09 0.02 0.013
   vertex 0.00532786 0.0152759 0.013
   vertex 0.00944795 0.0210835 0.013
  endloop
 endfacet
 facet normal -1 0 0
  outer loop
   vertex -2.08616e-09 0.02 0.013
   vertex -2.08616e-09 0.0253333 0.0065
   vertex -2.08616e-09 0.0170667 0.0065
  endloop
 endfacet
 facet normal -1 -0 0
  outer loop
   vertex -2.08616e-09 0.02 0.013
   vertex -2.08616e-09 0.03 0.013
   vertex -2.08616e-09 0.0253333 0.0065
  endloop
 endfacet
 facet normal -1 -0 0
  outer loop
   vertex -2.08616e-09 0.03 0.013
   vertex -2.08616e-09 0.04 0.013
   vertex -2.08616e-09 0.0347222 0.0065
  endloop
 endfacet
 facet normal -1 0 0
  outer loop
   vertex -2.08616e-09 0.03 0.013
   vertex -2.08616e-09 0.0347222 0.0065
   vertex -2.08616e-09 0.0253333 0.0065
  endloop
 endfacet
 facet normal 0 0 1
  outer loop
   vertex -2.08616e-09 0.03 0.013
   vertex 0.00954268 0.0387696 0.013
   vertex -2.08616e-09 0.04 0.013
  endloop
 endfacet
 facet normal 0 0 1
  outer loop
   vertex -2.08616e-09 0.03 0.013
   vertex 0.0127546 0.03 0.013
   vertex 0.00954268 0.0387696 0.013
  endloop
 endfacet
 facet normal 0 -0 1
  outer loop
   vertex -2.08616e-09 0.03 0.013
   vertex 0.00944795 0.0210835 0.013
   vertex 0.0127546 0.03 0.013
  endloop
 endfacet
 facet normal -1 0 0
  outer loop
   vertex -2.08616e-09 0.04 0.013
   vertex -2.08616e-09 0.0429444 0.0065
   vertex -2.08616e-09 0.0347222 0.0065
  endloop
 endfacet
 facet normal -1 -0 0
  outer loop
   vertex -2.08616e-09 0.04 0.013
   vertex -2.08616e-09 0.05 0.013
   vertex -2.08616e-09 0.0429444 0.0065
  endloop
 endfacet
 facet normal 0 0 1
  outer loop
   vertex -2.08616e-09 0.04 0.013
   vertex 0.00545671 0.0450164 0.013
   vertex -2.08616e-09 0.05 0.013
  endloop
 endfacet
 facet normal 0 0 1
  outer loop
   vertex -2.08616e-09 0.04 0.013
   vertex 0.00954268 0.0387696 0.013
   vertex 0.00545671 0.0450164 0.013
  endloop
 endfacet
 facet normal 0 -0 1
  outer loop
   vertex -2.08616e-09 0.05 0.013
   vertex 0.00545671 0.0450164 0.013
   vertex 0.00697966 0.0528937 0.013
  endloop
 endfacet
 facet normal 0 0 -1
  outer loop
   vertex 0.033617 0.0298983 0
   vertex 0.0234836 0.0272493 0
   vertex 0.0272325 0.0366615 0
  endloop
 endfacet
 facet normal 0 0 -1
  outer loop
   vertex 0.033617 0.0298983 0
   vertex 0.030754 0.0217954 0
   vertex 0.0234836 0.0272493 0
  endloop
 endfacet
 facet normal 0 0 -1
  outer loop
   vertex 0.033617 0.0298983 0
   vertex 0.0272325 0.0366615 0
   vertex 0.0366375 0.0379904 0
  endloop
 endfacet
 facet normal 0 -0 -1
  outer loop
   vertex 0.033617 0.0298983 0
   vertex 0.0366375 0.0379904 0
   vertex 0.0438949 0.0298982 0
  endloop
 endfacet
 facet normal -0 0 -1
  outer loop
   vertex 0.033617 0.0298983 0
   vertex 0.0438949 0.0298982 0
   vertex 0.0386454 0.0209772 0
  endloop
 endfacet
 facet normal 0 0 -1
  outer loop
   vertex 0.033617 0.0298983 0
   vertex 0.0386454 0.0209772 0
   vertex 0.030754 0.0217954 0
  endloop
 endfacet
 facet normal 0 0 -1
  outer loop
   vertex 0.0807243 0.0317889 0
   vertex 0.0746694 0.0216589 0
   vertex 0.0690718 0.0309205 0
  endloop
 endfacet
 facet normal -0 0 -1
  outer loop
   vertex 0.0807243 0.0317889 0
   vertex 0.0873563 0.0223087 0
   vertex 0.0746694 0.0216589 0
  endloop
 endfacet
 facet normal -0 0 -1
  outer loop
   vertex 0.0807243 0.0317889 0
   vertex 0.0918519 0.0317725 0
   vertex 0.0873563 0.0223087 0
  endloop
 endfacet
 facet normal 0 0 -1
  outer loop
   vertex 0.0807243 0.0317889 0
   vertex 0.0792383 0.0416269 0
   vertex 0.088263 0.0392928 0
  endloop
 endfacet
 facet normal 0 0 -1
  outer loop
   vertex 0.0807243 0.0317889 0
   vertex 0.0690718 0.0309205 0
   vertex 0.0733536 0.0373506 0
  endloop
 endfacet
 facet normal 0 0 -1
  outer loop
   vertex 0.0807243 0.0317889 0
   vertex 0.0733536 0.0373506 0
   vertex 0.0792383 0.0416269 0
  endloop
 endfacet
 facet normal 0 -0 -1
  outer loop
   vertex 0.0807243 0.0317889 0
   vertex 0.088263 0.0392928 0
   vertex 0.0918519 0.0317725 0
  endloop
 endfacet
 facet normal 0 0 -1
  outer loop
   vertex 0.0584109 0.0349778 0
   vertex 0.0569905 0.0245079 0
   vertex 0.052341 0.0305328 0
  endloop
 endfacet
 facet normal 0 0 -1
  outer loop
   vertex 0.0584109 0.0349778 0
   vertex 0.052341 0.0305328 0
   vertex 0.0522296 0.0406449 0
  endloop
 endfacet
 facet normal 0 0 -1
  outer loop
   vertex 0.0584109 0.0349778 0
   vertex 0.0522296 0.0406449 0
   vertex 0.0607556 0.0458178 0
  endloop
 endfacet
 facet normal -0 0 -1
  outer loop
   vertex 0.0584109 0.0349778 0
   vertex 0.064172 0.0252366 0
   vertex 0.0569905 0.0245079 0
  endloop
 endfacet
 facet normal -0 0 -1
  outer loop
   vertex 0.0584109 0.0349778 0
   vertex 0.0690718 0.0309205 0
   vertex 0.064172 0.0252366 0
  endloop
 endfacet
 facet normal 0 -0 -1
  outer loop
   vertex 0.0584109 0.0349778 0
   vertex 0.0607556 0.0458178 0
   vertex 0.065724 0.038543 0
  endloop
 endfacet
 facet normal 0 -0 -1
  outer loop
   vertex 0.0584109 0.0349778 0
   vertex 0.065724 0.038543 0
   vertex 0.0690718 0.0309205 0
  endloop
 endfacet
 facet normal -0 0 -1
  outer loop
   vertex 0.0670305 0.0166461 0
   vertex 0.0729323 0.00965352 0
   vertex 0.0640022 0.00796169 0
  endloop
 endfacet
 facet normal 0 0 -1
  outer loop
   vertex 0.0670305 0.0166461 0
   vertex 0.0597188 0.0177811 0
   vertex 0.064172 0.0252366 0
  endloop
 endfacet
 facet normal 0 0 -1
  outer loop
   vertex 0.0670305 0.0166461 0
   vertex 0.0746694 0.0216589 0
   vertex 0.0729323 0.00965352 0
  endloop
 endfacet
 facet normal 0 0 -1
  outer loop
   vertex 0.0670305 0.0166461 0
   vertex 0.0640022 0.00796169 0
   vertex 0.0597188 0.0177811 0
  endloop
 endfacet
 facet normal 0 0 -1
  outer loop
   vertex 0.0670305 0.0166461 0
   vertex 0.064172 0.0252366 0
   vertex 0.0746694 0.0216589 0
  endloop
 endfacet
 facet normal 0 0 -1
  outer loop
   vertex 0.0505378 0.0193143 0
   vertex 0.0417398 0.0100044 0
   vertex 0.0386454 0.0209772 0
  endloop
 endfacet
 facet normal 0 0 -1
  outer loop
   vertex 0.0505378 0.0193143 0
   vertex 0.0386454 0.0209772 0
   vertex 0.0438949 0.0298982 0
  endloop
 endfacet
 facet normal 0 0 -1
  outer loop
   vertex 0.0505378 0.0193143 0
   vertex 0.0438949 0.0298982 0
   vertex 0.052341 0.0305328 0
  endloop
 endfacet
 facet normal -0 0 -1
  outer loop
   vertex 0.0505378 0.0193143 0
   vertex 0.0569366 0.0112009 0
   vertex 0.0502257 0.00769521 0
  endloop
 endfacet
 facet normal 0 0 -1
  outer loop
   vertex 0.0505378 0.0193143 0
   vertex 0.0502257 0.00769521 0
   vertex 0.0417398 0.0100044 0
  endloop
 endfacet
 facet normal -0 0 -1
  outer loop
   vertex 0.0505378 0.0193143 0
   vertex 0.0597188 0.0177811 0
   vertex 0.0569366 0.0112009 0
  endloop
 endfacet
 facet normal 0 -0 -1
  outer loop
   vertex 0.0505378 0.0193143 0
   vertex 0.0569905 0.0245079 0
   vertex 0.0597188 0.0177811 0
  endloop
 endfacet
 facet normal 0 -0 -1
  outer loop
   vertex 0.0505378 0.0193143 0
   vertex 0.052341 0.0305328 0
   vertex 0.0569905 0.0245079 0
  endloop
 endfacet
 facet normal 0 0 -1
  outer loop
   vertex 0.01754 0.0175774 0
   vertex 0.0127546 0.03 0
   vertex 0.0234836 0.0272493 0
  endloop
 endfacet
 facet normal -0 0 -1
  outer loop
   vertex 0.01754 0.0175774 0
   vertex 0.0255347 0.0168408 0
   vertex 0.0246119 0.00900721 0
  endloop
 endfacet
 facet normal 0 0 -1
  outer loop
   vertex 0.01754 0.0175774 0
   vertex 0.00944795 0.0210835 0
   vertex 0.0127546 0.03 0
  endloop
 endfacet
 facet normal -0 0 -1
  outer loop
   vertex 0.01754 0.0175774 0
   vertex 0.0246119 0.00900721 0
   vertex 0.0170913 0.0069861 0
  endloop
 endfacet
 facet normal 0 -0 -1
  outer loop
   vertex 0.01754 0.0175774 0
   vertex 0.0234836 0.0272493 0
   vertex 0.0255347 0.0168408 0
  endloop
 endfacet
 facet normal 0 0 -1
  outer loop
   vertex 0.01754 0.0175774 0
   vertex 0.0109365 0.0108888 0
   vertex 0.00944795 0.0210835 0
  endloop
 endfacet
 facet normal 0 0 -1
  outer loop
   vertex 0.01754 0.0175774 0
   vertex 0.0170913 0.0069861 0
   vertex 0.0109365 0.0108888 0
  endloop
 endfacet
 facet normal 0 0 -1
  outer loop
   vertex 0.097245 0.040336 0
   vertex 0.102245 0.03 0
   vertex 0.0918519 0.0317725 0
  endloop
 endfacet
 facet normal 0 0 -1
  outer loop
   vertex 0.097245 0.040336 0
   vertex 0.0918519 0.0317725 0
   vertex 0.088263 0.0392928 0
  endloop
 endfacet
 facet normal 0 0 -1
  outer loop
   vertex 0.097245 0.040336 0
   vertex 0.0923654 0.050387 0
   vertex 0.103055 0.047798 0
  endloop
 endfacet
 facet normal -0 0 -1
  outer loop
   vertex 0.097245 0.040336 0
   vertex 0.106093 0.0388776 0
   vertex 0.102245 0.03 0
  endloop
 endfacet
 facet normal 0 -0 -1
  outer loop
   vertex 0.097245 0.040336 0
   vertex 0.103055 0.047798 0
   vertex 0.106093 0.0388776 0
  endloop
 endfacet
 facet normal 0 0 -1
  outer loop
   vertex 0.097245 0.040336 0
   vertex 0.088263 0.0392928 0
   vertex 0.0923654 0.050387 0
  endloop
 endfacet
 facet normal 0 0 -1
  outer loop
   vertex 0.0192168 0.0421254 0
   vertex 0.0125917 0.0475709 0
   vertex 0.0223865 0.0520594 0
  endloop
 endfacet
 facet normal 0 0 -1
  outer loop
   vertex 0.0192168 0.0421254 0
   vertex 0.0308613 0.04585 0
   vertex 0.0272325 0.0366615 0
  endloop
 endfacet
 facet normal 0 0 -1
  outer loop
   vertex 0.0192168 0.0421254 0
   vertex 0.00954268 0.0387696 0
   vertex 0.0125917 0.0475709 0
  endloop
 endfacet
 facet normal 0 -0 -1
  outer loop
   vertex 0.0192168 0.0421254 0
   vertex 0.0223865 0.0520594 0
   vertex 0.0308613 0.04585 0
  endloop
 endfacet
 facet normal 0 0 -1
  outer loop
   vertex 0.0192168 0.0421254 0
   vertex 0.018446 0.0349612 0
   vertex 0.00954268 0.0387696 0
  endloop
 endfacet
 facet normal -0 0 -1
  outer loop
   vertex 0.0192168 0.0421254 0
   vertex 0.0272325 0.0366615 0
   vertex 0.018446 0.0349612 0
  endloop
 endfacet
 facet normal 0 0 -1
  outer loop
   vertex 0.0967863 0.0168801 0
   vertex 0.105568 0.0212858 0
   vertex 0.104064 0.0108888 0
  endloop
 endfacet
 facet normal -0 0 -1
  outer loop
   vertex 0.0967863 0.0168801 0
   vertex 0.104064 0.0108888 0
   vertex 0.0977555 0.00710193 0
  endloop
 endfacet
 facet normal 0 0 -1
  outer loop
   vertex 0.0967863 0.0168801 0
   vertex 0.0977555 0.00710193 0
   vertex 0.0908339 0.00959667 0
  endloop
 endfacet
 facet normal 0 0 -1
  outer loop
   vertex 0.0967863 0.0168801 0
   vertex 0.0908339 0.00959667 0
   vertex 0.0873563 0.0223087 0
  endloop
 endfacet
 facet normal 0 0 -1
  outer loop
   vertex 0.0967863 0.0168801 0
   vertex 0.0966034 0.0248799 0
   vertex 0.105568 0.0212858 0
  endloop
 endfacet
 facet normal 0 0 -1
  outer loop
   vertex 0.0967863 0.0168801 0
   vertex 0.0873563 0.0223087 0
   vertex 0.0966034 0.0248799 0
  endloop
 endfacet
 facet normal 0 0 -1
  outer loop
   vertex 0.0429907 0.0438735 0
   vertex 0.0308613 0.04585 0
   vertex 0.0378102 0.0514099 0
  endloop
 endfacet
 facet normal 0 0 -1
  outer loop
   vertex 0.0429907 0.0438735 0
   vertex 0.0523931 0.051401 0
   vertex 0.0522296 0.0406449 0
  endloop
 endfacet
 facet normal -0 0 -1
  outer loop
   vertex 0.0429907 0.0438735 0
   vertex 0.0522296 0.0406449 0
   vertex 0.0458008 0.0372483 0
  endloop
 endfacet
 facet normal 0 0 -1
  outer loop
   vertex 0.0429907 0.0438735 0
   vertex 0.0366375 0.0379904 0
   vertex 0.0308613 0.04585 0
  endloop
 endfacet
 facet normal 0 0 -1
  outer loop
   vertex 0.0429907 0.0438735 0
   vertex 0.0458008 0.0372483 0
   vertex 0.0366375 0.0379904 0
  endloop
 endfacet
 facet normal 0 0 -1
  outer loop
   vertex 0.0429907 0.0438735 0
   vertex 0.0378102 0.0514099 0
   vertex 0.0445081 0.0539398 0
  endloop
 endfacet
 facet normal 0 -0 -1
  outer loop
   vertex 0.0429907 0.0438735 0
   vertex 0.0445081 0.0539398 0
   vertex 0.0523931 0.051401 0
  endloop
 endfacet
 facet normal 0 0 -1
  outer loop
   vertex 0.0720093 0.0438735 0
   vertex 0.065724 0.038543 0
   vertex 0.0607556 0.0458178 0
  endloop
 endfacet
 facet normal 0 0 -1
  outer loop
   vertex 0.0720093 0.0438735 0
   vertex 0.0607556 0.0458178 0
   vertex 0.0691715 0.0525577 0
  endloop
 endfacet
 facet normal 0 -0 -1
  outer loop
   vertex 0.0720093 0.0438735 0
   vertex 0.0768831 0.0512017 0
   vertex 0.0792383 0.0416269 0
  endloop
 endfacet
 facet normal 0 0 -1
  outer loop
   vertex 0.0720093 0.0438735 0
   vertex 0.0691715 0.0525577 0
   vertex 0.0768831 0.0512017 0
  endloop
 endfacet
 facet normal 0 0 -1
  outer loop
   vertex 0.0720093 0.0438735 0
   vertex 0.0733536 0.0373506 0
   vertex 0.065724 0.038543 0
  endloop
 endfacet
 facet normal -0 0 -1
  outer loop
   vertex 0.0720093 0.0438735 0
   vertex 0.0792383 0.0416269 0
   vertex 0.0733536 0.0373506 0
  endloop
 endfacet
 facet normal -0 0 -1
  outer loop
   vertex 0.0814583 0.0146173 0
   vertex 0.0908339 0.00959667 0
   vertex 0.0814583 0.00652329 0
  endloop
 endfacet
 facet normal 0 0 -1
  outer loop
   vertex 0.0814583 0.0146173 0
   vertex 0.0729323 0.00965352 0
   vertex 0.0746694 0.0216589 0
  endloop
 endfacet
 facet normal 0 0 -1
  outer loop
   vertex 0.0814583 0.0146173 0
   vertex 0.0814583 0.00652329 0
   vertex 0.0729323 0.00965352 0
  endloop
 endfacet
 facet normal 0 0 -1
  outer loop
   vertex 0.0814583 0.0146173 0
   vertex 0.0746694 0.0216589 0
   vertex 0.0873563 0.0223087 0
  endloop
 endfacet
 facet normal 0 -0 -1
  outer loop
   vertex 0.0814583 0.0146173 0
   vertex 0.0873563 0.0223087 0
   vertex 0.0908339 0.00959667 0
  endloop
 endfacet
 facet normal -0 0 -1
  outer loop
   vertex 0.0325804 0.014423 0
   vertex 0.0417398 0.0100044 0
   vertex 0.0334535 0.00651926 0
  endloop
 endfacet
 facet normal 0 -0 -1
  outer loop
   vertex 0.0325804 0.014423 0
   vertex 0.0386454 0.0209772 0
   vertex 0.0417398 0.0100044 0
  endloop
 endfacet
 facet normal 0 0 -1
  outer loop
   vertex 0.0325804 0.014423 0
   vertex 0.0334535 0.00651926 0
   vertex 0.0246119 0.00900721 0
  endloop
 endfacet
 facet normal 0 0 -1
  outer loop
   vertex 0.0325804 0.014423 0
   vertex 0.0246119 0.00900721 0
   vertex 0.0255347 0.0168408 0
  endloop
 endfacet
 facet normal 0 0 -1
  outer loop
   vertex 0.0325804 0.014423 0
   vertex 0.030754 0.0217954 0
   vertex 0.0386454 0.0209772 0
  endloop
 endfacet
 facet normal 0 0 -1
  outer loop
   vertex 0.0325804 0.014423 0
   vertex 0.0255347 0.0168408 0
   vertex 0.030754 0.0217954 0
  endloop
 endfacet
 facet normal -0 0 -1
  outer loop
   vertex 0.0308613 0.04585 0
   vertex 0.0366375 0.0379904 0
   vertex 0.0272325 0.0366615 0
  endloop
 endfacet
 facet normal 0 -0 -1
  outer loop
   vertex 0.0308613 0.04585 0
   vertex 0.0317443 0.0538025 0
   vertex 0.0378102 0.0514099 0
  endloop
 endfacet
 facet normal 0 0 -1
  outer loop
   vertex 0.0308613 0.04585 0
   vertex 0.0223865 0.0520594 0
   vertex 0.0317443 0.0538025 0
  endloop
 endfacet
 facet normal 0 0 -1
  outer loop
   vertex 0.0843962 0.0467999 0
   vertex 0.0768831 0.0512017 0
   vertex 0.0833123 0.0536777 0
  endloop
 endfacet
 facet normal 0 0 -1
  outer loop
   vertex 0.0843962 0.0467999 0
   vertex 0.0833123 0.0536777 0
   vertex 0.0923654 0.050387 0
  endloop
 endfacet
 facet normal 0 0 -1
  outer loop
   vertex 0.0843962 0.0467999 0
   vertex 0.0923654 0.050387 0
   vertex 0.088263 0.0392928 0
  endloop
 endfacet
 facet normal 0 0 -1
  outer loop
   vertex 0.0843962 0.0467999 0
   vertex 0.088263 0.0392928 0
   vertex 0.0792383 0.0416269 0
  endloop
 endfacet
 facet normal 0 0 -1
  outer loop
   vertex 0.0843962 0.0467999 0
   vertex 0.0792383 0.0416269 0
   vertex 0.0768831 0.0512017 0
  endloop
 endfacet
 facet normal 0 -0 -1
  outer loop
   vertex 0.0607556 0.0458178 0
   vertex 0.0613807 0.0539553 0
   vertex 0.0691715 0.0525577 0
  endloop
 endfacet
 facet normal 0 0 -1
  outer loop
   vertex 0.0607556 0.0458178 0
   vertex 0.0522296 0.0406449 0
   vertex 0.0523931 0.051401 0
  endloop
 endfacet
 facet normal 0 0 -1
  outer loop
   vertex 0.0607556 0.0458178 0
   vertex 0.0523931 0.051401 0
   vertex 0.0613807 0.0539553 0
  endloop
 endfacet
 facet normal 0 -0 -1
  outer loop
   vertex 0.0127546 0.03 0
   vertex 0.018446 0.0349612 0
   vertex 0.0234836 0.0272493 0
  endloop
 endfacet
 facet normal 0 0 -1
  outer loop
   vertex 0.0127546 0.03 0
   vertex 0.00954268 0.0387696 0
   vertex 0.018446 0.0349612 0
  endloop
 endfacet
 facet normal 0 0 -1
  outer loop
   vertex 0.102245 0.03 0
   vertex 0.105568 0.0212858 0
   vertex 0.0966034 0.0248799 0
  endloop
 endfacet
 facet normal 0 0 -1
  outer loop
   vertex 0.102245 0.03 0
   vertex 0.0966034 0.0248799 0
   vertex 0.0918519 0.0317725 0
  endloop
 endfacet
 facet normal 0 0 -1
  outer loop
   vertex 0.0438949 0.0298982 0
   vertex 0.0366375 0.0379904 0
   vertex 0.0458008 0.0372483 0
  endloop
 endfacet
 facet normal 0 -0 -1
  outer loop
   vertex 0.0438949 0.0298982 0
   vertex 0.0458008 0.0372483 0
   vertex 0.052341 0.0305328 0
  endloop
 endfacet
 facet normal 0 0 -1
  outer loop
   vertex 0.0690718 0.0309205 0
   vertex 0.065724 0.038543 0
   vertex 0.0733536 0.0373506 0
  endloop
 endfacet
 facet normal 0 0 -1
  outer loop
   vertex 0.0690718 0.0309205 0
   vertex 0.0746694 0.0216589 0
   vertex 0.064172 0.0252366 0
  endloop
 endfacet
 facet normal 0 -0 -1
  outer loop
   vertex 0.0569366 0.0112009 0
   vertex 0.0597188 0.0177811 0
   vertex 0.0640022 0.00796169 0
  endloop
 endfacet
 facet normal 0 0 -1
  outer loop
   vertex 0.0569905 0.0245079 0
   vertex 0.064172 0.0252366 0
   vertex 0.0597188 0.0177811 0
  endloop
 endfacet
 facet normal 0 0 -1
  outer loop
   vertex 0.0109365 0.0108888 0
   vertex 0.00582985 0.00599492 0
   vertex 0.00532786 0.0152759 0
  endloop
 endfacet
 facet normal 0 0 -1
  outer loop
   vertex 0.0109365 0.0108888 0
   vertex 0.00532786 0.0152759 0
   vertex 0.00944795 0.0210835 0
  endloop
 endfacet
 facet normal -0 0 -1
  outer loop
   vertex 0.103055 0.047798 0
   vertex 0.10967 0.0450917 0
   vertex 0.106093 0.0388776 0
  endloop
 endfacet
 facet normal 0 0 -1
  outer loop
   vertex 0.103055 0.047798 0
   vertex 0.100766 0.0549033 0
   vertex 0.10917 0.0540051 0
  endloop
 endfacet
 facet normal 0 0 -1
  outer loop
   vertex 0.103055 0.047798 0
   vertex 0.0923654 0.050387 0
   vertex 0.100766 0.0549033 0
  endloop
 endfacet
 facet normal 0 -0 -1
  outer loop
   vertex 0.103055 0.047798 0
   vertex 0.10917 0.0540051 0
   vertex 0.10967 0.0450917 0
  endloop
 endfacet
 facet normal 0 0 -1
  outer loop
   vertex 0.0125917 0.0475709 0
   vertex 0.00545671 0.0450164 0
   vertex 0.00697966 0.0528937 0
  endloop
 endfacet
 facet normal 0 0 -1
  outer loop
   vertex 0.0125917 0.0475709 0
   vertex 0.00954268 0.0387696 0
   vertex 0.00545671 0.0450164 0
  endloop
 endfacet
 facet normal 0 0 -1
  outer loop
   vertex 0.0125917 0.0475709 0
   vertex 0.00697966 0.0528937 0
   vertex 0.014375 0.055067 0
  endloop
 endfacet
 facet normal 0 -0 -1
  outer loop
   vertex 0.0125917 0.0475709 0
   vertex 0.014375 0.055067 0
   vertex 0.0223865 0.0520594 0
  endloop
 endfacet
 facet normal 0 -0 -1
  outer loop
   vertex 0.104064 0.0108888 0
   vertex 0.105568 0.0212858 0
   vertex 0.109672 0.0152759 0
  endloop
 endfacet
 facet normal 0 0 -1
  outer loop
   vertex 0.104064 0.0108888 0
   vertex 0.109672 0.0152759 0
   vertex 0.10917 0.00599492 0
  endloop
 endfacet
 facet normal 0 0 -1
  outer loop
   vertex 0.0234836 0.0272493 0
   vertex 0.018446 0.0349612 0
   vertex 0.0272325 0.0366615 0
  endloop
 endfacet
 facet normal -0 0 -1
  outer loop
   vertex 0.0234836 0.0272493 0
   vertex 0.030754 0.0217954 0
   vertex 0.0255347 0.0168408 0
  endloop
 endfacet
 facet normal -0 0 -1
  outer loop
   vertex 0.0918519 0.0317725 0
   vertex 0.0966034 0.0248799 0
   vertex 0.0873563 0.0223087 0
  endloop
 endfacet
 facet normal 0 0 -1
  outer loop
   vertex 0.0522296 0.0406449 0
   vertex 0.052341 0.0305328 0
   vertex 0.0458008 0.0372483 0
  endloop
 endfacet
 facet normal 0 0 1
  outer loop
   vertex 0.033617 0.0298983 0.013
   vertex 0.0272325 0.0366615 0.013
   vertex 0.0234836 0.0272493 0.013
  endloop
 endfacet
 facet normal -0 0 1
  outer loop
   vertex 0.033617 0.0298983 0.013
   vertex 0.0234836 0.0272493 0.013
   vertex 0.030754 0.0217954 0.013
  endloop
 endfacet
 facet normal 0 0 1
  outer loop
   vertex 0.033617 0.0298983 0.013
   vertex 0.0366375 0.0379904 0.013
   vertex 0.0272325 0.0366615 0.013
  endloop
 endfacet
 facet normal 0 0 1
  outer loop
   vertex 0.033617 0.0298983 0.013
   vertex 0.0438949 0.0298982 0.013
   vertex 0.0366375 0.0379904 0.013
  endloop
 endfacet
 facet normal -0 0 1
  outer loop
   vertex 0.033617 0.0298983 0.013
   vertex 0.030754 0.0217954 0.013
   vertex 0.0386454 0.0209772 0.013
  endloop
 endfacet
 facet normal 0 -0 1
  outer loop
   vertex 0.033617 0.0298983 0.013
   vertex 0.0386454 0.0209772 0.013
   vertex 0.0438949 0.0298982 0.013
  endloop
 endfacet
 facet normal 0 0 1
  outer loop
   vertex 0.0807243 0.0317889 0.013
   vertex 0.0733536 0.0373506 0.013
   vertex 0.0690718 0.0309205 0.013
  endloop
 endfacet
 facet normal -0 0 1
  outer loop
   vertex 0.0807243 0.0317889 0.013
   vertex 0.0690718 0.0309205 0.013
   vertex 0.0746694 0.0216589 0.013
  endloop
 endfacet
 facet normal 0 0 1
  outer loop
   vertex 0.0807243 0.0317889 0.013
   vertex 0.0746694 0.0216589 0.013
   vertex 0.0873563 0.0223087 0.013
  endloop
 endfacet
 facet normal 0 -0 1
  outer loop
   vertex 0.0807243 0.0317889 0.013
   vertex 0.0873563 0.0223087 0.013
   vertex 0.0918519 0.0317725 0.013
  endloop
 endfacet
 facet normal 0 0 1
  outer loop
   vertex 0.0807243 0.0317889 0.013
   vertex 0.0918519 0.0317725 0.013
   vertex 0.088263 0.0392928 0.013
  endloop
 endfacet
 facet normal 0 0 1
  outer loop
   vertex 0.0807243 0.0317889 0.013
   vertex 0.088263 0.0392928 0.013
   vertex 0.0792383 0.0416269 0.013
  endloop
 endfacet
 facet normal 0 0 1
  outer loop
   vertex 0.0807243 0.0317889 0.013
   vertex 0.0792383 0.0416269 0.013
   vertex 0.0733536 0.0373506 0.013
  endloop
 endfacet
 facet normal 0 0 1
  outer loop
   vertex 0.0584109 0.0349778 0.013
   vertex 0.0607556 0.0458178 0.013
   vertex 0.0522296 0.0406449 0.013
  endloop
 endfacet
 facet normal -0 0 1
  outer loop
   vertex 0.0584109 0.0349778 0.013
   vertex 0.052341 0.0305328 0.013
   vertex 0.0569905 0.0245079 0.013
  endloop
 endfacet
 facet normal 0 0 1
  outer loop
   vertex 0.0584109 0.0349778 0.013
   vertex 0.0522296 0.0406449 0.013
   vertex 0.052341 0.0305328 0.013
  endloop
 endfacet
 facet normal 0 0 1
  outer loop
   vertex 0.0584109 0.0349778 0.013
   vertex 0.065724 0.038543 0.013
   vertex 0.0607556 0.0458178 0.013
  endloop
 endfacet
 facet normal 0 0 1
  outer loop
   vertex 0.0584109 0.0349778 0.013
   vertex 0.0569905 0.0245079 0.013
   vertex 0.064172 0.0252366 0.013
  endloop
 endfacet
 facet normal 0 0 1
  outer loop
   vertex 0.0584109 0.0349778 0.013
   vertex 0.0690718 0.0309205 0.013
   vertex 0.065724 0.038543 0.013
  endloop
 endfacet
 facet normal 0 -0 1
  outer loop
   vertex 0.0584109 0.0349778 0.013
   vertex 0.064172 0.0252366 0.013
   vertex 0.0690718 0.0309205 0.013
  endloop
 endfacet
 facet normal 0 0 1
  outer loop
   vertex 0.0670305 0.0166461 0.013
   vertex 0.0597188 0.0177811 0.013
   vertex 0.0640022 0.00796169 0.013
  endloop
 endfacet
 facet normal 0 0 1
  outer loop
   vertex 0.0670305 0.0166461 0.013
   vertex 0.0640022 0.00796169 0.013
   vertex 0.0729323 0.00965352 0.013
  endloop
 endfacet
 facet normal 0 0 1
  outer loop
   vertex 0.0670305 0.0166461 0.013
   vertex 0.064172 0.0252366 0.013
   vertex 0.0597188 0.0177811 0.013
  endloop
 endfacet
 facet normal 0 -0 1
  outer loop
   vertex 0.0670305 0.0166461 0.013
   vertex 0.0729323 0.00965352 0.013
   vertex 0.0746694 0.0216589 0.013
  endloop
 endfacet
 facet normal 0 0 1
  outer loop
   vertex 0.0670305 0.0166461 0.013
   vertex 0.0746694 0.0216589 0.013
   vertex 0.064172 0.0252366 0.013
  endloop
 endfacet
 facet normal 0 0 1
  outer loop
   vertex 0.0505378 0.0193143 0.013
   vertex 0.0569905 0.0245079 0.013
   vertex 0.052341 0.0305328 0.013
  endloop
 endfacet
 facet normal -0 0 1
  outer loop
   vertex 0.0505378 0.0193143 0.013
   vertex 0.0417398 0.0100044 0.013
   vertex 0.0502257 0.00769521 0.013
  endloop
 endfacet
 facet normal 0 0 1
  outer loop
   vertex 0.0505378 0.0193143 0.013
   vertex 0.0386454 0.0209772 0.013
   vertex 0.0417398 0.0100044 0.013
  endloop
 endfacet
 facet normal 0 0 1
  outer loop
   vertex 0.0505378 0.0193143 0.013
   vertex 0.0502257 0.00769521 0.013
   vertex 0.0569366 0.0112009 0.013
  endloop
 endfacet
 facet normal 0 0 1
  outer loop
   vertex 0.0505378 0.0193143 0.013
   vertex 0.0438949 0.0298982 0.013
   vertex 0.0386454 0.0209772 0.013
  endloop
 endfacet
 facet normal 0 -0 1
  outer loop
   vertex 0.0505378 0.0193143 0.013
   vertex 0.0569366 0.0112009 0.013
   vertex 0.0597188 0.0177811 0.013
  endloop
 endfacet
 facet normal 0 0 1
  outer loop
   vertex 0.0505378 0.0193143 0.013
   vertex 0.0597188 0.0177811 0.013
   vertex 0.0569905 0.0245079 0.013
  endloop
 endfacet
 facet normal 0 0 1
  outer loop
   vertex 0.0505378 0.0193143 0.013
   vertex 0.052341 0.0305328 0.013
   vertex 0.0438949 0.0298982 0.013
  endloop
 endfacet
 facet normal 0 0 1
  outer loop
   vertex 0.01754 0.0175774 0.013
   vertex 0.0255347 0.0168408 0.013
   vertex 0.0234836 0.0272493 0.013
  endloop
 endfacet
 facet normal 0 0 1
  outer loop
   vertex 0.01754 0.0175774 0.013
   vertex 0.0170913 0.0069861 0.013
   vertex 0.0246119 0.00900721 0.013
  endloop
 endfacet
 facet normal -0 0 1
  outer loop
   vertex 0.01754 0.0175774 0.013
   vertex 0.0109365 0.0108888 0.013
   vertex 0.0170913 0.0069861 0.013
  endloop
 endfacet
 facet normal 0 0 1
  outer loop
   vertex 0.01754 0.0175774 0.013
   vertex 0.0127546 0.03 0.013
   vertex 0.00944795 0.0210835 0.013
  endloop
 endfacet
 facet normal 0 0 1
  outer loop
   vertex 0.01754 0.0175774 0.013
   vertex 0.00944795 0.0210835 0.013
   vertex 0.0109365 0.0108888 0.013
  endloop
 endfacet
 facet normal 0 0 1
  outer loop
   vertex 0.01754 0.0175774 0.013
   vertex 0.0234836 0.0272493 0.013
   vertex 0.0127546 0.03 0.013
  endloop
 endfacet
 facet normal 0 -0 1
  outer loop
   vertex 0.01754 0.0175774 0.013
   vertex 0.0246119 0.00900721 0.013
   vertex 0.0255347 0.0168408 0.013
  endloop
 endfacet
 facet normal -0 0 1
  outer loop
   vertex 0.097245 0.040336 0.013
   vertex 0.0918519 0.0317725 0.013
   vertex 0.102245 0.03 0.013
  endloop
 endfacet
 facet normal 0 0 1
  outer loop
   vertex 0.097245 0.040336 0.013
   vertex 0.0923654 0.050387 0.013
   vertex 0.088263 0.0392928 0.013
  endloop
 endfacet
 facet normal 0 0 1
  outer loop
   vertex 0.097245 0.040336 0.013
   vertex 0.103055 0.047798 0.013
   vertex 0.0923654 0.050387 0.013
  endloop
 endfacet
 facet normal 0 -0 1
  outer loop
   vertex 0.097245 0.040336 0.013
   vertex 0.102245 0.03 0.013
   vertex 0.106093 0.0388776 0.013
  endloop
 endfacet
 facet normal 0 0 1
  outer loop
   vertex 0.097245 0.040336 0.013
   vertex 0.106093 0.0388776 0.013
   vertex 0.103055 0.047798 0.013
  endloop
 endfacet
 facet normal -0 0 1
  outer loop
   vertex 0.097245 0.040336 0.013
   vertex 0.088263 0.0392928 0.013
   vertex 0.0918519 0.0317725 0.013
  endloop
 endfacet
 facet normal 0 -0 1
  outer loop
   vertex 0.0192168 0.0421254 0.013
   vertex 0.0272325 0.0366615 0.013
   vertex 0.0308613 0.04585 0.013
  endloop
 endfacet
 facet normal 0 0 1
  outer loop
   vertex 0.0192168 0.0421254 0.013
   vertex 0.018446 0.0349612 0.013
   vertex 0.0272325 0.0366615 0.013
  endloop
 endfacet
 facet normal 0 0 1
  outer loop
   vertex 0.0192168 0.0421254 0.013
   vertex 0.0223865 0.0520594 0.013
   vertex 0.0125917 0.0475709 0.013
  endloop
 endfacet
 facet normal 0 0 1
  outer loop
   vertex 0.0192168 0.0421254 0.013
   vertex 0.0308613 0.04585 0.013
   vertex 0.0223865 0.0520594 0.013
  endloop
 endfacet
 facet normal -0 0 1
  outer loop
   vertex 0.0192168 0.0421254 0.013
   vertex 0.00954268 0.0387696 0.013
   vertex 0.018446 0.0349612 0.013
  endloop
 endfacet
 facet normal 0 0 1
  outer loop
   vertex 0.0192168 0.0421254 0.013
   vertex 0.0125917 0.0475709 0.013
   vertex 0.00954268 0.0387696 0.013
  endloop
 endfacet
 facet normal 0 -0 1
  outer loop
   vertex 0.0967863 0.0168801 0.013
   vertex 0.0977555 0.00710193 0.013
   vertex 0.104064 0.0108888 0.013
  endloop
 endfacet
 facet normal 0 0 1
  outer loop
   vertex 0.0967863 0.0168801 0.013
   vertex 0.0873563 0.0223087 0.013
   vertex 0.0908339 0.00959667 0.013
  endloop
 endfacet
 facet normal 0 0 1
  outer loop
   vertex 0.0967863 0.0168801 0.013
   vertex 0.105568 0.0212858 0.013
   vertex 0.0966034 0.0248799 0.013
  endloop
 endfacet
 facet normal 0 0 1
  outer loop
   vertex 0.0967863 0.0168801 0.013
   vertex 0.0966034 0.0248799 0.013
   vertex 0.0873563 0.0223087 0.013
  endloop
 endfacet
 facet normal -0 0 1
  outer loop
   vertex 0.0967863 0.0168801 0.013
   vertex 0.0908339 0.00959667 0.013
   vertex 0.0977555 0.00710193 0.013
  endloop
 endfacet
 facet normal 0 -0 1
  outer loop
   vertex 0.0967863 0.0168801 0.013
   vertex 0.104064 0.0108888 0.013
   vertex 0.105568 0.0212858 0.013
  endloop
 endfacet
 facet normal 0 0 1
  outer loop
   vertex 0.0429907 0.0438735 0.013
   vertex 0.0378102 0.0514099 0.013
   vertex 0.0308613 0.04585 0.013
  endloop
 endfacet
 facet normal 0 -0 1
  outer loop
   vertex 0.0429907 0.0438735 0.013
   vertex 0.0522296 0.0406449 0.013
   vertex 0.0523931 0.051401 0.013
  endloop
 endfacet
 facet normal 0 0 1
  outer loop
   vertex 0.0429907 0.0438735 0.013
   vertex 0.0523931 0.051401 0.013
   vertex 0.0445081 0.0539398 0.013
  endloop
 endfacet
 facet normal 0 0 1
  outer loop
   vertex 0.0429907 0.0438735 0.013
   vertex 0.0445081 0.0539398 0.013
   vertex 0.0378102 0.0514099 0.013
  endloop
 endfacet
 facet normal 0 0 1
  outer loop
   vertex 0.0429907 0.0438735 0.013
   vertex 0.0308613 0.04585 0.013
   vertex 0.0366375 0.0379904 0.013
  endloop
 endfacet
 facet normal -0 0 1
  outer loop
   vertex 0.0429907 0.0438735 0.013
   vertex 0.0366375 0.0379904 0.013
   vertex 0.0458008 0.0372483 0.013
  endloop
 endfacet
 facet normal 0 -0 1
  outer loop
   vertex 0.0429907 0.0438735 0.013
   vertex 0.0458008 0.0372483 0.013
   vertex 0.0522296 0.0406449 0.013
  endloop
 endfacet
 facet normal 0 0 1
  outer loop
   vertex 0.0720093 0.0438735 0.013
   vertex 0.0792383 0.0416269 0.013
   vertex 0.0768831 0.0512017 0.013
  endloop
 endfacet
 facet normal 0 0 1
  outer loop
   vertex 0.0720093 0.0438735 0.013
   vertex 0.0607556 0.0458178 0.013
   vertex 0.065724 0.038543 0.013
  endloop
 endfacet
 facet normal 0 0 1
  outer loop
   vertex 0.0720093 0.0438735 0.013
   vertex 0.0691715 0.0525577 0.013
   vertex 0.0607556 0.0458178 0.013
  endloop
 endfacet
 facet normal 0 0 1
  outer loop
   vertex 0.0720093 0.0438735 0.013
   vertex 0.0768831 0.0512017 0.013
   vertex 0.0691715 0.0525577 0.013
  endloop
 endfacet
 facet normal 0 -0 1
  outer loop
   vertex 0.0720093 0.0438735 0.013
   vertex 0.0733536 0.0373506 0.013
   vertex 0.0792383 0.0416269 0.013
  endloop
 endfacet
 facet normal -0 0 1
  outer loop
   vertex 0.0720093 0.0438735 0.013
   vertex 0.065724 0.038543 0.013
   vertex 0.0733536 0.0373506 0.013
  endloop
 endfacet
 facet normal -0 0 1
  outer loop
   vertex 0.0814583 0.0146173 0.013
   vertex 0.0729323 0.00965352 0.013
   vertex 0.0814583 0.00652329 0.013
  endloop
 endfacet
 facet normal 0 0 1
  outer loop
   vertex 0.0814583 0.0146173 0.013
   vertex 0.0746694 0.0216589 0.013
   vertex 0.0729323 0.00965352 0.013
  endloop
 endfacet
 facet normal 0 0 1
  outer loop
   vertex 0.0814583 0.0146173 0.013
   vertex 0.0814583 0.00652329 0.013
   vertex 0.0908339 0.00959667 0.013
  endloop
 endfacet
 facet normal 0 0 1
  outer loop
   vertex 0.0814583 0.0146173 0.013
   vertex 0.0873563 0.0223087 0.013
   vertex 0.0746694 0.0216589 0.013
  endloop
 endfacet
 facet normal 0 0 1
  outer loop
   vertex 0.0814583 0.0146173 0.013
   vertex 0.0908339 0.00959667 0.013
   vertex 0.0873563 0.0223087 0.013
  endloop
 endfacet
 facet normal -0 0 1
  outer loop
   vertex 0.0325804 0.014423 0.013
   vertex 0.0246119 0.00900721 0.013
   vertex 0.0334535 0.00651926 0.013
  endloop
 endfacet
 facet normal 0 -0 1
  outer loop
   vertex 0.0325804 0.014423 0.013
   vertex 0.0334535 0.00651926 0.013
   vertex 0.0417398 0.0100044 0.013
  endloop
 endfacet
 facet normal 0 0 1
  outer loop
   vertex 0.0325804 0.014423 0.013
   vertex 0.0417398 0.0100044 0.013
   vertex 0.0386454 0.0209772 0.013
  endloop
 endfacet
 facet normal 0 0 1
  outer loop
   vertex 0.0325804 0.014423 0.013
   vertex 0.0386454 0.0209772 0.013
   vertex 0.030754 0.0217954 0.013
  endloop
 endfacet
 facet normal 0 0 1
  outer loop
   vertex 0.0325804 0.014423 0.013
   vertex 0.0255347 0.0168408 0.013
   vertex 0.0246119 0.00900721 0.013
  endloop
 endfacet
 facet normal 0 0 1
  outer loop
   vertex 0.0325804 0.014423 0.013
   vertex 0.030754 0.0217954 0.013
   vertex 0.0255347 0.0168408 0.013
  endloop
 endfacet
 facet normal 0 0 1
  outer loop
   vertex 0.0308613 0.04585 0.013
   vertex 0.0272325 0.0366615 0.013
   vertex 0.0366375 0.0379904 0.013
  endloop
 endfacet
 facet normal 0 0 1
  outer loop
   vertex 0.0308613 0.04585 0.013
   vertex 0.0378102 0.0514099 0.013
   vertex 0.0317443 0.0538025 0.013
  endloop
 endfacet
 facet normal 0 0 1
  outer loop
   vertex 0.0308613 0.04585 0.013
   vertex 0.0317443 0.0538025 0.013
   vertex 0.0223865 0.0520594 0.013
  endloop
 endfacet
 facet normal 0 0 1
  outer loop
   vertex 0.0843962 0.0467999 0.013
   vertex 0.0833123 0.0536777 0.013
   vertex 0.0768831 0.0512017 0.013
  endloop
 endfacet
 facet normal 0 0 1
  outer loop
   vertex 0.0843962 0.0467999 0.013
   vertex 0.0923654 0.050387 0.013
   vertex 0.0833123 0.0536777 0.013
  endloop
 endfacet
 facet normal 0 -0 1
  outer loop
   vertex 0.0843962 0.0467999 0.013
   vertex 0.088263 0.0392928 0.013
   vertex 0.0923654 0.050387 0.013
  endloop
 endfacet
 facet normal -0 0 1
  outer loop
   vertex 0.0843962 0.0467999 0.013
   vertex 0.0792383 0.0416269 0.013
   vertex 0.088263 0.0392928 0.013
  endloop
 endfacet
 facet normal 0 0 1
  outer loop
   vertex 0.0843962 0.0467999 0.013
   vertex 0.0768831 0.0512017 0.013
   vertex 0.0792383 0.0416269 0.013
  endloop
 endfacet
 facet normal 0 0 1
  outer loop
   vertex 0.0607556 0.0458178 0.013
   vertex 0.0523931 0.051401 0.013
   vertex 0.0522296 0.0406449 0.013
  endloop
 endfacet
 facet normal 0 0 1
  outer loop
   vertex 0.0607556 0.0458178 0.013
   vertex 0.0613807 0.0539553 0.013
   vertex 0.0523931 0.051401 0.013
  endloop
 endfacet
 facet normal 0 0 1
  outer loop
   vertex 0.0607556 0.0458178 0.013
   vertex 0.0691715 0.0525577 0.013
   vertex 0.0613807 0.0539553 0.013
  endloop
 endfacet
 facet normal 0 0 1
  outer loop
   vertex 0.0127546 0.03 0.013
   vertex 0.0234836 0.0272493 0.013
   vertex 0.018446 0.0349612 0.013
  endloop
 endfacet
 facet normal 0 0 1
  outer loop
   vertex 0.0127546 0.03 0.013
   vertex 0.018446 0.0349612 0.013
   vertex 0.00954268 0.0387696 0.013
  endloop
 endfacet
 facet normal 0 0 1
  outer loop
   vertex 0.102245 0.03 0.013
   vertex 0.0918519 0.0317725 0.013
   vertex 0.0966034 0.0248799 0.013
  endloop
 endfacet
 facet normal -0 0 1
  outer loop
   vertex 0.102245 0.03 0.013
   vertex 0.0966034 0.0248799 0.013
   vertex 0.105568 0.0212858 0.013
  endloop
 endfacet
 facet normal 0 0 1
  outer loop
   vertex 0.0438949 0.0298982 0.013
   vertex 0.0458008 0.0372483 0.013
   vertex 0.0366375 0.0379904 0.013
  endloop
 endfacet
 facet normal 0 0 1
  outer loop
   vertex 0.0438949 0.0298982 0.013
   vertex 0.052341 0.0305328 0.013
   vertex 0.0458008 0.0372483 0.013
  endloop
 endfacet
 facet normal 0 0 1
  outer loop
   vertex 0.0690718 0.0309205 0.013
   vertex 0.0733536 0.0373506 0.013
   vertex 0.065724 0.038543 0.013
  endloop
 endfacet
 facet normal -0 0 1
  outer loop
   vertex 0.0690718 0.0309205 0.013
   vertex 0.064172 0.0252366 0.013
   vertex 0.0746694 0.0216589 0.013
  endloop
 endfacet
 facet normal 0 0 1
  outer loop
   vertex 0.0569366 0.0112009 0.013
   vertex 0.0640022 0.00796169 0.013
   vertex 0.0597188 0.0177811 0.013
  endloop
 endfacet
 facet normal 0 -0 1
  outer loop
   vertex 0.0569905 0.0245079 0.013
   vertex 0.0597188 0.0177811 0.013
   vertex 0.064172 0.0252366 0.013
  endloop
 endfacet
 facet normal 0 0 1
  outer loop
   vertex 0.0109365 0.0108888 0.013
   vertex 0.00944795 0.0210835 0.013
   vertex 0.00532786 0.0152759 0.013
  endloop
 endfacet
 facet normal 0 0 1
  outer loop
   vertex 0.0109365 0.0108888 0.013
   vertex 0.00532786 0.0152759 0.013
   vertex 0.00582985 0.00599492 0.013
  endloop
 endfacet
 facet normal 0 0 1
  outer loop
   vertex 0.103055 0.047798 0.013
   vertex 0.10967 0.0450917 0.013
   vertex 0.10917 0.0540051 0.013
  endloop
 endfacet
 facet normal 0 0 1
  outer loop
   vertex 0.103055 0.047798 0.013
   vertex 0.10917 0.0540051 0.013
   vertex 0.100766 0.0549033 0.013
  endloop
 endfacet
 facet normal 0 -0 1
  outer loop
   vertex 0.103055 0.047798 0.013
   vertex 0.106093 0.0388776 0.013
   vertex 0.10967 0.0450917 0.013
  endloop
 endfacet
 facet normal 0 0 1
  outer loop
   vertex 0.103055 0.047798 0.013
   vertex 0.100766 0.0549033 0.013
   vertex 0.0923654 0.050387 0.013
  endloop
 endfacet
 facet normal 0 0 1
  outer loop
   vertex 0.0125917 0.0475709 0.013
   vertex 0.00697966 0.0528937 0.013
   vertex 0.00545671 0.0450164 0.013
  endloop
 endfacet
 facet normal -0 0 1
  outer loop
   vertex 0.0125917 0.0475709 0.013
   vertex 0.00545671 0.0450164 0.013
   vertex 0.00954268 0.0387696 0.013
  endloop
 endfacet
 facet normal 0 0 1
  outer loop
   vertex 0.0125917 0.0475709 0.013
   vertex 0.0223865 0.0520594 0.013
   vertex 0.014375 0.055067 0.013
  endloop
 endfacet
 facet normal 0 0 1
  outer loop
   vertex 0.0125917 0.0475709 0.013
   vertex 0.014375 0.055067 0.013
   vertex 0.00697966 0.0528937 0.013
  endloop
 endfacet
 facet normal 0 0 1
  outer loop
   vertex 0.104064 0.0108888 0.013
   vertex 0.109672 0.0152759 0.013
   vertex 0.105568 0.0212858 0.013
  endloop
 endfacet
 facet normal 0 -0 1
  outer loop
   vertex 0.104064 0.0108888 0.013
   vertex 0.10917 0.00599492 0.013
   vertex 0.109672 0.0152759 0.013
  endloop
 endfacet
 facet normal 0 0 1
  outer loop
   vertex 0.0234836 0.0272493 0.013
   vertex 0.0272325 0.0366615 0.013
   vertex 0.018446 0.0349612 0.013
  endloop
 endfacet
 facet normal 0 -0 1
  outer loop
   vertex 0.0234836 0.0272493 0.013
   vertex 0.0255347 0.0168408 0.013
   vertex 0.030754 0.0217954 0.013
  endloop
 endfacet
 facet normal 0 0 1
  outer loop
   vertex 0.0918519 0.0317725 0.013
   vertex 0.0873563 0.0223087 0.013
   vertex 0.0966034 0.0248799 0.013
  endloop
 endfacet
 facet normal -0 0 1
  outer loop
   vertex 0.0522296 0.0406449 0.013
   vertex 0.0458008 0.0372483 0.013
   vertex 0.052341 0.0305328 0.013
  endloop
 endfacet
endsolid
