# Blender v2.76 (sub 0) OBJ File: ''
# www.blender.org
o Cylinder.002
v 0.005000 0.865261 -0.008144
v 0.014755 0.864755 -0.007327
v 0.014755 0.014862 -0.534283
v 0.024134 0.863256 -0.004909
v 0.024134 0.013362 -0.531865
v 0.032779 0.860820 -0.000982
v 0.032779 0.010928 -0.527938
v 0.040355 0.857544 0.004302
v 0.040355 0.007651 -0.522653
v 0.046573 0.853552 0.010742
v 0.046573 0.003658 -0.516214
v 0.051194 0.848996 0.018089
v 0.051194 -0.000897 -0.508867
v 0.054039 0.844053 0.026061
v 0.054039 -0.005839 -0.500895
v 0.055000 0.838914 0.034351
v 0.055000 -0.010980 -0.492605
v 0.054039 0.833773 0.042641
v 0.054039 -0.016120 -0.484315
v 0.051194 0.828830 0.050613
v 0.051194 -0.021062 -0.476343
v 0.046573 0.824275 0.057959
v 0.046573 -0.025617 -0.468996
v 0.040355 0.820283 0.064399
v 0.040355 -0.029611 -0.462557
v 0.032779 0.817006 0.069684
v 0.032779 -0.032887 -0.457272
v 0.024134 0.814571 0.073611
v 0.024134 -0.035322 -0.453345
v 0.014755 0.813071 0.076029
v 0.014755 -0.036821 -0.450927
v 0.005000 0.812566 0.076845
v 0.005000 -0.037328 -0.450110
v -0.004755 0.813071 0.076029
v -0.004755 -0.036821 -0.450927
v -0.014134 0.814571 0.073611
v -0.014134 -0.035322 -0.453345
v -0.022779 0.817006 0.069684
v -0.022779 -0.032887 -0.457272
v -0.030355 0.820283 0.064399
v -0.030355 -0.029611 -0.462557
v -0.036574 0.824275 0.057959
v -0.036574 -0.025617 -0.468996
v -0.041194 0.828830 0.050613
v -0.041194 -0.021062 -0.476343
v -0.044039 0.833773 0.042641
v -0.044039 -0.016120 -0.484315
v -0.045000 0.838914 0.034351
v -0.045000 -0.010980 -0.492605
v -0.044039 0.844053 0.026061
v -0.044039 -0.005839 -0.500895
v -0.041194 0.848996 0.018089
v -0.041194 -0.000897 -0.508867
v -0.036573 0.853552 0.010742
v -0.036573 0.003658 -0.516214
v -0.030355 0.857544 0.004302
v -0.030355 0.007651 -0.522653
v -0.022778 0.860821 -0.000982
v -0.022778 0.010928 -0.527938
v -0.014134 0.863256 -0.004909
v -0.014134 0.013362 -0.531865
v -0.004754 0.864755 -0.007327
v 0.005000 0.015369 -0.535100
v -0.004754 0.014862 -0.534283
vn 0.098000 0.524400 -0.845800
vn 0.098100 0.524400 -0.845800
vn 0.290300 0.504300 -0.813300
vn 0.471400 0.464700 -0.749600
vn 0.471300 0.464800 -0.749600
vn 0.634400 0.407300 -0.656900
vn 0.773000 0.334300 -0.539200
vn 0.773000 0.334300 -0.539100
vn 0.881900 0.248400 -0.400700
vn 0.957000 0.152900 -0.246700
vn 0.995200 0.051700 -0.083300
vn 0.995200 -0.051700 0.083300
vn 0.956900 -0.153000 0.246700
vn 0.881900 -0.248400 0.400700
vn 0.881900 -0.248400 0.400600
vn 0.773000 -0.334300 0.539200
vn 0.634400 -0.407300 0.656900
vn 0.634400 -0.407300 0.657000
vn 0.471400 -0.464700 0.749500
vn 0.290300 -0.504300 0.813300
vn 0.097900 -0.524400 0.845800
vn 0.098100 -0.524400 0.845800
vn -0.097900 -0.524400 0.845800
vn -0.098100 -0.524400 0.845800
vn -0.290300 -0.504300 0.813300
vn -0.471400 -0.464700 0.749500
vn -0.634400 -0.407300 0.656900
vn -0.634400 -0.407300 0.657000
vn -0.773000 -0.334300 0.539200
vn -0.772900 -0.334300 0.539200
vn -0.881900 -0.248400 0.400600
vn -0.882000 -0.248400 0.400600
vn -0.956900 -0.153000 0.246700
vn -0.995200 -0.051700 0.083300
vn -0.995200 0.051700 -0.083300
vn -0.957000 0.152900 -0.246700
vn -0.881900 0.248400 -0.400700
vn -0.773000 0.334300 -0.539200
vn -0.773000 0.334300 -0.539100
vn -0.634400 0.407300 -0.657000
vn -0.471400 0.464700 -0.749500
vn -0.471400 0.464700 -0.749600
vn -0.098000 0.524400 -0.845800
vn -0.098100 0.524400 -0.845800
vn -0.290300 0.504300 -0.813300
s 1
f 1//1 2//1 3//2
f 2//3 4//3 5//3
f 4//4 6//4 7//5
f 6//6 8//6 9//6
f 8//7 10//7 11//8
f 10//9 12//9 13//9
f 12//10 14//10 15//10
f 14//11 16//11 17//11
f 16//12 18//12 19//12
f 18//13 20//13 21//13
f 20//14 22//14 23//15
f 22//16 24//16 25//16
f 24//17 26//17 27//18
f 26//19 28//19 29//19
f 28//20 30//20 31//20
f 30//21 32//21 33//22
f 32//23 34//23 35//24
f 34//25 36//25 37//25
f 36//26 38//26 39//26
f 38//27 40//27 41//28
f 40//29 42//29 43//30
f 42//31 44//31 45//32
f 44//33 46//33 47//33
f 46//34 48//34 49//34
f 48//35 50//35 51//35
f 50//36 52//36 53//36
f 52//37 54//37 55//37
f 54//38 56//38 57//39
f 56//40 58//40 59//40
f 58//41 60//41 61//42
f 62//43 1//43 63//44
f 60//45 62//45 64//45
f 63//2 1//1 3//2
f 3//3 2//3 5//3
f 5//5 4//4 7//5
f 7//6 6//6 9//6
f 9//8 8//7 11//8
f 11//9 10//9 13//9
f 13//10 12//10 15//10
f 15//11 14//11 17//11
f 17//12 16//12 19//12
f 19//13 18//13 21//13
f 21//15 20//14 23//15
f 23//16 22//16 25//16
f 25//18 24//17 27//18
f 27//19 26//19 29//19
f 29//20 28//20 31//20
f 31//22 30//21 33//22
f 33//24 32//23 35//24
f 35//25 34//25 37//25
f 37//26 36//26 39//26
f 39//28 38//27 41//28
f 41//30 40//29 43//30
f 43//32 42//31 45//32
f 45//33 44//33 47//33
f 47//34 46//34 49//34
f 49//35 48//35 51//35
f 51//36 50//36 53//36
f 53//37 52//37 55//37
f 55//39 54//38 57//39
f 57//40 56//40 59//40
f 59//42 58//41 61//42
f 64//44 62//43 63//44
f 61//45 60//45 64//45
