# Blender v2.76 (sub 0) OBJ File: ''
# www.blender.org
o Cylinder.000_Cylinder.007
v 0.001609 0.855304 -0.021155
v 0.011364 0.854798 -0.020338
v 0.011364 0.004905 -0.547294
v 0.020743 0.853299 -0.017920
v 0.020743 0.003405 -0.544876
v 0.029388 0.850863 -0.013993
v 0.029388 0.000971 -0.540949
v 0.036964 0.847587 -0.008709
v 0.036964 -0.002306 -0.535664
v 0.043182 0.843595 -0.002269
v 0.043182 -0.006299 -0.529225
v 0.047803 0.839039 0.005078
v 0.047803 -0.010854 -0.521878
v 0.050648 0.834096 0.013050
v 0.050648 -0.015796 -0.513906
v 0.051609 0.828957 0.021340
v 0.051609 -0.020937 -0.505616
v 0.050648 0.823816 0.029630
v 0.050648 -0.026077 -0.497326
v 0.047803 0.818873 0.037602
v 0.047803 -0.031019 -0.489354
v 0.043182 0.814318 0.044948
v 0.043182 -0.035574 -0.482007
v 0.036964 0.810326 0.051388
v 0.036964 -0.039568 -0.475568
v 0.029388 0.807049 0.056673
v 0.029388 -0.042844 -0.470283
v 0.020743 0.804614 0.060600
v 0.020743 -0.045279 -0.466356
v 0.011364 0.803114 0.063018
v 0.011364 -0.046778 -0.463938
v 0.001609 0.802609 0.063834
v 0.001609 -0.047285 -0.463121
v -0.008146 0.803114 0.063018
v -0.008146 -0.046778 -0.463938
v -0.017525 0.804614 0.060600
v -0.017525 -0.045279 -0.466356
v -0.026170 0.807049 0.056673
v -0.026170 -0.042844 -0.470283
v -0.033746 0.810326 0.051388
v -0.033746 -0.039568 -0.475568
v -0.039965 0.814318 0.044948
v -0.039965 -0.035574 -0.482007
v -0.044585 0.818873 0.037602
v -0.044585 -0.031019 -0.489354
v -0.047430 0.823816 0.029630
v -0.047430 -0.026077 -0.497326
v -0.048391 0.828957 0.021340
v -0.048391 -0.020937 -0.505616
v -0.047430 0.834096 0.013050
v -0.047430 -0.015796 -0.513906
v -0.044585 0.839039 0.005078
v -0.044585 -0.010854 -0.521878
v -0.039964 0.843595 -0.002269
v -0.039964 -0.006299 -0.529225
v -0.033746 0.847587 -0.008709
v -0.033746 -0.002306 -0.535664
v -0.026169 0.850864 -0.013993
v -0.026169 0.000971 -0.540949
v -0.017525 0.853299 -0.017920
v -0.017525 0.003405 -0.544876
v -0.008145 0.854798 -0.020338
v 0.001609 0.005412 -0.548111
v -0.008145 0.004905 -0.547294
vn 0.098000 0.524400 -0.845800
vn 0.098100 0.524400 -0.845800
vn 0.290300 0.504300 -0.813300
vn 0.471400 0.464700 -0.749500
vn 0.471300 0.464700 -0.749600
vn 0.634400 0.407300 -0.657000
vn 0.634500 0.407300 -0.656900
vn 0.773000 0.334300 -0.539200
vn 0.881900 0.248400 -0.400600
vn 0.881900 0.248400 -0.400700
vn 0.957000 0.152900 -0.246700
vn 0.956900 0.153000 -0.246700
vn 0.995200 0.051700 -0.083300
vn 0.995200 -0.051700 0.083300
vn 0.957000 -0.152900 0.246700
vn 0.956900 -0.153000 0.246700
vn 0.881900 -0.248400 0.400700
vn 0.773000 -0.334300 0.539200
vn 0.773000 -0.334300 0.539100
vn 0.634500 -0.407300 0.656900
vn 0.634400 -0.407300 0.657000
vn 0.471400 -0.464700 0.749500
vn 0.290300 -0.504300 0.813300
vn 0.097900 -0.524400 0.845800
vn 0.098100 -0.524400 0.845800
vn -0.097900 -0.524400 0.845800
vn -0.098100 -0.524400 0.845800
vn -0.290300 -0.504300 0.813300
vn -0.471400 -0.464700 0.749500
vn -0.634500 -0.407300 0.656900
vn -0.634400 -0.407300 0.657000
vn -0.773000 -0.334300 0.539200
vn -0.881900 -0.248400 0.400600
vn -0.957000 -0.152900 0.246700
vn -0.956900 -0.153000 0.246700
vn -0.995200 -0.051700 0.083300
vn -0.995200 0.051700 -0.083300
vn -0.957000 0.152900 -0.246700
vn -0.956900 0.153000 -0.246700
vn -0.881900 0.248400 -0.400600
vn -0.881900 0.248400 -0.400700
vn -0.773000 0.334300 -0.539200
vn -0.634400 0.407400 -0.657000
vn -0.634400 0.407300 -0.657000
vn -0.471400 0.464700 -0.749500
vn -0.098000 0.524400 -0.845800
vn -0.098100 0.524400 -0.845800
vn -0.290200 0.504300 -0.813300
vn -0.290300 0.504300 -0.813300
s 1
f 1//1 2//1 3//2
f 2//3 4//3 5//3
f 4//4 6//4 7//5
f 6//6 8//6 9//7
f 8//8 10//8 11//8
f 10//9 12//9 13//10
f 12//11 14//11 15//12
f 14//13 16//13 17//13
f 16//14 18//14 19//14
f 18//15 20//15 21//16
f 20//17 22//17 23//17
f 22//18 24//18 25//19
f 24//20 26//20 27//21
f 26//22 28//22 29//22
f 28//23 30//23 31//23
f 30//24 32//24 33//25
f 32//26 34//26 35//27
f 34//28 36//28 37//28
f 36//29 38//29 39//29
f 38//30 40//30 41//31
f 40//32 42//32 43//32
f 42//33 44//33 45//33
f 44//34 46//34 47//35
f 46//36 48//36 49//36
f 48//37 50//37 51//37
f 50//38 52//38 53//39
f 52//40 54//40 55//41
f 54//42 56//42 57//42
f 56//43 58//43 59//44
f 58//45 60//45 61//45
f 62//46 1//46 63//47
f 60//48 62//48 64//49
f 63//2 1//1 3//2
f 3//3 2//3 5//3
f 5//5 4//4 7//5
f 7//7 6//6 9//7
f 9//8 8//8 11//8
f 11//10 10//9 13//10
f 13//12 12//11 15//12
f 15//13 14//13 17//13
f 17//14 16//14 19//14
f 19//16 18//15 21//16
f 21//17 20//17 23//17
f 23//19 22//18 25//19
f 25//21 24//20 27//21
f 27//22 26//22 29//22
f 29//23 28//23 31//23
f 31//25 30//24 33//25
f 33//27 32//26 35//27
f 35//28 34//28 37//28
f 37//29 36//29 39//29
f 39//31 38//30 41//31
f 41//32 40//32 43//32
f 43//33 42//33 45//33
f 45//35 44//34 47//35
f 47//36 46//36 49//36
f 49//37 48//37 51//37
f 51//39 50//38 53//39
f 53//41 52//40 55//41
f 55//42 54//42 57//42
f 57//44 56//43 59//44
f 59//45 58//45 61//45
f 64//47 62//46 63//47
f 61//49 60//48 64//49
